G04 #@! TF.GenerationSoftware,KiCad,Pcbnew,6.0.9-8da3e8f707~116~ubuntu20.04.1*
G04 #@! TF.CreationDate,2023-04-24T17:25:30+00:00*
G04 #@! TF.ProjectId,LEC008011,4c454330-3038-4303-9131-2e6b69636164,rev?*
G04 #@! TF.SameCoordinates,Original*
G04 #@! TF.FileFunction,Profile,NP*
%FSLAX46Y46*%
G04 Gerber Fmt 4.6, Leading zero omitted, Abs format (unit mm)*
G04 Created by KiCad (PCBNEW 6.0.9-8da3e8f707~116~ubuntu20.04.1) date 2023-04-24 17:25:30*
%MOMM*%
%LPD*%
G01*
G04 APERTURE LIST*
G04 #@! TA.AperFunction,Profile*
%ADD10C,0.050000*%
G04 #@! TD*
G04 APERTURE END LIST*
D10*
X70000000Y-93500000D02*
X70000000Y-86500000D01*
X79000000Y-95000000D02*
X71500000Y-95000000D01*
X121500000Y-46500000D02*
X120000000Y-45000000D01*
X98500000Y-45000000D02*
X120000000Y-45000000D01*
X120000000Y-93500000D02*
X118500000Y-95000000D01*
X68500000Y-46500000D02*
X68500000Y-85000000D01*
X68500000Y-85000000D02*
X70000000Y-86500000D01*
X70000000Y-45000000D02*
X88000000Y-45000000D01*
X70000000Y-93500000D02*
X71500000Y-95000000D01*
X98500000Y-45000000D02*
X97000000Y-43500000D01*
X80500000Y-96500000D02*
X88500000Y-96500000D01*
X121500000Y-47500000D02*
X121500000Y-46500000D01*
X88500000Y-96500000D02*
X90000000Y-95000000D01*
X120000000Y-86500000D02*
X121500000Y-85000000D01*
X121500000Y-85000000D02*
X121500000Y-47500000D01*
X97000000Y-43500000D02*
X89500000Y-43500000D01*
X120000000Y-86500000D02*
X120000000Y-93500000D01*
X89500000Y-43500000D02*
X88000000Y-45000000D01*
X118500000Y-95000000D02*
X90000000Y-95000000D01*
X79000000Y-95000000D02*
X80500000Y-96500000D01*
X70000000Y-45000000D02*
X68500000Y-46500000D01*
M02*
