G04 #@! TF.GenerationSoftware,KiCad,Pcbnew,6.0.9-8da3e8f707~116~ubuntu20.04.1*
G04 #@! TF.CreationDate,2023-04-24T17:25:30+00:00*
G04 #@! TF.ProjectId,LEC008011,4c454330-3038-4303-9131-2e6b69636164,rev?*
G04 #@! TF.SameCoordinates,Original*
G04 #@! TF.FileFunction,Legend,Top*
G04 #@! TF.FilePolarity,Positive*
%FSLAX46Y46*%
G04 Gerber Fmt 4.6, Leading zero omitted, Abs format (unit mm)*
G04 Created by KiCad (PCBNEW 6.0.9-8da3e8f707~116~ubuntu20.04.1) date 2023-04-24 17:25:30*
%MOMM*%
%LPD*%
G01*
G04 APERTURE LIST*
%ADD10C,0.120000*%
%ADD11C,0.500000*%
%ADD12C,0.150000*%
%ADD13C,0.100000*%
%ADD14C,0.010000*%
G04 APERTURE END LIST*
D10*
X107507000Y-70866000D02*
X102000000Y-70866000D01*
D11*
X81026000Y-75946000D02*
G75*
G03*
X81026000Y-75946000I-254000J0D01*
G01*
D10*
X102000000Y-70866000D02*
X102000000Y-60071000D01*
X102000000Y-60071000D02*
X107507000Y-60071000D01*
X107507000Y-60071000D02*
X107507000Y-70866000D01*
X88646000Y-66294000D02*
X88646000Y-71882000D01*
D12*
X85209238Y-95904761D02*
X85352095Y-95952380D01*
X85590190Y-95952380D01*
X85685428Y-95904761D01*
X85733047Y-95857142D01*
X85780666Y-95761904D01*
X85780666Y-95666666D01*
X85733047Y-95571428D01*
X85685428Y-95523809D01*
X85590190Y-95476190D01*
X85399714Y-95428571D01*
X85304476Y-95380952D01*
X85256857Y-95333333D01*
X85209238Y-95238095D01*
X85209238Y-95142857D01*
X85256857Y-95047619D01*
X85304476Y-95000000D01*
X85399714Y-94952380D01*
X85637809Y-94952380D01*
X85780666Y-95000000D01*
X86209238Y-95952380D02*
X86209238Y-94952380D01*
X86590190Y-94952380D01*
X86685428Y-95000000D01*
X86733047Y-95047619D01*
X86780666Y-95142857D01*
X86780666Y-95285714D01*
X86733047Y-95380952D01*
X86685428Y-95428571D01*
X86590190Y-95476190D01*
X86209238Y-95476190D01*
X87209238Y-95952380D02*
X87209238Y-94952380D01*
X87780666Y-95952380D02*
X87352095Y-95380952D01*
X87780666Y-94952380D02*
X87209238Y-95523809D01*
X88209238Y-95571428D02*
X88971142Y-95571428D01*
X80129238Y-95904761D02*
X80272095Y-95952380D01*
X80510190Y-95952380D01*
X80605428Y-95904761D01*
X80653047Y-95857142D01*
X80700666Y-95761904D01*
X80700666Y-95666666D01*
X80653047Y-95571428D01*
X80605428Y-95523809D01*
X80510190Y-95476190D01*
X80319714Y-95428571D01*
X80224476Y-95380952D01*
X80176857Y-95333333D01*
X80129238Y-95238095D01*
X80129238Y-95142857D01*
X80176857Y-95047619D01*
X80224476Y-95000000D01*
X80319714Y-94952380D01*
X80557809Y-94952380D01*
X80700666Y-95000000D01*
X81129238Y-95952380D02*
X81129238Y-94952380D01*
X81510190Y-94952380D01*
X81605428Y-95000000D01*
X81653047Y-95047619D01*
X81700666Y-95142857D01*
X81700666Y-95285714D01*
X81653047Y-95380952D01*
X81605428Y-95428571D01*
X81510190Y-95476190D01*
X81129238Y-95476190D01*
X82129238Y-95952380D02*
X82129238Y-94952380D01*
X82700666Y-95952380D02*
X82272095Y-95380952D01*
X82700666Y-94952380D02*
X82129238Y-95523809D01*
X83129238Y-95571428D02*
X83891142Y-95571428D01*
X83510190Y-95952380D02*
X83510190Y-95190476D01*
X70047619Y-68818095D02*
X70047619Y-68341904D01*
X69571428Y-68294285D01*
X69619047Y-68341904D01*
X69666666Y-68437142D01*
X69666666Y-68675238D01*
X69619047Y-68770476D01*
X69571428Y-68818095D01*
X69476190Y-68865714D01*
X69238095Y-68865714D01*
X69142857Y-68818095D01*
X69095238Y-68770476D01*
X69047619Y-68675238D01*
X69047619Y-68437142D01*
X69095238Y-68341904D01*
X69142857Y-68294285D01*
X69142857Y-84129523D02*
X69095238Y-84081904D01*
X69047619Y-83939047D01*
X69047619Y-83843809D01*
X69095238Y-83700952D01*
X69190476Y-83605714D01*
X69285714Y-83558095D01*
X69476190Y-83510476D01*
X69619047Y-83510476D01*
X69809523Y-83558095D01*
X69904761Y-83605714D01*
X70000000Y-83700952D01*
X70047619Y-83843809D01*
X70047619Y-83939047D01*
X70000000Y-84081904D01*
X69952380Y-84129523D01*
X69714285Y-63690476D02*
X69047619Y-63690476D01*
X70095238Y-63452380D02*
X69380952Y-63214285D01*
X69380952Y-63833333D01*
X70047619Y-58086666D02*
X70047619Y-58705714D01*
X69666666Y-58372380D01*
X69666666Y-58515238D01*
X69619047Y-58610476D01*
X69571428Y-58658095D01*
X69476190Y-58705714D01*
X69238095Y-58705714D01*
X69142857Y-58658095D01*
X69095238Y-58610476D01*
X69047619Y-58515238D01*
X69047619Y-58229523D01*
X69095238Y-58134285D01*
X69142857Y-58086666D01*
X70047619Y-73850476D02*
X70047619Y-73660000D01*
X70000000Y-73564761D01*
X69952380Y-73517142D01*
X69809523Y-73421904D01*
X69619047Y-73374285D01*
X69238095Y-73374285D01*
X69142857Y-73421904D01*
X69095238Y-73469523D01*
X69047619Y-73564761D01*
X69047619Y-73755238D01*
X69095238Y-73850476D01*
X69142857Y-73898095D01*
X69238095Y-73945714D01*
X69476190Y-73945714D01*
X69571428Y-73898095D01*
X69619047Y-73850476D01*
X69666666Y-73755238D01*
X69666666Y-73564761D01*
X69619047Y-73469523D01*
X69571428Y-73421904D01*
X69476190Y-73374285D01*
X69952380Y-53054285D02*
X70000000Y-53101904D01*
X70047619Y-53197142D01*
X70047619Y-53435238D01*
X70000000Y-53530476D01*
X69952380Y-53578095D01*
X69857142Y-53625714D01*
X69761904Y-53625714D01*
X69619047Y-53578095D01*
X69047619Y-53006666D01*
X69047619Y-53625714D01*
X69047619Y-48545714D02*
X69047619Y-47974285D01*
X69047619Y-48260000D02*
X70047619Y-48260000D01*
X69904761Y-48164761D01*
X69809523Y-48069523D01*
X69761904Y-47974285D01*
X70047619Y-78406666D02*
X70047619Y-79073333D01*
X69047619Y-78644761D01*
X120857142Y-83510476D02*
X120904761Y-83558095D01*
X120952380Y-83700952D01*
X120952380Y-83796190D01*
X120904761Y-83939047D01*
X120809523Y-84034285D01*
X120714285Y-84081904D01*
X120523809Y-84129523D01*
X120380952Y-84129523D01*
X120190476Y-84081904D01*
X120095238Y-84034285D01*
X120000000Y-83939047D01*
X119952380Y-83796190D01*
X119952380Y-83700952D01*
X120000000Y-83558095D01*
X120047619Y-83510476D01*
X120952380Y-73850476D02*
X120952380Y-73660000D01*
X120904761Y-73564761D01*
X120857142Y-73517142D01*
X120714285Y-73421904D01*
X120523809Y-73374285D01*
X120142857Y-73374285D01*
X120047619Y-73421904D01*
X120000000Y-73469523D01*
X119952380Y-73564761D01*
X119952380Y-73755238D01*
X120000000Y-73850476D01*
X120047619Y-73898095D01*
X120142857Y-73945714D01*
X120380952Y-73945714D01*
X120476190Y-73898095D01*
X120523809Y-73850476D01*
X120571428Y-73755238D01*
X120571428Y-73564761D01*
X120523809Y-73469523D01*
X120476190Y-73421904D01*
X120380952Y-73374285D01*
X120952380Y-58610476D02*
X120952380Y-59181904D01*
X120952380Y-58896190D02*
X119952380Y-58896190D01*
X120095238Y-58991428D01*
X120190476Y-59086666D01*
X120238095Y-59181904D01*
X120047619Y-58229523D02*
X120000000Y-58181904D01*
X119952380Y-58086666D01*
X119952380Y-57848571D01*
X120000000Y-57753333D01*
X120047619Y-57705714D01*
X120142857Y-57658095D01*
X120238095Y-57658095D01*
X120380952Y-57705714D01*
X120952380Y-58277142D01*
X120952380Y-57658095D01*
X120380952Y-78835238D02*
X120333333Y-78930476D01*
X120285714Y-78978095D01*
X120190476Y-79025714D01*
X120142857Y-79025714D01*
X120047619Y-78978095D01*
X120000000Y-78930476D01*
X119952380Y-78835238D01*
X119952380Y-78644761D01*
X120000000Y-78549523D01*
X120047619Y-78501904D01*
X120142857Y-78454285D01*
X120190476Y-78454285D01*
X120285714Y-78501904D01*
X120333333Y-78549523D01*
X120380952Y-78644761D01*
X120380952Y-78835238D01*
X120428571Y-78930476D01*
X120476190Y-78978095D01*
X120571428Y-79025714D01*
X120761904Y-79025714D01*
X120857142Y-78978095D01*
X120904761Y-78930476D01*
X120952380Y-78835238D01*
X120952380Y-78644761D01*
X120904761Y-78549523D01*
X120857142Y-78501904D01*
X120761904Y-78454285D01*
X120571428Y-78454285D01*
X120476190Y-78501904D01*
X120428571Y-78549523D01*
X120380952Y-78644761D01*
X120952380Y-63690476D02*
X120952380Y-64261904D01*
X120952380Y-63976190D02*
X119952380Y-63976190D01*
X120095238Y-64071428D01*
X120190476Y-64166666D01*
X120238095Y-64261904D01*
X120952380Y-62738095D02*
X120952380Y-63309523D01*
X120952380Y-63023809D02*
X119952380Y-63023809D01*
X120095238Y-63119047D01*
X120190476Y-63214285D01*
X120238095Y-63309523D01*
X120952380Y-53530476D02*
X120952380Y-54101904D01*
X120952380Y-53816190D02*
X119952380Y-53816190D01*
X120095238Y-53911428D01*
X120190476Y-54006666D01*
X120238095Y-54101904D01*
X119952380Y-53197142D02*
X119952380Y-52578095D01*
X120333333Y-52911428D01*
X120333333Y-52768571D01*
X120380952Y-52673333D01*
X120428571Y-52625714D01*
X120523809Y-52578095D01*
X120761904Y-52578095D01*
X120857142Y-52625714D01*
X120904761Y-52673333D01*
X120952380Y-52768571D01*
X120952380Y-53054285D01*
X120904761Y-53149523D01*
X120857142Y-53197142D01*
X120952380Y-48450476D02*
X120952380Y-49021904D01*
X120952380Y-48736190D02*
X119952380Y-48736190D01*
X120095238Y-48831428D01*
X120190476Y-48926666D01*
X120238095Y-49021904D01*
X120285714Y-47593333D02*
X120952380Y-47593333D01*
X119904761Y-47831428D02*
X120619047Y-48069523D01*
X120619047Y-47450476D01*
X120952380Y-68770476D02*
X120952380Y-69341904D01*
X120952380Y-69056190D02*
X119952380Y-69056190D01*
X120095238Y-69151428D01*
X120190476Y-69246666D01*
X120238095Y-69341904D01*
X119952380Y-68151428D02*
X119952380Y-68056190D01*
X120000000Y-67960952D01*
X120047619Y-67913333D01*
X120142857Y-67865714D01*
X120333333Y-67818095D01*
X120571428Y-67818095D01*
X120761904Y-67865714D01*
X120857142Y-67913333D01*
X120904761Y-67960952D01*
X120952380Y-68056190D01*
X120952380Y-68151428D01*
X120904761Y-68246666D01*
X120857142Y-68294285D01*
X120761904Y-68341904D01*
X120571428Y-68389523D01*
X120333333Y-68389523D01*
X120142857Y-68341904D01*
X120047619Y-68294285D01*
X120000000Y-68246666D01*
X119952380Y-68151428D01*
X94551333Y-44047619D02*
X94551333Y-45047619D01*
X94170380Y-45047619D01*
X94075142Y-45000000D01*
X94027523Y-44952380D01*
X93979904Y-44857142D01*
X93979904Y-44714285D01*
X94027523Y-44619047D01*
X94075142Y-44571428D01*
X94170380Y-44523809D01*
X94551333Y-44523809D01*
X93646571Y-45047619D02*
X93408476Y-44047619D01*
X93218000Y-44761904D01*
X93027523Y-44047619D01*
X92789428Y-45047619D01*
X91837047Y-44047619D02*
X92170380Y-44523809D01*
X92408476Y-44047619D02*
X92408476Y-45047619D01*
X92027523Y-45047619D01*
X91932285Y-45000000D01*
X91884666Y-44952380D01*
X91837047Y-44857142D01*
X91837047Y-44714285D01*
X91884666Y-44619047D01*
X91932285Y-44571428D01*
X92027523Y-44523809D01*
X92408476Y-44523809D01*
X108052380Y-58661904D02*
X109052380Y-58328571D01*
X108052380Y-57995238D01*
X108052380Y-57471428D02*
X108052380Y-57280952D01*
X108100000Y-57185714D01*
X108195238Y-57090476D01*
X108385714Y-57042857D01*
X108719047Y-57042857D01*
X108909523Y-57090476D01*
X109004761Y-57185714D01*
X109052380Y-57280952D01*
X109052380Y-57471428D01*
X109004761Y-57566666D01*
X108909523Y-57661904D01*
X108719047Y-57709523D01*
X108385714Y-57709523D01*
X108195238Y-57661904D01*
X108100000Y-57566666D01*
X108052380Y-57471428D01*
X109052380Y-56138095D02*
X109052380Y-56614285D01*
X108052380Y-56614285D01*
X106647380Y-68778000D02*
X106647380Y-69254190D01*
X105647380Y-69254190D01*
X106123571Y-68444666D02*
X106123571Y-68111333D01*
X106647380Y-67968476D02*
X106647380Y-68444666D01*
X105647380Y-68444666D01*
X105647380Y-67968476D01*
X106552142Y-66968476D02*
X106599761Y-67016095D01*
X106647380Y-67158952D01*
X106647380Y-67254190D01*
X106599761Y-67397047D01*
X106504523Y-67492285D01*
X106409285Y-67539904D01*
X106218809Y-67587523D01*
X106075952Y-67587523D01*
X105885476Y-67539904D01*
X105790238Y-67492285D01*
X105695000Y-67397047D01*
X105647380Y-67254190D01*
X105647380Y-67158952D01*
X105695000Y-67016095D01*
X105742619Y-66968476D01*
X105647380Y-66349428D02*
X105647380Y-66254190D01*
X105695000Y-66158952D01*
X105742619Y-66111333D01*
X105837857Y-66063714D01*
X106028333Y-66016095D01*
X106266428Y-66016095D01*
X106456904Y-66063714D01*
X106552142Y-66111333D01*
X106599761Y-66158952D01*
X106647380Y-66254190D01*
X106647380Y-66349428D01*
X106599761Y-66444666D01*
X106552142Y-66492285D01*
X106456904Y-66539904D01*
X106266428Y-66587523D01*
X106028333Y-66587523D01*
X105837857Y-66539904D01*
X105742619Y-66492285D01*
X105695000Y-66444666D01*
X105647380Y-66349428D01*
X105647380Y-65397047D02*
X105647380Y-65301809D01*
X105695000Y-65206571D01*
X105742619Y-65158952D01*
X105837857Y-65111333D01*
X106028333Y-65063714D01*
X106266428Y-65063714D01*
X106456904Y-65111333D01*
X106552142Y-65158952D01*
X106599761Y-65206571D01*
X106647380Y-65301809D01*
X106647380Y-65397047D01*
X106599761Y-65492285D01*
X106552142Y-65539904D01*
X106456904Y-65587523D01*
X106266428Y-65635142D01*
X106028333Y-65635142D01*
X105837857Y-65587523D01*
X105742619Y-65539904D01*
X105695000Y-65492285D01*
X105647380Y-65397047D01*
X106075952Y-64492285D02*
X106028333Y-64587523D01*
X105980714Y-64635142D01*
X105885476Y-64682761D01*
X105837857Y-64682761D01*
X105742619Y-64635142D01*
X105695000Y-64587523D01*
X105647380Y-64492285D01*
X105647380Y-64301809D01*
X105695000Y-64206571D01*
X105742619Y-64158952D01*
X105837857Y-64111333D01*
X105885476Y-64111333D01*
X105980714Y-64158952D01*
X106028333Y-64206571D01*
X106075952Y-64301809D01*
X106075952Y-64492285D01*
X106123571Y-64587523D01*
X106171190Y-64635142D01*
X106266428Y-64682761D01*
X106456904Y-64682761D01*
X106552142Y-64635142D01*
X106599761Y-64587523D01*
X106647380Y-64492285D01*
X106647380Y-64301809D01*
X106599761Y-64206571D01*
X106552142Y-64158952D01*
X106456904Y-64111333D01*
X106266428Y-64111333D01*
X106171190Y-64158952D01*
X106123571Y-64206571D01*
X106075952Y-64301809D01*
X105647380Y-63492285D02*
X105647380Y-63397047D01*
X105695000Y-63301809D01*
X105742619Y-63254190D01*
X105837857Y-63206571D01*
X106028333Y-63158952D01*
X106266428Y-63158952D01*
X106456904Y-63206571D01*
X106552142Y-63254190D01*
X106599761Y-63301809D01*
X106647380Y-63397047D01*
X106647380Y-63492285D01*
X106599761Y-63587523D01*
X106552142Y-63635142D01*
X106456904Y-63682761D01*
X106266428Y-63730380D01*
X106028333Y-63730380D01*
X105837857Y-63682761D01*
X105742619Y-63635142D01*
X105695000Y-63587523D01*
X105647380Y-63492285D01*
X106647380Y-62206571D02*
X106647380Y-62778000D01*
X106647380Y-62492285D02*
X105647380Y-62492285D01*
X105790238Y-62587523D01*
X105885476Y-62682761D01*
X105933095Y-62778000D01*
X106647380Y-61254190D02*
X106647380Y-61825619D01*
X106647380Y-61539904D02*
X105647380Y-61539904D01*
X105790238Y-61635142D01*
X105885476Y-61730380D01*
X105933095Y-61825619D01*
D13*
G04 #@! TO.C,C2*
X103501000Y-74284666D02*
X103534333Y-74318000D01*
X103567666Y-74418000D01*
X103567666Y-74484666D01*
X103534333Y-74584666D01*
X103467666Y-74651333D01*
X103401000Y-74684666D01*
X103267666Y-74718000D01*
X103167666Y-74718000D01*
X103034333Y-74684666D01*
X102967666Y-74651333D01*
X102901000Y-74584666D01*
X102867666Y-74484666D01*
X102867666Y-74418000D01*
X102901000Y-74318000D01*
X102934333Y-74284666D01*
X102934333Y-74018000D02*
X102901000Y-73984666D01*
X102867666Y-73918000D01*
X102867666Y-73751333D01*
X102901000Y-73684666D01*
X102934333Y-73651333D01*
X103001000Y-73618000D01*
X103067666Y-73618000D01*
X103167666Y-73651333D01*
X103567666Y-74051333D01*
X103567666Y-73618000D01*
G04 #@! TO.C,C3*
X85950000Y-56016666D02*
X85983333Y-56050000D01*
X86016666Y-56150000D01*
X86016666Y-56216666D01*
X85983333Y-56316666D01*
X85916666Y-56383333D01*
X85850000Y-56416666D01*
X85716666Y-56450000D01*
X85616666Y-56450000D01*
X85483333Y-56416666D01*
X85416666Y-56383333D01*
X85350000Y-56316666D01*
X85316666Y-56216666D01*
X85316666Y-56150000D01*
X85350000Y-56050000D01*
X85383333Y-56016666D01*
X85316666Y-55783333D02*
X85316666Y-55350000D01*
X85583333Y-55583333D01*
X85583333Y-55483333D01*
X85616666Y-55416666D01*
X85650000Y-55383333D01*
X85716666Y-55350000D01*
X85883333Y-55350000D01*
X85950000Y-55383333D01*
X85983333Y-55416666D01*
X86016666Y-55483333D01*
X86016666Y-55683333D01*
X85983333Y-55750000D01*
X85950000Y-55783333D01*
G04 #@! TO.C,C4*
X103769333Y-87880000D02*
X103736000Y-87913333D01*
X103636000Y-87946666D01*
X103569333Y-87946666D01*
X103469333Y-87913333D01*
X103402666Y-87846666D01*
X103369333Y-87780000D01*
X103336000Y-87646666D01*
X103336000Y-87546666D01*
X103369333Y-87413333D01*
X103402666Y-87346666D01*
X103469333Y-87280000D01*
X103569333Y-87246666D01*
X103636000Y-87246666D01*
X103736000Y-87280000D01*
X103769333Y-87313333D01*
X104369333Y-87480000D02*
X104369333Y-87946666D01*
X104202666Y-87213333D02*
X104036000Y-87713333D01*
X104469333Y-87713333D01*
G04 #@! TO.C,C6*
X98943333Y-62988000D02*
X98910000Y-63021333D01*
X98810000Y-63054666D01*
X98743333Y-63054666D01*
X98643333Y-63021333D01*
X98576666Y-62954666D01*
X98543333Y-62888000D01*
X98510000Y-62754666D01*
X98510000Y-62654666D01*
X98543333Y-62521333D01*
X98576666Y-62454666D01*
X98643333Y-62388000D01*
X98743333Y-62354666D01*
X98810000Y-62354666D01*
X98910000Y-62388000D01*
X98943333Y-62421333D01*
X99543333Y-62354666D02*
X99410000Y-62354666D01*
X99343333Y-62388000D01*
X99310000Y-62421333D01*
X99243333Y-62521333D01*
X99210000Y-62654666D01*
X99210000Y-62921333D01*
X99243333Y-62988000D01*
X99276666Y-63021333D01*
X99343333Y-63054666D01*
X99476666Y-63054666D01*
X99543333Y-63021333D01*
X99576666Y-62988000D01*
X99610000Y-62921333D01*
X99610000Y-62754666D01*
X99576666Y-62688000D01*
X99543333Y-62654666D01*
X99476666Y-62621333D01*
X99343333Y-62621333D01*
X99276666Y-62654666D01*
X99243333Y-62688000D01*
X99210000Y-62754666D01*
G04 #@! TO.C,C7*
X88388000Y-80429166D02*
X88421333Y-80462500D01*
X88454666Y-80562500D01*
X88454666Y-80629166D01*
X88421333Y-80729166D01*
X88354666Y-80795833D01*
X88288000Y-80829166D01*
X88154666Y-80862500D01*
X88054666Y-80862500D01*
X87921333Y-80829166D01*
X87854666Y-80795833D01*
X87788000Y-80729166D01*
X87754666Y-80629166D01*
X87754666Y-80562500D01*
X87788000Y-80462500D01*
X87821333Y-80429166D01*
X87754666Y-80195833D02*
X87754666Y-79729166D01*
X88454666Y-80029166D01*
G04 #@! TO.C,D2*
X110966666Y-68764166D02*
X110266666Y-68764166D01*
X110266666Y-68597500D01*
X110300000Y-68497500D01*
X110366666Y-68430833D01*
X110433333Y-68397500D01*
X110566666Y-68364166D01*
X110666666Y-68364166D01*
X110800000Y-68397500D01*
X110866666Y-68430833D01*
X110933333Y-68497500D01*
X110966666Y-68597500D01*
X110966666Y-68764166D01*
X110333333Y-68097500D02*
X110300000Y-68064166D01*
X110266666Y-67997500D01*
X110266666Y-67830833D01*
X110300000Y-67764166D01*
X110333333Y-67730833D01*
X110400000Y-67697500D01*
X110466666Y-67697500D01*
X110566666Y-67730833D01*
X110966666Y-68130833D01*
X110966666Y-67697500D01*
G04 #@! TO.C,R1*
X88454666Y-84190666D02*
X88121333Y-84424000D01*
X88454666Y-84590666D02*
X87754666Y-84590666D01*
X87754666Y-84324000D01*
X87788000Y-84257333D01*
X87821333Y-84224000D01*
X87888000Y-84190666D01*
X87988000Y-84190666D01*
X88054666Y-84224000D01*
X88088000Y-84257333D01*
X88121333Y-84324000D01*
X88121333Y-84590666D01*
X88454666Y-83524000D02*
X88454666Y-83924000D01*
X88454666Y-83724000D02*
X87754666Y-83724000D01*
X87854666Y-83790666D01*
X87921333Y-83857333D01*
X87954666Y-83924000D01*
G04 #@! TO.C,R2*
X111060666Y-64554166D02*
X110727333Y-64787500D01*
X111060666Y-64954166D02*
X110360666Y-64954166D01*
X110360666Y-64687500D01*
X110394000Y-64620833D01*
X110427333Y-64587500D01*
X110494000Y-64554166D01*
X110594000Y-64554166D01*
X110660666Y-64587500D01*
X110694000Y-64620833D01*
X110727333Y-64687500D01*
X110727333Y-64954166D01*
X110427333Y-64287500D02*
X110394000Y-64254166D01*
X110360666Y-64187500D01*
X110360666Y-64020833D01*
X110394000Y-63954166D01*
X110427333Y-63920833D01*
X110494000Y-63887500D01*
X110560666Y-63887500D01*
X110660666Y-63920833D01*
X111060666Y-64320833D01*
X111060666Y-63887500D01*
G04 #@! TO.C,U2*
X96136666Y-86131333D02*
X96703333Y-86131333D01*
X96770000Y-86098000D01*
X96803333Y-86064666D01*
X96836666Y-85998000D01*
X96836666Y-85864666D01*
X96803333Y-85798000D01*
X96770000Y-85764666D01*
X96703333Y-85731333D01*
X96136666Y-85731333D01*
X96203333Y-85431333D02*
X96170000Y-85398000D01*
X96136666Y-85331333D01*
X96136666Y-85164666D01*
X96170000Y-85098000D01*
X96203333Y-85064666D01*
X96270000Y-85031333D01*
X96336666Y-85031333D01*
X96436666Y-85064666D01*
X96836666Y-85464666D01*
X96836666Y-85031333D01*
G04 #@! TO.C,RV1*
X105183333Y-55316666D02*
X104950000Y-54983333D01*
X104783333Y-55316666D02*
X104783333Y-54616666D01*
X105050000Y-54616666D01*
X105116666Y-54650000D01*
X105150000Y-54683333D01*
X105183333Y-54750000D01*
X105183333Y-54850000D01*
X105150000Y-54916666D01*
X105116666Y-54950000D01*
X105050000Y-54983333D01*
X104783333Y-54983333D01*
X105383333Y-54616666D02*
X105616666Y-55316666D01*
X105850000Y-54616666D01*
X106450000Y-55316666D02*
X106050000Y-55316666D01*
X106250000Y-55316666D02*
X106250000Y-54616666D01*
X106183333Y-54716666D01*
X106116666Y-54783333D01*
X106050000Y-54816666D01*
G04 #@! TO.C,R3*
X88454666Y-77332666D02*
X88121333Y-77566000D01*
X88454666Y-77732666D02*
X87754666Y-77732666D01*
X87754666Y-77466000D01*
X87788000Y-77399333D01*
X87821333Y-77366000D01*
X87888000Y-77332666D01*
X87988000Y-77332666D01*
X88054666Y-77366000D01*
X88088000Y-77399333D01*
X88121333Y-77466000D01*
X88121333Y-77732666D01*
X87754666Y-77099333D02*
X87754666Y-76666000D01*
X88021333Y-76899333D01*
X88021333Y-76799333D01*
X88054666Y-76732666D01*
X88088000Y-76699333D01*
X88154666Y-76666000D01*
X88321333Y-76666000D01*
X88388000Y-76699333D01*
X88421333Y-76732666D01*
X88454666Y-76799333D01*
X88454666Y-76999333D01*
X88421333Y-77066000D01*
X88388000Y-77099333D01*
G04 #@! TO.C,C5*
X89291333Y-71878000D02*
X89258000Y-71911333D01*
X89158000Y-71944666D01*
X89091333Y-71944666D01*
X88991333Y-71911333D01*
X88924666Y-71844666D01*
X88891333Y-71778000D01*
X88858000Y-71644666D01*
X88858000Y-71544666D01*
X88891333Y-71411333D01*
X88924666Y-71344666D01*
X88991333Y-71278000D01*
X89091333Y-71244666D01*
X89158000Y-71244666D01*
X89258000Y-71278000D01*
X89291333Y-71311333D01*
X89924666Y-71244666D02*
X89591333Y-71244666D01*
X89558000Y-71578000D01*
X89591333Y-71544666D01*
X89658000Y-71511333D01*
X89824666Y-71511333D01*
X89891333Y-71544666D01*
X89924666Y-71578000D01*
X89958000Y-71644666D01*
X89958000Y-71811333D01*
X89924666Y-71878000D01*
X89891333Y-71911333D01*
X89824666Y-71944666D01*
X89658000Y-71944666D01*
X89591333Y-71911333D01*
X89558000Y-71878000D01*
G04 #@! TO.C,D3*
X85883333Y-73716666D02*
X85883333Y-73016666D01*
X86050000Y-73016666D01*
X86150000Y-73050000D01*
X86216666Y-73116666D01*
X86250000Y-73183333D01*
X86283333Y-73316666D01*
X86283333Y-73416666D01*
X86250000Y-73550000D01*
X86216666Y-73616666D01*
X86150000Y-73683333D01*
X86050000Y-73716666D01*
X85883333Y-73716666D01*
X86516666Y-73016666D02*
X86950000Y-73016666D01*
X86716666Y-73283333D01*
X86816666Y-73283333D01*
X86883333Y-73316666D01*
X86916666Y-73350000D01*
X86950000Y-73416666D01*
X86950000Y-73583333D01*
X86916666Y-73650000D01*
X86883333Y-73683333D01*
X86816666Y-73716666D01*
X86616666Y-73716666D01*
X86550000Y-73683333D01*
X86516666Y-73650000D01*
G04 #@! TO.C,L1*
X87483333Y-71316666D02*
X87150000Y-71316666D01*
X87150000Y-70616666D01*
X88083333Y-71316666D02*
X87683333Y-71316666D01*
X87883333Y-71316666D02*
X87883333Y-70616666D01*
X87816666Y-70716666D01*
X87750000Y-70783333D01*
X87683333Y-70816666D01*
G04 #@! TO.C,R4*
X89291333Y-70928666D02*
X89058000Y-70595333D01*
X88891333Y-70928666D02*
X88891333Y-70228666D01*
X89158000Y-70228666D01*
X89224666Y-70262000D01*
X89258000Y-70295333D01*
X89291333Y-70362000D01*
X89291333Y-70462000D01*
X89258000Y-70528666D01*
X89224666Y-70562000D01*
X89158000Y-70595333D01*
X88891333Y-70595333D01*
X89891333Y-70462000D02*
X89891333Y-70928666D01*
X89724666Y-70195333D02*
X89558000Y-70695333D01*
X89991333Y-70695333D01*
G04 #@! TO.C,R5*
X87767333Y-65340666D02*
X87534000Y-65007333D01*
X87367333Y-65340666D02*
X87367333Y-64640666D01*
X87634000Y-64640666D01*
X87700666Y-64674000D01*
X87734000Y-64707333D01*
X87767333Y-64774000D01*
X87767333Y-64874000D01*
X87734000Y-64940666D01*
X87700666Y-64974000D01*
X87634000Y-65007333D01*
X87367333Y-65007333D01*
X88400666Y-64640666D02*
X88067333Y-64640666D01*
X88034000Y-64974000D01*
X88067333Y-64940666D01*
X88134000Y-64907333D01*
X88300666Y-64907333D01*
X88367333Y-64940666D01*
X88400666Y-64974000D01*
X88434000Y-65040666D01*
X88434000Y-65207333D01*
X88400666Y-65274000D01*
X88367333Y-65307333D01*
X88300666Y-65340666D01*
X88134000Y-65340666D01*
X88067333Y-65307333D01*
X88034000Y-65274000D01*
G04 #@! TO.C,U1*
X78416666Y-61933333D02*
X78983333Y-61933333D01*
X79050000Y-61900000D01*
X79083333Y-61866666D01*
X79116666Y-61800000D01*
X79116666Y-61666666D01*
X79083333Y-61600000D01*
X79050000Y-61566666D01*
X78983333Y-61533333D01*
X78416666Y-61533333D01*
X79116666Y-60833333D02*
X79116666Y-61233333D01*
X79116666Y-61033333D02*
X78416666Y-61033333D01*
X78516666Y-61100000D01*
X78583333Y-61166666D01*
X78616666Y-61233333D01*
G04 #@! TO.C,C1*
X92301000Y-62901666D02*
X92334333Y-62935000D01*
X92367666Y-63035000D01*
X92367666Y-63101666D01*
X92334333Y-63201666D01*
X92267666Y-63268333D01*
X92201000Y-63301666D01*
X92067666Y-63335000D01*
X91967666Y-63335000D01*
X91834333Y-63301666D01*
X91767666Y-63268333D01*
X91701000Y-63201666D01*
X91667666Y-63101666D01*
X91667666Y-63035000D01*
X91701000Y-62935000D01*
X91734333Y-62901666D01*
X92367666Y-62235000D02*
X92367666Y-62635000D01*
X92367666Y-62435000D02*
X91667666Y-62435000D01*
X91767666Y-62501666D01*
X91834333Y-62568333D01*
X91867666Y-62635000D01*
G04 #@! TO.C,C8*
X98040000Y-75554666D02*
X98073333Y-75588000D01*
X98106666Y-75688000D01*
X98106666Y-75754666D01*
X98073333Y-75854666D01*
X98006666Y-75921333D01*
X97940000Y-75954666D01*
X97806666Y-75988000D01*
X97706666Y-75988000D01*
X97573333Y-75954666D01*
X97506666Y-75921333D01*
X97440000Y-75854666D01*
X97406666Y-75754666D01*
X97406666Y-75688000D01*
X97440000Y-75588000D01*
X97473333Y-75554666D01*
X97706666Y-75154666D02*
X97673333Y-75221333D01*
X97640000Y-75254666D01*
X97573333Y-75288000D01*
X97540000Y-75288000D01*
X97473333Y-75254666D01*
X97440000Y-75221333D01*
X97406666Y-75154666D01*
X97406666Y-75021333D01*
X97440000Y-74954666D01*
X97473333Y-74921333D01*
X97540000Y-74888000D01*
X97573333Y-74888000D01*
X97640000Y-74921333D01*
X97673333Y-74954666D01*
X97706666Y-75021333D01*
X97706666Y-75154666D01*
X97740000Y-75221333D01*
X97773333Y-75254666D01*
X97840000Y-75288000D01*
X97973333Y-75288000D01*
X98040000Y-75254666D01*
X98073333Y-75221333D01*
X98106666Y-75154666D01*
X98106666Y-75021333D01*
X98073333Y-74954666D01*
X98040000Y-74921333D01*
X97973333Y-74888000D01*
X97840000Y-74888000D01*
X97773333Y-74921333D01*
X97740000Y-74954666D01*
X97706666Y-75021333D01*
G04 #@! TO.C,D1*
X100316666Y-58266666D02*
X99616666Y-58266666D01*
X99616666Y-58100000D01*
X99650000Y-58000000D01*
X99716666Y-57933333D01*
X99783333Y-57900000D01*
X99916666Y-57866666D01*
X100016666Y-57866666D01*
X100150000Y-57900000D01*
X100216666Y-57933333D01*
X100283333Y-58000000D01*
X100316666Y-58100000D01*
X100316666Y-58266666D01*
X100316666Y-57200000D02*
X100316666Y-57600000D01*
X100316666Y-57400000D02*
X99616666Y-57400000D01*
X99716666Y-57466666D01*
X99783333Y-57533333D01*
X99816666Y-57600000D01*
D12*
G04 #@! TO.C,J14*
X91160476Y-72032380D02*
X91160476Y-72746666D01*
X91112857Y-72889523D01*
X91017619Y-72984761D01*
X90874761Y-73032380D01*
X90779523Y-73032380D01*
X92160476Y-73032380D02*
X91589047Y-73032380D01*
X91874761Y-73032380D02*
X91874761Y-72032380D01*
X91779523Y-72175238D01*
X91684285Y-72270476D01*
X91589047Y-72318095D01*
X93017619Y-72365714D02*
X93017619Y-73032380D01*
X92779523Y-71984761D02*
X92541428Y-72699047D01*
X93160476Y-72699047D01*
G04 #@! TO.C,J13*
X109150476Y-72052380D02*
X109150476Y-72766666D01*
X109102857Y-72909523D01*
X109007619Y-73004761D01*
X108864761Y-73052380D01*
X108769523Y-73052380D01*
X110150476Y-73052380D02*
X109579047Y-73052380D01*
X109864761Y-73052380D02*
X109864761Y-72052380D01*
X109769523Y-72195238D01*
X109674285Y-72290476D01*
X109579047Y-72338095D01*
X110483809Y-72052380D02*
X111102857Y-72052380D01*
X110769523Y-72433333D01*
X110912380Y-72433333D01*
X111007619Y-72480952D01*
X111055238Y-72528571D01*
X111102857Y-72623809D01*
X111102857Y-72861904D01*
X111055238Y-72957142D01*
X111007619Y-73004761D01*
X110912380Y-73052380D01*
X110626666Y-73052380D01*
X110531428Y-73004761D01*
X110483809Y-72957142D01*
D10*
G04 #@! TO.C,C2*
X102564000Y-74426578D02*
X102564000Y-73909422D01*
X101144000Y-74426578D02*
X101144000Y-73909422D01*
G04 #@! TO.C,C3*
X85090000Y-58758578D02*
X85090000Y-58241422D01*
X86510000Y-58758578D02*
X86510000Y-58241422D01*
G04 #@! TO.C,C4*
X101038922Y-88340000D02*
X101556078Y-88340000D01*
X101038922Y-86920000D02*
X101556078Y-86920000D01*
G04 #@! TO.C,C6*
X93224437Y-72178000D02*
X95010000Y-72178000D01*
X100880000Y-71113563D02*
X100880000Y-63458000D01*
X93224437Y-72178000D02*
X92160000Y-71113563D01*
X92160000Y-71113563D02*
X92160000Y-63458000D01*
X100880000Y-63458000D02*
X98030000Y-63458000D01*
X99815563Y-72178000D02*
X98030000Y-72178000D01*
X94010000Y-73418000D02*
X94010000Y-72418000D01*
X99815563Y-72178000D02*
X100880000Y-71113563D01*
X93510000Y-72918000D02*
X94510000Y-72918000D01*
X92160000Y-63458000D02*
X95010000Y-63458000D01*
G04 #@! TO.C,C7*
X90245000Y-80571078D02*
X90245000Y-80053922D01*
X88825000Y-80571078D02*
X88825000Y-80053922D01*
G04 #@! TO.C,D2*
X109955000Y-69047500D02*
X109955000Y-66762500D01*
X108485000Y-66762500D02*
X108485000Y-69047500D01*
X109955000Y-66762500D02*
X108485000Y-66762500D01*
G04 #@! TO.C,H1*
X86409903Y-49000000D02*
G75*
G03*
X86409903Y-49000000I-3224903J0D01*
G01*
G36*
X81585000Y-49100000D02*
G01*
X81685000Y-49500000D01*
X81885000Y-49900000D01*
X82285000Y-50300000D01*
X82685000Y-50500000D01*
X83085000Y-50600000D01*
X83185000Y-50600000D01*
X83185000Y-52224903D01*
X82685000Y-52200000D01*
X81685000Y-51900000D01*
X80885000Y-51300000D01*
X80385000Y-50600000D01*
X80085000Y-49900000D01*
X79985000Y-49500000D01*
X79985000Y-49000000D01*
X81585000Y-49000000D01*
X81585000Y-49100000D01*
G37*
D14*
X81585000Y-49100000D02*
X81685000Y-49500000D01*
X81885000Y-49900000D01*
X82285000Y-50300000D01*
X82685000Y-50500000D01*
X83085000Y-50600000D01*
X83185000Y-50600000D01*
X83185000Y-52224903D01*
X82685000Y-52200000D01*
X81685000Y-51900000D01*
X80885000Y-51300000D01*
X80385000Y-50600000D01*
X80085000Y-49900000D01*
X79985000Y-49500000D01*
X79985000Y-49000000D01*
X81585000Y-49000000D01*
X81585000Y-49100000D01*
G36*
X83685000Y-45800000D02*
G01*
X84685000Y-46100000D01*
X85485000Y-46700000D01*
X85985000Y-47400000D01*
X86285000Y-48100000D01*
X86385000Y-48500000D01*
X86385000Y-49000000D01*
X84785000Y-49000000D01*
X84785000Y-48900000D01*
X84685000Y-48500000D01*
X84485000Y-48100000D01*
X84085000Y-47700000D01*
X83685000Y-47500000D01*
X83285000Y-47400000D01*
X83185000Y-47400000D01*
X83185000Y-45775097D01*
X83685000Y-45800000D01*
G37*
X83685000Y-45800000D02*
X84685000Y-46100000D01*
X85485000Y-46700000D01*
X85985000Y-47400000D01*
X86285000Y-48100000D01*
X86385000Y-48500000D01*
X86385000Y-49000000D01*
X84785000Y-49000000D01*
X84785000Y-48900000D01*
X84685000Y-48500000D01*
X84485000Y-48100000D01*
X84085000Y-47700000D01*
X83685000Y-47500000D01*
X83285000Y-47400000D01*
X83185000Y-47400000D01*
X83185000Y-45775097D01*
X83685000Y-45800000D01*
D10*
G04 #@! TO.C,H2*
X119224903Y-91000000D02*
G75*
G03*
X119224903Y-91000000I-3224903J0D01*
G01*
G36*
X116500000Y-87800000D02*
G01*
X117500000Y-88100000D01*
X118300000Y-88700000D01*
X118800000Y-89400000D01*
X119100000Y-90100000D01*
X119200000Y-90500000D01*
X119200000Y-91000000D01*
X117600000Y-91000000D01*
X117600000Y-90900000D01*
X117500000Y-90500000D01*
X117300000Y-90100000D01*
X116900000Y-89700000D01*
X116500000Y-89500000D01*
X116100000Y-89400000D01*
X116000000Y-89400000D01*
X116000000Y-87775097D01*
X116500000Y-87800000D01*
G37*
D14*
X116500000Y-87800000D02*
X117500000Y-88100000D01*
X118300000Y-88700000D01*
X118800000Y-89400000D01*
X119100000Y-90100000D01*
X119200000Y-90500000D01*
X119200000Y-91000000D01*
X117600000Y-91000000D01*
X117600000Y-90900000D01*
X117500000Y-90500000D01*
X117300000Y-90100000D01*
X116900000Y-89700000D01*
X116500000Y-89500000D01*
X116100000Y-89400000D01*
X116000000Y-89400000D01*
X116000000Y-87775097D01*
X116500000Y-87800000D01*
G36*
X114400000Y-91100000D02*
G01*
X114500000Y-91500000D01*
X114700000Y-91900000D01*
X115100000Y-92300000D01*
X115500000Y-92500000D01*
X115900000Y-92600000D01*
X116000000Y-92600000D01*
X116000000Y-94224903D01*
X115500000Y-94200000D01*
X114500000Y-93900000D01*
X113700000Y-93300000D01*
X113200000Y-92600000D01*
X112900000Y-91900000D01*
X112800000Y-91500000D01*
X112800000Y-91000000D01*
X114400000Y-91000000D01*
X114400000Y-91100000D01*
G37*
X114400000Y-91100000D02*
X114500000Y-91500000D01*
X114700000Y-91900000D01*
X115100000Y-92300000D01*
X115500000Y-92500000D01*
X115900000Y-92600000D01*
X116000000Y-92600000D01*
X116000000Y-94224903D01*
X115500000Y-94200000D01*
X114500000Y-93900000D01*
X113700000Y-93300000D01*
X113200000Y-92600000D01*
X112900000Y-91900000D01*
X112800000Y-91500000D01*
X112800000Y-91000000D01*
X114400000Y-91000000D01*
X114400000Y-91100000D01*
D10*
G04 #@! TO.C,H4*
X77224903Y-91000000D02*
G75*
G03*
X77224903Y-91000000I-3224903J0D01*
G01*
G36*
X72400000Y-91100000D02*
G01*
X72500000Y-91500000D01*
X72700000Y-91900000D01*
X73100000Y-92300000D01*
X73500000Y-92500000D01*
X73900000Y-92600000D01*
X74000000Y-92600000D01*
X74000000Y-94224903D01*
X73500000Y-94200000D01*
X72500000Y-93900000D01*
X71700000Y-93300000D01*
X71200000Y-92600000D01*
X70900000Y-91900000D01*
X70800000Y-91500000D01*
X70800000Y-91000000D01*
X72400000Y-91000000D01*
X72400000Y-91100000D01*
G37*
D14*
X72400000Y-91100000D02*
X72500000Y-91500000D01*
X72700000Y-91900000D01*
X73100000Y-92300000D01*
X73500000Y-92500000D01*
X73900000Y-92600000D01*
X74000000Y-92600000D01*
X74000000Y-94224903D01*
X73500000Y-94200000D01*
X72500000Y-93900000D01*
X71700000Y-93300000D01*
X71200000Y-92600000D01*
X70900000Y-91900000D01*
X70800000Y-91500000D01*
X70800000Y-91000000D01*
X72400000Y-91000000D01*
X72400000Y-91100000D01*
G36*
X74500000Y-87800000D02*
G01*
X75500000Y-88100000D01*
X76300000Y-88700000D01*
X76800000Y-89400000D01*
X77100000Y-90100000D01*
X77200000Y-90500000D01*
X77200000Y-91000000D01*
X75600000Y-91000000D01*
X75600000Y-90900000D01*
X75500000Y-90500000D01*
X75300000Y-90100000D01*
X74900000Y-89700000D01*
X74500000Y-89500000D01*
X74100000Y-89400000D01*
X74000000Y-89400000D01*
X74000000Y-87775097D01*
X74500000Y-87800000D01*
G37*
X74500000Y-87800000D02*
X75500000Y-88100000D01*
X76300000Y-88700000D01*
X76800000Y-89400000D01*
X77100000Y-90100000D01*
X77200000Y-90500000D01*
X77200000Y-91000000D01*
X75600000Y-91000000D01*
X75600000Y-90900000D01*
X75500000Y-90500000D01*
X75300000Y-90100000D01*
X74900000Y-89700000D01*
X74500000Y-89500000D01*
X74100000Y-89400000D01*
X74000000Y-89400000D01*
X74000000Y-87775097D01*
X74500000Y-87800000D01*
D10*
G04 #@! TO.C,J3*
X81855000Y-79375000D02*
X81855000Y-84515000D01*
X81855000Y-76775000D02*
X83185000Y-76775000D01*
X81855000Y-78105000D02*
X81855000Y-76775000D01*
X84455000Y-79375000D02*
X84455000Y-76775000D01*
X87055000Y-76775000D02*
X87055000Y-84515000D01*
X84455000Y-76775000D02*
X87055000Y-76775000D01*
X81855000Y-79375000D02*
X84455000Y-79375000D01*
X81855000Y-84515000D02*
X87055000Y-84515000D01*
G04 #@! TO.C,R1*
X90245000Y-84411078D02*
X90245000Y-83893922D01*
X88825000Y-84411078D02*
X88825000Y-83893922D01*
G04 #@! TO.C,R2*
X108510000Y-64696078D02*
X108510000Y-64178922D01*
X109930000Y-64696078D02*
X109930000Y-64178922D01*
D12*
G04 #@! TO.C,U2*
X97340000Y-84905000D02*
X97565000Y-84905000D01*
X104590000Y-84905000D02*
X104590000Y-84580000D01*
X104590000Y-77655000D02*
X104590000Y-77980000D01*
X104590000Y-84905000D02*
X104265000Y-84905000D01*
X97340000Y-84905000D02*
X97340000Y-84580000D01*
X97565000Y-84905000D02*
X97565000Y-86330000D01*
X104590000Y-77655000D02*
X104265000Y-77655000D01*
X97340000Y-77655000D02*
X97340000Y-77980000D01*
X97340000Y-77655000D02*
X97665000Y-77655000D01*
D10*
G04 #@! TO.C,J1*
X88265000Y-53340000D02*
X98425000Y-53340000D01*
X98425000Y-45720000D02*
X88265000Y-45720000D01*
X88265000Y-46990000D02*
X98425000Y-46990000D01*
X88265000Y-45720000D02*
X88265000Y-53340000D01*
X98425000Y-53340000D02*
X98425000Y-45720000D01*
G04 #@! TO.C,J4*
X78105000Y-55880000D02*
X78105000Y-45720000D01*
X70485000Y-55880000D02*
X78105000Y-55880000D01*
X71755000Y-55880000D02*
X71755000Y-45720000D01*
X70485000Y-45720000D02*
X70485000Y-55880000D01*
X78105000Y-45720000D02*
X70485000Y-45720000D01*
G04 #@! TO.C,J5*
X70485000Y-55880000D02*
X70485000Y-66040000D01*
X78105000Y-66040000D02*
X78105000Y-55880000D01*
X78105000Y-55880000D02*
X70485000Y-55880000D01*
X70485000Y-66040000D02*
X78105000Y-66040000D01*
X71755000Y-66040000D02*
X71755000Y-55880000D01*
G04 #@! TO.C,J6*
X70485000Y-66040000D02*
X70485000Y-76200000D01*
X70485000Y-76200000D02*
X78105000Y-76200000D01*
X78105000Y-66040000D02*
X70485000Y-66040000D01*
X78105000Y-76200000D02*
X78105000Y-66040000D01*
X71755000Y-76200000D02*
X71755000Y-66040000D01*
G04 #@! TO.C,J7*
X71755000Y-86360000D02*
X71755000Y-76200000D01*
X78105000Y-86360000D02*
X78105000Y-76200000D01*
X70485000Y-76200000D02*
X70485000Y-86360000D01*
X70485000Y-86360000D02*
X78105000Y-86360000D01*
X78105000Y-76200000D02*
X70485000Y-76200000D01*
G04 #@! TO.C,J8*
X111760000Y-55880000D02*
X119380000Y-55880000D01*
X111760000Y-45720000D02*
X111760000Y-55880000D01*
X119380000Y-45720000D02*
X111760000Y-45720000D01*
X118110000Y-45720000D02*
X118110000Y-55880000D01*
X119380000Y-55880000D02*
X119380000Y-45720000D01*
G04 #@! TO.C,J9*
X119380000Y-55880000D02*
X111760000Y-55880000D01*
X118110000Y-55880000D02*
X118110000Y-66040000D01*
X111760000Y-55880000D02*
X111760000Y-66040000D01*
X119380000Y-66040000D02*
X119380000Y-55880000D01*
X111760000Y-66040000D02*
X119380000Y-66040000D01*
G04 #@! TO.C,J10*
X119380000Y-76200000D02*
X119380000Y-66040000D01*
X118110000Y-66040000D02*
X118110000Y-76200000D01*
X111760000Y-66040000D02*
X111760000Y-76200000D01*
X119380000Y-66040000D02*
X111760000Y-66040000D01*
X111760000Y-76200000D02*
X119380000Y-76200000D01*
G04 #@! TO.C,J12*
X89535000Y-93345000D02*
X79375000Y-93345000D01*
X89535000Y-94615000D02*
X89535000Y-86995000D01*
X79375000Y-94615000D02*
X89535000Y-94615000D01*
X89535000Y-86995000D02*
X79375000Y-86995000D01*
X79375000Y-86995000D02*
X79375000Y-94615000D01*
G04 #@! TO.C,RV1*
X102800000Y-55600000D02*
X102800000Y-56300000D01*
X104400000Y-55800000D02*
X107300000Y-55800000D01*
X107300000Y-59000000D02*
X107300000Y-58400000D01*
X103300000Y-57200000D02*
X103300000Y-57600000D01*
X107300000Y-55800000D02*
X107300000Y-56400000D01*
X104400000Y-59000000D02*
X107300000Y-59000000D01*
X103500000Y-55600000D02*
X102800000Y-55600000D01*
G04 #@! TO.C,R3*
X88825000Y-76712578D02*
X88825000Y-76195422D01*
X90245000Y-76712578D02*
X90245000Y-76195422D01*
G04 #@! TO.C,J11*
X118110000Y-76200000D02*
X118110000Y-86360000D01*
X111760000Y-86360000D02*
X119380000Y-86360000D01*
X111760000Y-76200000D02*
X111760000Y-86360000D01*
X119380000Y-86360000D02*
X119380000Y-76200000D01*
X119380000Y-76200000D02*
X111760000Y-76200000D01*
G04 #@! TO.C,C5*
X90696078Y-69810000D02*
X90178922Y-69810000D01*
X90696078Y-68390000D02*
X90178922Y-68390000D01*
G04 #@! TO.C,D3*
X85500000Y-71650000D02*
X80100000Y-71650000D01*
X85500000Y-74950000D02*
X85500000Y-71650000D01*
X85500000Y-74950000D02*
X80100000Y-74950000D01*
G04 #@! TO.C,L1*
X86900000Y-71300000D02*
X79100000Y-71300000D01*
X86900000Y-64300000D02*
X86900000Y-71300000D01*
X79100000Y-64300000D02*
X86900000Y-64300000D01*
X79100000Y-71300000D02*
X79100000Y-64300000D01*
G04 #@! TO.C,R4*
X90696078Y-67810000D02*
X90178922Y-67810000D01*
X90696078Y-66390000D02*
X90178922Y-66390000D01*
G04 #@! TO.C,R5*
X90141422Y-65810000D02*
X90658578Y-65810000D01*
X90141422Y-64390000D02*
X90658578Y-64390000D01*
G04 #@! TO.C,U1*
X84590000Y-59000000D02*
X84590000Y-60880000D01*
X79410000Y-59000000D02*
X79410000Y-62525000D01*
X79410000Y-59000000D02*
X79410000Y-57120000D01*
X84590000Y-59000000D02*
X84590000Y-57120000D01*
G04 #@! TO.C,C1*
X88054437Y-61910000D02*
X86990000Y-60845563D01*
X93810000Y-60845563D02*
X93810000Y-55090000D01*
X88552500Y-62937500D02*
X88552500Y-62150000D01*
X92745563Y-61910000D02*
X93810000Y-60845563D01*
X88054437Y-61910000D02*
X89340000Y-61910000D01*
X93810000Y-55090000D02*
X91460000Y-55090000D01*
X86990000Y-55090000D02*
X89340000Y-55090000D01*
X88158750Y-62543750D02*
X88946250Y-62543750D01*
X86990000Y-60845563D02*
X86990000Y-55090000D01*
X92745563Y-61910000D02*
X91460000Y-61910000D01*
G04 #@! TO.C,C8*
X98604000Y-74426578D02*
X98604000Y-73909422D01*
X100024000Y-74426578D02*
X100024000Y-73909422D01*
G04 #@! TO.C,D1*
X95950000Y-59950000D02*
X97550000Y-59950000D01*
X99250000Y-55550000D02*
X99250000Y-59950000D01*
X94750000Y-59950000D02*
X94750000Y-61350000D01*
X98450000Y-55550000D02*
X99250000Y-55550000D01*
X94250000Y-55550000D02*
X94250000Y-59950000D01*
X95050000Y-55550000D02*
X94250000Y-55550000D01*
X94250000Y-59950000D02*
X94750000Y-59950000D01*
X95950000Y-55550000D02*
X97550000Y-55550000D01*
X99250000Y-59950000D02*
X98450000Y-59950000D01*
G04 #@! TO.C,J14*
X90640000Y-76180000D02*
X93300000Y-76180000D01*
X90640000Y-73580000D02*
X91970000Y-73580000D01*
X90640000Y-76180000D02*
X90640000Y-94020000D01*
X90640000Y-74910000D02*
X90640000Y-73580000D01*
X93300000Y-76180000D02*
X93300000Y-94020000D01*
X90640000Y-94020000D02*
X93300000Y-94020000D01*
G04 #@! TO.C,J13*
X108630000Y-73600000D02*
X109960000Y-73600000D01*
X111290000Y-76200000D02*
X111290000Y-94040000D01*
X108630000Y-74930000D02*
X108630000Y-73600000D01*
X108630000Y-94040000D02*
X111290000Y-94040000D01*
X108630000Y-76200000D02*
X111290000Y-76200000D01*
X108630000Y-76200000D02*
X108630000Y-94040000D01*
G04 #@! TD*
M02*
