G04 #@! TF.GenerationSoftware,KiCad,Pcbnew,6.0.9-8da3e8f707~116~ubuntu20.04.1*
G04 #@! TF.CreationDate,2023-04-24T17:25:30+00:00*
G04 #@! TF.ProjectId,LEC008011,4c454330-3038-4303-9131-2e6b69636164,rev?*
G04 #@! TF.SameCoordinates,Original*
G04 #@! TF.FileFunction,Legend,Bot*
G04 #@! TF.FilePolarity,Positive*
%FSLAX46Y46*%
G04 Gerber Fmt 4.6, Leading zero omitted, Abs format (unit mm)*
G04 Created by KiCad (PCBNEW 6.0.9-8da3e8f707~116~ubuntu20.04.1) date 2023-04-24 17:25:30*
%MOMM*%
%LPD*%
G01*
G04 APERTURE LIST*
%ADD10C,0.150000*%
%ADD11C,0.100000*%
%ADD12C,0.120000*%
%ADD13C,0.010000*%
G04 APERTURE END LIST*
D10*
X120952380Y-53149523D02*
X120952380Y-52578095D01*
X120952380Y-52863809D02*
X119952380Y-52863809D01*
X120095238Y-52768571D01*
X120190476Y-52673333D01*
X120238095Y-52578095D01*
X119952380Y-53482857D02*
X119952380Y-54101904D01*
X120333333Y-53768571D01*
X120333333Y-53911428D01*
X120380952Y-54006666D01*
X120428571Y-54054285D01*
X120523809Y-54101904D01*
X120761904Y-54101904D01*
X120857142Y-54054285D01*
X120904761Y-54006666D01*
X120952380Y-53911428D01*
X120952380Y-53625714D01*
X120904761Y-53530476D01*
X120857142Y-53482857D01*
X120952380Y-73469523D02*
X120952380Y-73660000D01*
X120904761Y-73755238D01*
X120857142Y-73802857D01*
X120714285Y-73898095D01*
X120523809Y-73945714D01*
X120142857Y-73945714D01*
X120047619Y-73898095D01*
X120000000Y-73850476D01*
X119952380Y-73755238D01*
X119952380Y-73564761D01*
X120000000Y-73469523D01*
X120047619Y-73421904D01*
X120142857Y-73374285D01*
X120380952Y-73374285D01*
X120476190Y-73421904D01*
X120523809Y-73469523D01*
X120571428Y-73564761D01*
X120571428Y-73755238D01*
X120523809Y-73850476D01*
X120476190Y-73898095D01*
X120380952Y-73945714D01*
X120857142Y-84129523D02*
X120904761Y-84081904D01*
X120952380Y-83939047D01*
X120952380Y-83843809D01*
X120904761Y-83700952D01*
X120809523Y-83605714D01*
X120714285Y-83558095D01*
X120523809Y-83510476D01*
X120380952Y-83510476D01*
X120190476Y-83558095D01*
X120095238Y-83605714D01*
X120000000Y-83700952D01*
X119952380Y-83843809D01*
X119952380Y-83939047D01*
X120000000Y-84081904D01*
X120047619Y-84129523D01*
X69047619Y-47974285D02*
X69047619Y-48545714D01*
X69047619Y-48260000D02*
X70047619Y-48260000D01*
X69904761Y-48355238D01*
X69809523Y-48450476D01*
X69761904Y-48545714D01*
X69714285Y-63309523D02*
X69047619Y-63309523D01*
X70095238Y-63547619D02*
X69380952Y-63785714D01*
X69380952Y-63166666D01*
X70047619Y-58753333D02*
X70047619Y-58134285D01*
X69666666Y-58467619D01*
X69666666Y-58324761D01*
X69619047Y-58229523D01*
X69571428Y-58181904D01*
X69476190Y-58134285D01*
X69238095Y-58134285D01*
X69142857Y-58181904D01*
X69095238Y-58229523D01*
X69047619Y-58324761D01*
X69047619Y-58610476D01*
X69095238Y-58705714D01*
X69142857Y-58753333D01*
X70047619Y-73469523D02*
X70047619Y-73660000D01*
X70000000Y-73755238D01*
X69952380Y-73802857D01*
X69809523Y-73898095D01*
X69619047Y-73945714D01*
X69238095Y-73945714D01*
X69142857Y-73898095D01*
X69095238Y-73850476D01*
X69047619Y-73755238D01*
X69047619Y-73564761D01*
X69095238Y-73469523D01*
X69142857Y-73421904D01*
X69238095Y-73374285D01*
X69476190Y-73374285D01*
X69571428Y-73421904D01*
X69619047Y-73469523D01*
X69666666Y-73564761D01*
X69666666Y-73755238D01*
X69619047Y-73850476D01*
X69571428Y-73898095D01*
X69476190Y-73945714D01*
X120952380Y-58229523D02*
X120952380Y-57658095D01*
X120952380Y-57943809D02*
X119952380Y-57943809D01*
X120095238Y-57848571D01*
X120190476Y-57753333D01*
X120238095Y-57658095D01*
X120047619Y-58610476D02*
X120000000Y-58658095D01*
X119952380Y-58753333D01*
X119952380Y-58991428D01*
X120000000Y-59086666D01*
X120047619Y-59134285D01*
X120142857Y-59181904D01*
X120238095Y-59181904D01*
X120380952Y-59134285D01*
X120952380Y-58562857D01*
X120952380Y-59181904D01*
X120952380Y-68389523D02*
X120952380Y-67818095D01*
X120952380Y-68103809D02*
X119952380Y-68103809D01*
X120095238Y-68008571D01*
X120190476Y-67913333D01*
X120238095Y-67818095D01*
X119952380Y-69008571D02*
X119952380Y-69103809D01*
X120000000Y-69199047D01*
X120047619Y-69246666D01*
X120142857Y-69294285D01*
X120333333Y-69341904D01*
X120571428Y-69341904D01*
X120761904Y-69294285D01*
X120857142Y-69246666D01*
X120904761Y-69199047D01*
X120952380Y-69103809D01*
X120952380Y-69008571D01*
X120904761Y-68913333D01*
X120857142Y-68865714D01*
X120761904Y-68818095D01*
X120571428Y-68770476D01*
X120333333Y-68770476D01*
X120142857Y-68818095D01*
X120047619Y-68865714D01*
X120000000Y-68913333D01*
X119952380Y-69008571D01*
X69142857Y-83510476D02*
X69095238Y-83558095D01*
X69047619Y-83700952D01*
X69047619Y-83796190D01*
X69095238Y-83939047D01*
X69190476Y-84034285D01*
X69285714Y-84081904D01*
X69476190Y-84129523D01*
X69619047Y-84129523D01*
X69809523Y-84081904D01*
X69904761Y-84034285D01*
X70000000Y-83939047D01*
X70047619Y-83796190D01*
X70047619Y-83700952D01*
X70000000Y-83558095D01*
X69952380Y-83510476D01*
X88518761Y-95904761D02*
X88375904Y-95952380D01*
X88137809Y-95952380D01*
X88042571Y-95904761D01*
X87994952Y-95857142D01*
X87947333Y-95761904D01*
X87947333Y-95666666D01*
X87994952Y-95571428D01*
X88042571Y-95523809D01*
X88137809Y-95476190D01*
X88328285Y-95428571D01*
X88423523Y-95380952D01*
X88471142Y-95333333D01*
X88518761Y-95238095D01*
X88518761Y-95142857D01*
X88471142Y-95047619D01*
X88423523Y-95000000D01*
X88328285Y-94952380D01*
X88090190Y-94952380D01*
X87947333Y-95000000D01*
X87518761Y-95952380D02*
X87518761Y-94952380D01*
X87137809Y-94952380D01*
X87042571Y-95000000D01*
X86994952Y-95047619D01*
X86947333Y-95142857D01*
X86947333Y-95285714D01*
X86994952Y-95380952D01*
X87042571Y-95428571D01*
X87137809Y-95476190D01*
X87518761Y-95476190D01*
X86518761Y-95952380D02*
X86518761Y-94952380D01*
X85947333Y-95952380D02*
X86375904Y-95380952D01*
X85947333Y-94952380D02*
X86518761Y-95523809D01*
X85518761Y-95571428D02*
X84756857Y-95571428D01*
X69952380Y-53625714D02*
X70000000Y-53578095D01*
X70047619Y-53482857D01*
X70047619Y-53244761D01*
X70000000Y-53149523D01*
X69952380Y-53101904D01*
X69857142Y-53054285D01*
X69761904Y-53054285D01*
X69619047Y-53101904D01*
X69047619Y-53673333D01*
X69047619Y-53054285D01*
X120952380Y-63309523D02*
X120952380Y-62738095D01*
X120952380Y-63023809D02*
X119952380Y-63023809D01*
X120095238Y-62928571D01*
X120190476Y-62833333D01*
X120238095Y-62738095D01*
X120952380Y-64261904D02*
X120952380Y-63690476D01*
X120952380Y-63976190D02*
X119952380Y-63976190D01*
X120095238Y-63880952D01*
X120190476Y-63785714D01*
X120238095Y-63690476D01*
X83438761Y-95904761D02*
X83295904Y-95952380D01*
X83057809Y-95952380D01*
X82962571Y-95904761D01*
X82914952Y-95857142D01*
X82867333Y-95761904D01*
X82867333Y-95666666D01*
X82914952Y-95571428D01*
X82962571Y-95523809D01*
X83057809Y-95476190D01*
X83248285Y-95428571D01*
X83343523Y-95380952D01*
X83391142Y-95333333D01*
X83438761Y-95238095D01*
X83438761Y-95142857D01*
X83391142Y-95047619D01*
X83343523Y-95000000D01*
X83248285Y-94952380D01*
X83010190Y-94952380D01*
X82867333Y-95000000D01*
X82438761Y-95952380D02*
X82438761Y-94952380D01*
X82057809Y-94952380D01*
X81962571Y-95000000D01*
X81914952Y-95047619D01*
X81867333Y-95142857D01*
X81867333Y-95285714D01*
X81914952Y-95380952D01*
X81962571Y-95428571D01*
X82057809Y-95476190D01*
X82438761Y-95476190D01*
X81438761Y-95952380D02*
X81438761Y-94952380D01*
X80867333Y-95952380D02*
X81295904Y-95380952D01*
X80867333Y-94952380D02*
X81438761Y-95523809D01*
X80438761Y-95571428D02*
X79676857Y-95571428D01*
X80057809Y-95952380D02*
X80057809Y-95190476D01*
X91884666Y-44047619D02*
X91884666Y-45047619D01*
X92265619Y-45047619D01*
X92360857Y-45000000D01*
X92408476Y-44952380D01*
X92456095Y-44857142D01*
X92456095Y-44714285D01*
X92408476Y-44619047D01*
X92360857Y-44571428D01*
X92265619Y-44523809D01*
X91884666Y-44523809D01*
X92789428Y-45047619D02*
X93027523Y-44047619D01*
X93218000Y-44761904D01*
X93408476Y-44047619D01*
X93646571Y-45047619D01*
X94598952Y-44047619D02*
X94265619Y-44523809D01*
X94027523Y-44047619D02*
X94027523Y-45047619D01*
X94408476Y-45047619D01*
X94503714Y-45000000D01*
X94551333Y-44952380D01*
X94598952Y-44857142D01*
X94598952Y-44714285D01*
X94551333Y-44619047D01*
X94503714Y-44571428D01*
X94408476Y-44523809D01*
X94027523Y-44523809D01*
X120952380Y-48069523D02*
X120952380Y-47498095D01*
X120952380Y-47783809D02*
X119952380Y-47783809D01*
X120095238Y-47688571D01*
X120190476Y-47593333D01*
X120238095Y-47498095D01*
X120285714Y-48926666D02*
X120952380Y-48926666D01*
X119904761Y-48688571D02*
X120619047Y-48450476D01*
X120619047Y-49069523D01*
X70047619Y-79073333D02*
X70047619Y-78406666D01*
X69047619Y-78835238D01*
X120380952Y-78644761D02*
X120333333Y-78549523D01*
X120285714Y-78501904D01*
X120190476Y-78454285D01*
X120142857Y-78454285D01*
X120047619Y-78501904D01*
X120000000Y-78549523D01*
X119952380Y-78644761D01*
X119952380Y-78835238D01*
X120000000Y-78930476D01*
X120047619Y-78978095D01*
X120142857Y-79025714D01*
X120190476Y-79025714D01*
X120285714Y-78978095D01*
X120333333Y-78930476D01*
X120380952Y-78835238D01*
X120380952Y-78644761D01*
X120428571Y-78549523D01*
X120476190Y-78501904D01*
X120571428Y-78454285D01*
X120761904Y-78454285D01*
X120857142Y-78501904D01*
X120904761Y-78549523D01*
X120952380Y-78644761D01*
X120952380Y-78835238D01*
X120904761Y-78930476D01*
X120857142Y-78978095D01*
X120761904Y-79025714D01*
X120571428Y-79025714D01*
X120476190Y-78978095D01*
X120428571Y-78930476D01*
X120380952Y-78835238D01*
X70047619Y-68341904D02*
X70047619Y-68818095D01*
X69571428Y-68865714D01*
X69619047Y-68818095D01*
X69666666Y-68722857D01*
X69666666Y-68484761D01*
X69619047Y-68389523D01*
X69571428Y-68341904D01*
X69476190Y-68294285D01*
X69238095Y-68294285D01*
X69142857Y-68341904D01*
X69095238Y-68389523D01*
X69047619Y-68484761D01*
X69047619Y-68722857D01*
X69095238Y-68818095D01*
X69142857Y-68865714D01*
D11*
G04 #@! TO.C,JP1*
X105483333Y-54716666D02*
X105483333Y-55216666D01*
X105516666Y-55316666D01*
X105583333Y-55383333D01*
X105683333Y-55416666D01*
X105750000Y-55416666D01*
X105150000Y-55416666D02*
X105150000Y-54716666D01*
X104883333Y-54716666D01*
X104816666Y-54750000D01*
X104783333Y-54783333D01*
X104750000Y-54850000D01*
X104750000Y-54950000D01*
X104783333Y-55016666D01*
X104816666Y-55050000D01*
X104883333Y-55083333D01*
X105150000Y-55083333D01*
X104083333Y-55416666D02*
X104483333Y-55416666D01*
X104283333Y-55416666D02*
X104283333Y-54716666D01*
X104350000Y-54816666D01*
X104416666Y-54883333D01*
X104483333Y-54916666D01*
G04 #@! TO.C,JP2*
X103707333Y-90294666D02*
X103707333Y-90794666D01*
X103740666Y-90894666D01*
X103807333Y-90961333D01*
X103907333Y-90994666D01*
X103974000Y-90994666D01*
X103374000Y-90994666D02*
X103374000Y-90294666D01*
X103107333Y-90294666D01*
X103040666Y-90328000D01*
X103007333Y-90361333D01*
X102974000Y-90428000D01*
X102974000Y-90528000D01*
X103007333Y-90594666D01*
X103040666Y-90628000D01*
X103107333Y-90661333D01*
X103374000Y-90661333D01*
X102707333Y-90361333D02*
X102674000Y-90328000D01*
X102607333Y-90294666D01*
X102440666Y-90294666D01*
X102374000Y-90328000D01*
X102340666Y-90361333D01*
X102307333Y-90428000D01*
X102307333Y-90494666D01*
X102340666Y-90594666D01*
X102740666Y-90994666D01*
X102307333Y-90994666D01*
G04 #@! TO.C,JP3*
X104977333Y-87754666D02*
X104977333Y-88254666D01*
X105010666Y-88354666D01*
X105077333Y-88421333D01*
X105177333Y-88454666D01*
X105244000Y-88454666D01*
X104644000Y-88454666D02*
X104644000Y-87754666D01*
X104377333Y-87754666D01*
X104310666Y-87788000D01*
X104277333Y-87821333D01*
X104244000Y-87888000D01*
X104244000Y-87988000D01*
X104277333Y-88054666D01*
X104310666Y-88088000D01*
X104377333Y-88121333D01*
X104644000Y-88121333D01*
X104010666Y-87754666D02*
X103577333Y-87754666D01*
X103810666Y-88021333D01*
X103710666Y-88021333D01*
X103644000Y-88054666D01*
X103610666Y-88088000D01*
X103577333Y-88154666D01*
X103577333Y-88321333D01*
X103610666Y-88388000D01*
X103644000Y-88421333D01*
X103710666Y-88454666D01*
X103910666Y-88454666D01*
X103977333Y-88421333D01*
X104010666Y-88388000D01*
G04 #@! TO.C,TP1*
X91683333Y-53464666D02*
X91283333Y-53464666D01*
X91483333Y-54164666D02*
X91483333Y-53464666D01*
X91050000Y-54164666D02*
X91050000Y-53464666D01*
X90783333Y-53464666D01*
X90716666Y-53498000D01*
X90683333Y-53531333D01*
X90650000Y-53598000D01*
X90650000Y-53698000D01*
X90683333Y-53764666D01*
X90716666Y-53798000D01*
X90783333Y-53831333D01*
X91050000Y-53831333D01*
X89983333Y-54164666D02*
X90383333Y-54164666D01*
X90183333Y-54164666D02*
X90183333Y-53464666D01*
X90250000Y-53564666D01*
X90316666Y-53631333D01*
X90383333Y-53664666D01*
G04 #@! TO.C,JP4*
X88833333Y-63016666D02*
X88833333Y-63516666D01*
X88866666Y-63616666D01*
X88933333Y-63683333D01*
X89033333Y-63716666D01*
X89100000Y-63716666D01*
X88500000Y-63716666D02*
X88500000Y-63016666D01*
X88233333Y-63016666D01*
X88166666Y-63050000D01*
X88133333Y-63083333D01*
X88100000Y-63150000D01*
X88100000Y-63250000D01*
X88133333Y-63316666D01*
X88166666Y-63350000D01*
X88233333Y-63383333D01*
X88500000Y-63383333D01*
X87500000Y-63250000D02*
X87500000Y-63716666D01*
X87666666Y-62983333D02*
X87833333Y-63483333D01*
X87400000Y-63483333D01*
G04 #@! TO.C,TP2*
X96783333Y-53464666D02*
X96383333Y-53464666D01*
X96583333Y-54164666D02*
X96583333Y-53464666D01*
X96150000Y-54164666D02*
X96150000Y-53464666D01*
X95883333Y-53464666D01*
X95816666Y-53498000D01*
X95783333Y-53531333D01*
X95750000Y-53598000D01*
X95750000Y-53698000D01*
X95783333Y-53764666D01*
X95816666Y-53798000D01*
X95883333Y-53831333D01*
X96150000Y-53831333D01*
X95483333Y-53531333D02*
X95450000Y-53498000D01*
X95383333Y-53464666D01*
X95216666Y-53464666D01*
X95150000Y-53498000D01*
X95116666Y-53531333D01*
X95083333Y-53598000D01*
X95083333Y-53664666D01*
X95116666Y-53764666D01*
X95516666Y-54164666D01*
X95083333Y-54164666D01*
G04 #@! TO.C,TP3*
X79783333Y-82816666D02*
X79383333Y-82816666D01*
X79583333Y-83516666D02*
X79583333Y-82816666D01*
X79150000Y-83516666D02*
X79150000Y-82816666D01*
X78883333Y-82816666D01*
X78816666Y-82850000D01*
X78783333Y-82883333D01*
X78750000Y-82950000D01*
X78750000Y-83050000D01*
X78783333Y-83116666D01*
X78816666Y-83150000D01*
X78883333Y-83183333D01*
X79150000Y-83183333D01*
X78516666Y-82816666D02*
X78083333Y-82816666D01*
X78316666Y-83083333D01*
X78216666Y-83083333D01*
X78150000Y-83116666D01*
X78116666Y-83150000D01*
X78083333Y-83216666D01*
X78083333Y-83383333D01*
X78116666Y-83450000D01*
X78150000Y-83483333D01*
X78216666Y-83516666D01*
X78416666Y-83516666D01*
X78483333Y-83483333D01*
X78516666Y-83450000D01*
G04 #@! TO.C,TP4*
X79783333Y-80016666D02*
X79383333Y-80016666D01*
X79583333Y-80716666D02*
X79583333Y-80016666D01*
X79150000Y-80716666D02*
X79150000Y-80016666D01*
X78883333Y-80016666D01*
X78816666Y-80050000D01*
X78783333Y-80083333D01*
X78750000Y-80150000D01*
X78750000Y-80250000D01*
X78783333Y-80316666D01*
X78816666Y-80350000D01*
X78883333Y-80383333D01*
X79150000Y-80383333D01*
X78150000Y-80250000D02*
X78150000Y-80716666D01*
X78316666Y-79983333D02*
X78483333Y-80483333D01*
X78050000Y-80483333D01*
G04 #@! TO.C,TP5*
X79883333Y-77416666D02*
X79483333Y-77416666D01*
X79683333Y-78116666D02*
X79683333Y-77416666D01*
X79250000Y-78116666D02*
X79250000Y-77416666D01*
X78983333Y-77416666D01*
X78916666Y-77450000D01*
X78883333Y-77483333D01*
X78850000Y-77550000D01*
X78850000Y-77650000D01*
X78883333Y-77716666D01*
X78916666Y-77750000D01*
X78983333Y-77783333D01*
X79250000Y-77783333D01*
X78216666Y-77416666D02*
X78550000Y-77416666D01*
X78583333Y-77750000D01*
X78550000Y-77716666D01*
X78483333Y-77683333D01*
X78316666Y-77683333D01*
X78250000Y-77716666D01*
X78216666Y-77750000D01*
X78183333Y-77816666D01*
X78183333Y-77983333D01*
X78216666Y-78050000D01*
X78250000Y-78083333D01*
X78316666Y-78116666D01*
X78483333Y-78116666D01*
X78550000Y-78083333D01*
X78583333Y-78050000D01*
G04 #@! TO.C,TP6*
X84883333Y-75316666D02*
X84483333Y-75316666D01*
X84683333Y-76016666D02*
X84683333Y-75316666D01*
X84250000Y-76016666D02*
X84250000Y-75316666D01*
X83983333Y-75316666D01*
X83916666Y-75350000D01*
X83883333Y-75383333D01*
X83850000Y-75450000D01*
X83850000Y-75550000D01*
X83883333Y-75616666D01*
X83916666Y-75650000D01*
X83983333Y-75683333D01*
X84250000Y-75683333D01*
X83250000Y-75316666D02*
X83383333Y-75316666D01*
X83450000Y-75350000D01*
X83483333Y-75383333D01*
X83550000Y-75483333D01*
X83583333Y-75616666D01*
X83583333Y-75883333D01*
X83550000Y-75950000D01*
X83516666Y-75983333D01*
X83450000Y-76016666D01*
X83316666Y-76016666D01*
X83250000Y-75983333D01*
X83216666Y-75950000D01*
X83183333Y-75883333D01*
X83183333Y-75716666D01*
X83216666Y-75650000D01*
X83250000Y-75616666D01*
X83316666Y-75583333D01*
X83450000Y-75583333D01*
X83516666Y-75616666D01*
X83550000Y-75650000D01*
X83583333Y-75716666D01*
G04 #@! TO.C,TP7*
X88783333Y-83864666D02*
X88383333Y-83864666D01*
X88583333Y-84564666D02*
X88583333Y-83864666D01*
X88150000Y-84564666D02*
X88150000Y-83864666D01*
X87883333Y-83864666D01*
X87816666Y-83898000D01*
X87783333Y-83931333D01*
X87750000Y-83998000D01*
X87750000Y-84098000D01*
X87783333Y-84164666D01*
X87816666Y-84198000D01*
X87883333Y-84231333D01*
X88150000Y-84231333D01*
X87516666Y-83864666D02*
X87050000Y-83864666D01*
X87350000Y-84564666D01*
G04 #@! TO.C,TP8*
X86583333Y-86564666D02*
X86183333Y-86564666D01*
X86383333Y-87264666D02*
X86383333Y-86564666D01*
X85950000Y-87264666D02*
X85950000Y-86564666D01*
X85683333Y-86564666D01*
X85616666Y-86598000D01*
X85583333Y-86631333D01*
X85550000Y-86698000D01*
X85550000Y-86798000D01*
X85583333Y-86864666D01*
X85616666Y-86898000D01*
X85683333Y-86931333D01*
X85950000Y-86931333D01*
X85150000Y-86864666D02*
X85216666Y-86831333D01*
X85250000Y-86798000D01*
X85283333Y-86731333D01*
X85283333Y-86698000D01*
X85250000Y-86631333D01*
X85216666Y-86598000D01*
X85150000Y-86564666D01*
X85016666Y-86564666D01*
X84950000Y-86598000D01*
X84916666Y-86631333D01*
X84883333Y-86698000D01*
X84883333Y-86731333D01*
X84916666Y-86798000D01*
X84950000Y-86831333D01*
X85016666Y-86864666D01*
X85150000Y-86864666D01*
X85216666Y-86898000D01*
X85250000Y-86931333D01*
X85283333Y-86998000D01*
X85283333Y-87131333D01*
X85250000Y-87198000D01*
X85216666Y-87231333D01*
X85150000Y-87264666D01*
X85016666Y-87264666D01*
X84950000Y-87231333D01*
X84916666Y-87198000D01*
X84883333Y-87131333D01*
X84883333Y-86998000D01*
X84916666Y-86931333D01*
X84950000Y-86898000D01*
X85016666Y-86864666D01*
G04 #@! TO.C,TP23*
X85416666Y-87916666D02*
X85016666Y-87916666D01*
X85216666Y-88616666D02*
X85216666Y-87916666D01*
X84783333Y-88616666D02*
X84783333Y-87916666D01*
X84516666Y-87916666D01*
X84450000Y-87950000D01*
X84416666Y-87983333D01*
X84383333Y-88050000D01*
X84383333Y-88150000D01*
X84416666Y-88216666D01*
X84450000Y-88250000D01*
X84516666Y-88283333D01*
X84783333Y-88283333D01*
X84116666Y-87983333D02*
X84083333Y-87950000D01*
X84016666Y-87916666D01*
X83850000Y-87916666D01*
X83783333Y-87950000D01*
X83750000Y-87983333D01*
X83716666Y-88050000D01*
X83716666Y-88116666D01*
X83750000Y-88216666D01*
X84150000Y-88616666D01*
X83716666Y-88616666D01*
X83483333Y-87916666D02*
X83050000Y-87916666D01*
X83283333Y-88183333D01*
X83183333Y-88183333D01*
X83116666Y-88216666D01*
X83083333Y-88250000D01*
X83050000Y-88316666D01*
X83050000Y-88483333D01*
X83083333Y-88550000D01*
X83116666Y-88583333D01*
X83183333Y-88616666D01*
X83383333Y-88616666D01*
X83450000Y-88583333D01*
X83483333Y-88550000D01*
G04 #@! TO.C,TP24*
X90316666Y-87916666D02*
X89916666Y-87916666D01*
X90116666Y-88616666D02*
X90116666Y-87916666D01*
X89683333Y-88616666D02*
X89683333Y-87916666D01*
X89416666Y-87916666D01*
X89350000Y-87950000D01*
X89316666Y-87983333D01*
X89283333Y-88050000D01*
X89283333Y-88150000D01*
X89316666Y-88216666D01*
X89350000Y-88250000D01*
X89416666Y-88283333D01*
X89683333Y-88283333D01*
X89016666Y-87983333D02*
X88983333Y-87950000D01*
X88916666Y-87916666D01*
X88750000Y-87916666D01*
X88683333Y-87950000D01*
X88650000Y-87983333D01*
X88616666Y-88050000D01*
X88616666Y-88116666D01*
X88650000Y-88216666D01*
X89050000Y-88616666D01*
X88616666Y-88616666D01*
X88016666Y-88150000D02*
X88016666Y-88616666D01*
X88183333Y-87883333D02*
X88350000Y-88383333D01*
X87916666Y-88383333D01*
D12*
G04 #@! TO.C,H1*
X86409903Y-49000000D02*
G75*
G03*
X86409903Y-49000000I-3224903J0D01*
G01*
G36*
X81585000Y-49100000D02*
G01*
X81685000Y-49500000D01*
X81885000Y-49900000D01*
X82285000Y-50300000D01*
X82685000Y-50500000D01*
X83085000Y-50600000D01*
X83185000Y-50600000D01*
X83185000Y-52224903D01*
X82685000Y-52200000D01*
X81685000Y-51900000D01*
X80885000Y-51300000D01*
X80385000Y-50600000D01*
X80085000Y-49900000D01*
X79985000Y-49500000D01*
X79985000Y-49000000D01*
X81585000Y-49000000D01*
X81585000Y-49100000D01*
G37*
D13*
X81585000Y-49100000D02*
X81685000Y-49500000D01*
X81885000Y-49900000D01*
X82285000Y-50300000D01*
X82685000Y-50500000D01*
X83085000Y-50600000D01*
X83185000Y-50600000D01*
X83185000Y-52224903D01*
X82685000Y-52200000D01*
X81685000Y-51900000D01*
X80885000Y-51300000D01*
X80385000Y-50600000D01*
X80085000Y-49900000D01*
X79985000Y-49500000D01*
X79985000Y-49000000D01*
X81585000Y-49000000D01*
X81585000Y-49100000D01*
G36*
X83685000Y-45800000D02*
G01*
X84685000Y-46100000D01*
X85485000Y-46700000D01*
X85985000Y-47400000D01*
X86285000Y-48100000D01*
X86385000Y-48500000D01*
X86385000Y-49000000D01*
X84785000Y-49000000D01*
X84785000Y-48900000D01*
X84685000Y-48500000D01*
X84485000Y-48100000D01*
X84085000Y-47700000D01*
X83685000Y-47500000D01*
X83285000Y-47400000D01*
X83185000Y-47400000D01*
X83185000Y-45775097D01*
X83685000Y-45800000D01*
G37*
X83685000Y-45800000D02*
X84685000Y-46100000D01*
X85485000Y-46700000D01*
X85985000Y-47400000D01*
X86285000Y-48100000D01*
X86385000Y-48500000D01*
X86385000Y-49000000D01*
X84785000Y-49000000D01*
X84785000Y-48900000D01*
X84685000Y-48500000D01*
X84485000Y-48100000D01*
X84085000Y-47700000D01*
X83685000Y-47500000D01*
X83285000Y-47400000D01*
X83185000Y-47400000D01*
X83185000Y-45775097D01*
X83685000Y-45800000D01*
D12*
G04 #@! TO.C,H2*
X119224903Y-91000000D02*
G75*
G03*
X119224903Y-91000000I-3224903J0D01*
G01*
G36*
X116500000Y-87800000D02*
G01*
X117500000Y-88100000D01*
X118300000Y-88700000D01*
X118800000Y-89400000D01*
X119100000Y-90100000D01*
X119200000Y-90500000D01*
X119200000Y-91000000D01*
X117600000Y-91000000D01*
X117600000Y-90900000D01*
X117500000Y-90500000D01*
X117300000Y-90100000D01*
X116900000Y-89700000D01*
X116500000Y-89500000D01*
X116100000Y-89400000D01*
X116000000Y-89400000D01*
X116000000Y-87775097D01*
X116500000Y-87800000D01*
G37*
D13*
X116500000Y-87800000D02*
X117500000Y-88100000D01*
X118300000Y-88700000D01*
X118800000Y-89400000D01*
X119100000Y-90100000D01*
X119200000Y-90500000D01*
X119200000Y-91000000D01*
X117600000Y-91000000D01*
X117600000Y-90900000D01*
X117500000Y-90500000D01*
X117300000Y-90100000D01*
X116900000Y-89700000D01*
X116500000Y-89500000D01*
X116100000Y-89400000D01*
X116000000Y-89400000D01*
X116000000Y-87775097D01*
X116500000Y-87800000D01*
G36*
X114400000Y-91100000D02*
G01*
X114500000Y-91500000D01*
X114700000Y-91900000D01*
X115100000Y-92300000D01*
X115500000Y-92500000D01*
X115900000Y-92600000D01*
X116000000Y-92600000D01*
X116000000Y-94224903D01*
X115500000Y-94200000D01*
X114500000Y-93900000D01*
X113700000Y-93300000D01*
X113200000Y-92600000D01*
X112900000Y-91900000D01*
X112800000Y-91500000D01*
X112800000Y-91000000D01*
X114400000Y-91000000D01*
X114400000Y-91100000D01*
G37*
X114400000Y-91100000D02*
X114500000Y-91500000D01*
X114700000Y-91900000D01*
X115100000Y-92300000D01*
X115500000Y-92500000D01*
X115900000Y-92600000D01*
X116000000Y-92600000D01*
X116000000Y-94224903D01*
X115500000Y-94200000D01*
X114500000Y-93900000D01*
X113700000Y-93300000D01*
X113200000Y-92600000D01*
X112900000Y-91900000D01*
X112800000Y-91500000D01*
X112800000Y-91000000D01*
X114400000Y-91000000D01*
X114400000Y-91100000D01*
D12*
G04 #@! TO.C,H4*
X77224903Y-91000000D02*
G75*
G03*
X77224903Y-91000000I-3224903J0D01*
G01*
G36*
X72400000Y-91100000D02*
G01*
X72500000Y-91500000D01*
X72700000Y-91900000D01*
X73100000Y-92300000D01*
X73500000Y-92500000D01*
X73900000Y-92600000D01*
X74000000Y-92600000D01*
X74000000Y-94224903D01*
X73500000Y-94200000D01*
X72500000Y-93900000D01*
X71700000Y-93300000D01*
X71200000Y-92600000D01*
X70900000Y-91900000D01*
X70800000Y-91500000D01*
X70800000Y-91000000D01*
X72400000Y-91000000D01*
X72400000Y-91100000D01*
G37*
D13*
X72400000Y-91100000D02*
X72500000Y-91500000D01*
X72700000Y-91900000D01*
X73100000Y-92300000D01*
X73500000Y-92500000D01*
X73900000Y-92600000D01*
X74000000Y-92600000D01*
X74000000Y-94224903D01*
X73500000Y-94200000D01*
X72500000Y-93900000D01*
X71700000Y-93300000D01*
X71200000Y-92600000D01*
X70900000Y-91900000D01*
X70800000Y-91500000D01*
X70800000Y-91000000D01*
X72400000Y-91000000D01*
X72400000Y-91100000D01*
G36*
X74500000Y-87800000D02*
G01*
X75500000Y-88100000D01*
X76300000Y-88700000D01*
X76800000Y-89400000D01*
X77100000Y-90100000D01*
X77200000Y-90500000D01*
X77200000Y-91000000D01*
X75600000Y-91000000D01*
X75600000Y-90900000D01*
X75500000Y-90500000D01*
X75300000Y-90100000D01*
X74900000Y-89700000D01*
X74500000Y-89500000D01*
X74100000Y-89400000D01*
X74000000Y-89400000D01*
X74000000Y-87775097D01*
X74500000Y-87800000D01*
G37*
X74500000Y-87800000D02*
X75500000Y-88100000D01*
X76300000Y-88700000D01*
X76800000Y-89400000D01*
X77100000Y-90100000D01*
X77200000Y-90500000D01*
X77200000Y-91000000D01*
X75600000Y-91000000D01*
X75600000Y-90900000D01*
X75500000Y-90500000D01*
X75300000Y-90100000D01*
X74900000Y-89700000D01*
X74500000Y-89500000D01*
X74100000Y-89400000D01*
X74000000Y-89400000D01*
X74000000Y-87775097D01*
X74500000Y-87800000D01*
D12*
G04 #@! TO.C,JP1*
X106950000Y-53600000D02*
X106950000Y-53000000D01*
X103700000Y-52100000D02*
X103400000Y-51800000D01*
X106300000Y-52300000D02*
X103500000Y-52300000D01*
X103500000Y-54300000D02*
X106300000Y-54300000D01*
X102850000Y-53000000D02*
X102850000Y-53600000D01*
X103400000Y-51800000D02*
X104000000Y-51800000D01*
X103700000Y-52100000D02*
X104000000Y-51800000D01*
X106950000Y-53000000D02*
G75*
G03*
X106250000Y-52300000I-700000J0D01*
G01*
X106250000Y-54300000D02*
G75*
G03*
X106950000Y-53600000I0J700000D01*
G01*
X102850000Y-53600000D02*
G75*
G03*
X103550000Y-54300000I699999J-1D01*
G01*
X103550000Y-52300000D02*
G75*
G03*
X102850000Y-53000000I-1J-699999D01*
G01*
G04 #@! TO.C,JP2*
X99645000Y-91805000D02*
X101045000Y-91805000D01*
X98945000Y-90505000D02*
X98945000Y-91105000D01*
X101045000Y-89805000D02*
X99645000Y-89805000D01*
X101745000Y-91105000D02*
X101745000Y-90505000D01*
X101045000Y-91805000D02*
G75*
G03*
X101745000Y-91105000I1J699999D01*
G01*
X98945000Y-91105000D02*
G75*
G03*
X99645000Y-91805000I700000J0D01*
G01*
X99645000Y-89805000D02*
G75*
G03*
X98945000Y-90505000I0J-700000D01*
G01*
X101745000Y-90505000D02*
G75*
G03*
X101045000Y-89805000I-699999J1D01*
G01*
G04 #@! TO.C,JP3*
X102985000Y-88565000D02*
X102985000Y-87965000D01*
X100185000Y-87965000D02*
X100185000Y-88565000D01*
X100885000Y-89265000D02*
X102285000Y-89265000D01*
X102285000Y-87265000D02*
X100885000Y-87265000D01*
X102985000Y-87965000D02*
G75*
G03*
X102285000Y-87265000I-700000J0D01*
G01*
X102285000Y-89265000D02*
G75*
G03*
X102985000Y-88565000I0J700000D01*
G01*
X100185000Y-88565000D02*
G75*
G03*
X100885000Y-89265000I699999J-1D01*
G01*
X100885000Y-87265000D02*
G75*
G03*
X100185000Y-87965000I-1J-699999D01*
G01*
G04 #@! TO.C,TP1*
X91500000Y-52400000D02*
G75*
G03*
X91500000Y-52400000I-700000J0D01*
G01*
G04 #@! TO.C,JP4*
X88950000Y-60600000D02*
X87550000Y-60600000D01*
X86850000Y-61300000D02*
X86850000Y-61900000D01*
X89650000Y-61900000D02*
X89650000Y-61300000D01*
X87550000Y-62600000D02*
X88950000Y-62600000D01*
X88950000Y-62600000D02*
G75*
G03*
X89650000Y-61900000I0J700000D01*
G01*
X86850000Y-61900000D02*
G75*
G03*
X87550000Y-62600000I699999J-1D01*
G01*
X89650000Y-61300000D02*
G75*
G03*
X88950000Y-60600000I-700000J0D01*
G01*
X87550000Y-60600000D02*
G75*
G03*
X86850000Y-61300000I-1J-699999D01*
G01*
G04 #@! TO.C,TP2*
X96600000Y-52400000D02*
G75*
G03*
X96600000Y-52400000I-700000J0D01*
G01*
G04 #@! TO.C,TP3*
X81500000Y-83200000D02*
G75*
G03*
X81500000Y-83200000I-700000J0D01*
G01*
G04 #@! TO.C,TP4*
X81500000Y-80600000D02*
G75*
G03*
X81500000Y-80600000I-700000J0D01*
G01*
G04 #@! TO.C,TP5*
X81500000Y-78100000D02*
G75*
G03*
X81500000Y-78100000I-700000J0D01*
G01*
G04 #@! TO.C,TP6*
X86400000Y-75700000D02*
G75*
G03*
X86400000Y-75700000I-700000J0D01*
G01*
G04 #@! TO.C,TP7*
X88600000Y-82800000D02*
G75*
G03*
X88600000Y-82800000I-700000J0D01*
G01*
G04 #@! TO.C,TP8*
X86400000Y-85500000D02*
G75*
G03*
X86400000Y-85500000I-700000J0D01*
G01*
G04 #@! TO.C,TP9*
X72300000Y-49900000D02*
G75*
G03*
X72300000Y-49900000I-700000J0D01*
G01*
G04 #@! TO.C,TP10*
X72300000Y-55000000D02*
G75*
G03*
X72300000Y-55000000I-700000J0D01*
G01*
G04 #@! TO.C,TP11*
X72300000Y-60100000D02*
G75*
G03*
X72300000Y-60100000I-700000J0D01*
G01*
G04 #@! TO.C,TP12*
X72300000Y-65200000D02*
G75*
G03*
X72300000Y-65200000I-700000J0D01*
G01*
G04 #@! TO.C,TP13*
X72300000Y-70300000D02*
G75*
G03*
X72300000Y-70300000I-700000J0D01*
G01*
G04 #@! TO.C,TP14*
X72300000Y-75300000D02*
G75*
G03*
X72300000Y-75300000I-700000J0D01*
G01*
G04 #@! TO.C,TP15*
X72300000Y-80400000D02*
G75*
G03*
X72300000Y-80400000I-700000J0D01*
G01*
G04 #@! TO.C,TP16*
X119000000Y-77000000D02*
G75*
G03*
X119000000Y-77000000I-700000J0D01*
G01*
G04 #@! TO.C,TP17*
X119000000Y-72000000D02*
G75*
G03*
X119000000Y-72000000I-700000J0D01*
G01*
G04 #@! TO.C,TP18*
X119000000Y-66800000D02*
G75*
G03*
X119000000Y-66800000I-700000J0D01*
G01*
G04 #@! TO.C,TP19*
X119000000Y-61800000D02*
G75*
G03*
X119000000Y-61800000I-700000J0D01*
G01*
G04 #@! TO.C,TP20*
X119000000Y-56600000D02*
G75*
G03*
X119000000Y-56600000I-700000J0D01*
G01*
G04 #@! TO.C,TP21*
X119000000Y-51700000D02*
G75*
G03*
X119000000Y-51700000I-700000J0D01*
G01*
G04 #@! TO.C,TP22*
X119000000Y-46500000D02*
G75*
G03*
X119000000Y-46500000I-700000J0D01*
G01*
G04 #@! TO.C,TP23*
X82600000Y-88300000D02*
G75*
G03*
X82600000Y-88300000I-700000J0D01*
G01*
G04 #@! TO.C,TP24*
X87600000Y-88300000D02*
G75*
G03*
X87600000Y-88300000I-700000J0D01*
G01*
G04 #@! TD*
M02*
