G04 #@! TF.GenerationSoftware,KiCad,Pcbnew,6.0.9-8da3e8f707~116~ubuntu20.04.1*
G04 #@! TF.CreationDate,2023-04-24T17:25:30+00:00*
G04 #@! TF.ProjectId,LEC008011,4c454330-3038-4303-9131-2e6b69636164,rev?*
G04 #@! TF.SameCoordinates,Original*
G04 #@! TF.FileFunction,Soldermask,Bot*
G04 #@! TF.FilePolarity,Negative*
%FSLAX46Y46*%
G04 Gerber Fmt 4.6, Leading zero omitted, Abs format (unit mm)*
G04 Created by KiCad (PCBNEW 6.0.9-8da3e8f707~116~ubuntu20.04.1) date 2023-04-24 17:25:30*
%MOMM*%
%LPD*%
G01*
G04 APERTURE LIST*
G04 Aperture macros list*
%AMRoundRect*
0 Rectangle with rounded corners*
0 $1 Rounding radius*
0 $2 $3 $4 $5 $6 $7 $8 $9 X,Y pos of 4 corners*
0 Add a 4 corners polygon primitive as box body*
4,1,4,$2,$3,$4,$5,$6,$7,$8,$9,$2,$3,0*
0 Add four circle primitives for the rounded corners*
1,1,$1+$1,$2,$3*
1,1,$1+$1,$4,$5*
1,1,$1+$1,$6,$7*
1,1,$1+$1,$8,$9*
0 Add four rect primitives between the rounded corners*
20,1,$1+$1,$2,$3,$4,$5,0*
20,1,$1+$1,$4,$5,$6,$7,0*
20,1,$1+$1,$6,$7,$8,$9,0*
20,1,$1+$1,$8,$9,$2,$3,0*%
%AMFreePoly0*
4,1,37,0.586062,0.786062,0.601000,0.750000,0.601000,-0.750000,0.586062,-0.786062,0.550000,-0.801000,0.000000,-0.801000,-0.012525,-0.795812,-0.080875,-0.794559,-0.095149,-0.792248,-0.230464,-0.749973,-0.243516,-0.743747,-0.361526,-0.665192,-0.372306,-0.655554,-0.463526,-0.547035,-0.471167,-0.534759,-0.528262,-0.405000,-0.532150,-0.391073,-0.549733,-0.256613,-0.548336,-0.256430,-0.551000,-0.250000,
-0.551000,0.250000,-0.550512,0.251179,-0.550356,0.263956,-0.528545,0.404033,-0.524317,0.417860,-0.464069,0.546185,-0.456130,0.558271,-0.362286,0.664529,-0.351274,0.673901,-0.231379,0.749549,-0.218180,0.755454,-0.081873,0.794411,-0.067546,0.796373,-0.011990,0.796033,0.000000,0.801000,0.550000,0.801000,0.586062,0.786062,0.586062,0.786062,$1*%
%AMFreePoly1*
4,1,37,0.012349,0.795885,0.074216,0.795507,0.088518,0.793370,0.224339,0.752751,0.237465,0.746685,0.356427,0.669578,0.367324,0.660073,0.459862,0.552676,0.467652,0.540494,0.526329,0.411442,0.530388,0.397563,0.550485,0.257230,0.551000,0.250000,0.551000,-0.250000,0.550996,-0.250622,0.550847,-0.262838,0.550144,-0.270677,0.526624,-0.410478,0.522228,-0.424254,0.460416,-0.551833,
0.452330,-0.563821,0.357195,-0.668925,0.346069,-0.678161,0.225259,-0.752338,0.211989,-0.758081,0.075216,-0.795370,0.060866,-0.797157,0.011464,-0.796251,0.000000,-0.801000,-0.550000,-0.801000,-0.586062,-0.786062,-0.601000,-0.750000,-0.601000,0.750000,-0.586062,0.786062,-0.550000,0.801000,0.000000,0.801000,0.012349,0.795885,0.012349,0.795885,$1*%
%AMFreePoly2*
4,1,37,0.536062,0.786062,0.551000,0.750000,0.551000,-0.750000,0.536062,-0.786062,0.500000,-0.801000,0.000000,-0.801000,-0.012525,-0.795812,-0.080875,-0.794559,-0.095149,-0.792248,-0.230464,-0.749973,-0.243516,-0.743747,-0.361526,-0.665192,-0.372306,-0.655554,-0.463526,-0.547035,-0.471167,-0.534759,-0.528262,-0.405000,-0.532150,-0.391073,-0.549733,-0.256613,-0.548336,-0.256430,-0.551000,-0.250000,
-0.551000,0.250000,-0.550512,0.251179,-0.550356,0.263956,-0.528545,0.404033,-0.524317,0.417860,-0.464069,0.546185,-0.456130,0.558271,-0.362286,0.664529,-0.351274,0.673901,-0.231379,0.749549,-0.218180,0.755454,-0.081873,0.794411,-0.067546,0.796373,-0.011990,0.796033,0.000000,0.801000,0.500000,0.801000,0.536062,0.786062,0.536062,0.786062,$1*%
%AMFreePoly3*
4,1,37,0.012349,0.795885,0.074216,0.795507,0.088518,0.793370,0.224339,0.752751,0.237465,0.746685,0.356427,0.669578,0.367324,0.660073,0.459862,0.552676,0.467652,0.540494,0.526329,0.411442,0.530388,0.397563,0.550485,0.257230,0.551000,0.250000,0.551000,-0.250000,0.550996,-0.250622,0.550847,-0.262838,0.550144,-0.270677,0.526624,-0.410478,0.522228,-0.424254,0.460416,-0.551833,
0.452330,-0.563821,0.357195,-0.668925,0.346069,-0.678161,0.225259,-0.752338,0.211989,-0.758081,0.075216,-0.795370,0.060866,-0.797157,0.011464,-0.796251,0.000000,-0.801000,-0.500000,-0.801000,-0.536062,-0.786062,-0.551000,-0.750000,-0.551000,0.750000,-0.536062,0.786062,-0.500000,0.801000,0.000000,0.801000,0.012349,0.795885,0.012349,0.795885,$1*%
G04 Aperture macros list end*
%ADD10C,3.302000*%
%ADD11RoundRect,0.051000X-0.850000X-0.850000X0.850000X-0.850000X0.850000X0.850000X-0.850000X0.850000X0*%
%ADD12O,1.802000X1.802000*%
%ADD13RoundRect,0.051000X1.500000X1.500000X-1.500000X1.500000X-1.500000X-1.500000X1.500000X-1.500000X0*%
%ADD14C,3.102000*%
%ADD15RoundRect,0.051000X-1.500000X1.500000X-1.500000X-1.500000X1.500000X-1.500000X1.500000X1.500000X0*%
%ADD16RoundRect,0.051000X1.500000X-1.500000X1.500000X1.500000X-1.500000X1.500000X-1.500000X-1.500000X0*%
%ADD17RoundRect,0.051000X-1.500000X-1.500000X1.500000X-1.500000X1.500000X1.500000X-1.500000X1.500000X0*%
%ADD18RoundRect,0.051000X-1.499870X-1.499870X1.499870X-1.499870X1.499870X1.499870X-1.499870X1.499870X0*%
%ADD19C,3.101740*%
%ADD20FreePoly0,0.000000*%
%ADD21RoundRect,0.051000X-0.500000X-0.750000X0.500000X-0.750000X0.500000X0.750000X-0.500000X0.750000X0*%
%ADD22FreePoly1,0.000000*%
%ADD23FreePoly2,180.000000*%
%ADD24FreePoly3,180.000000*%
%ADD25FreePoly2,0.000000*%
%ADD26FreePoly3,0.000000*%
%ADD27C,1.102000*%
G04 APERTURE END LIST*
D10*
G04 #@! TO.C,H1*
X83185000Y-49000000D03*
G04 #@! TD*
G04 #@! TO.C,H2*
X116000000Y-91000000D03*
G04 #@! TD*
G04 #@! TO.C,H4*
X74000000Y-91000000D03*
G04 #@! TD*
D11*
G04 #@! TO.C,J3*
X83185000Y-78105000D03*
D12*
X85725000Y-78105000D03*
X83185000Y-80645000D03*
X85725000Y-80645000D03*
X83185000Y-83185000D03*
X85725000Y-83185000D03*
G04 #@! TD*
D13*
G04 #@! TO.C,J1*
X95885000Y-49530000D03*
D14*
X90805000Y-49530000D03*
G04 #@! TD*
D15*
G04 #@! TO.C,J4*
X74295000Y-48260000D03*
D14*
X74295000Y-53340000D03*
G04 #@! TD*
D15*
G04 #@! TO.C,J5*
X74295000Y-58420000D03*
D14*
X74295000Y-63500000D03*
G04 #@! TD*
D15*
G04 #@! TO.C,J6*
X74295000Y-68580000D03*
D14*
X74295000Y-73660000D03*
G04 #@! TD*
D15*
G04 #@! TO.C,J7*
X74295000Y-78740000D03*
D14*
X74295000Y-83820000D03*
G04 #@! TD*
D16*
G04 #@! TO.C,J8*
X115570000Y-53340000D03*
D14*
X115570000Y-48260000D03*
G04 #@! TD*
D16*
G04 #@! TO.C,J9*
X115570000Y-63500000D03*
D14*
X115570000Y-58420000D03*
G04 #@! TD*
D16*
G04 #@! TO.C,J10*
X115570000Y-73660000D03*
D14*
X115570000Y-68580000D03*
G04 #@! TD*
D17*
G04 #@! TO.C,J12*
X81915000Y-90805000D03*
D14*
X86995000Y-90805000D03*
G04 #@! TD*
D16*
G04 #@! TO.C,J11*
X115570000Y-83820000D03*
D14*
X115570000Y-78740000D03*
G04 #@! TD*
D18*
G04 #@! TO.C,J2*
X101600000Y-49276000D03*
D19*
X105410000Y-49276000D03*
X109220000Y-49276000D03*
G04 #@! TD*
D11*
G04 #@! TO.C,J14*
X91970000Y-74910000D03*
D12*
X91970000Y-77450000D03*
X91970000Y-79990000D03*
X91970000Y-82530000D03*
X91970000Y-85070000D03*
X91970000Y-87610000D03*
X91970000Y-90150000D03*
X91970000Y-92690000D03*
G04 #@! TD*
D11*
G04 #@! TO.C,J13*
X109960000Y-74930000D03*
D12*
X109960000Y-77470000D03*
X109960000Y-80010000D03*
X109960000Y-82550000D03*
X109960000Y-85090000D03*
X109960000Y-87630000D03*
X109960000Y-90170000D03*
X109960000Y-92710000D03*
G04 #@! TD*
D20*
G04 #@! TO.C,JP1*
X103600000Y-53300000D03*
D21*
X104900000Y-53300000D03*
D22*
X106200000Y-53300000D03*
G04 #@! TD*
D23*
G04 #@! TO.C,JP2*
X100995000Y-90805000D03*
D24*
X99695000Y-90805000D03*
G04 #@! TD*
D25*
G04 #@! TO.C,JP3*
X100935000Y-88265000D03*
D26*
X102235000Y-88265000D03*
G04 #@! TD*
D27*
G04 #@! TO.C,TP1*
X90800000Y-52400000D03*
G04 #@! TD*
D25*
G04 #@! TO.C,JP4*
X87600000Y-61600000D03*
D26*
X88900000Y-61600000D03*
G04 #@! TD*
D27*
G04 #@! TO.C,TP2*
X95900000Y-52400000D03*
G04 #@! TD*
G04 #@! TO.C,TP3*
X80800000Y-83200000D03*
G04 #@! TD*
G04 #@! TO.C,TP4*
X80800000Y-80600000D03*
G04 #@! TD*
G04 #@! TO.C,TP5*
X80800000Y-78100000D03*
G04 #@! TD*
G04 #@! TO.C,TP6*
X85700000Y-75700000D03*
G04 #@! TD*
G04 #@! TO.C,TP7*
X87900000Y-82800000D03*
G04 #@! TD*
G04 #@! TO.C,TP8*
X85700000Y-85500000D03*
G04 #@! TD*
G04 #@! TO.C,TP9*
X71600000Y-49900000D03*
G04 #@! TD*
G04 #@! TO.C,TP10*
X71600000Y-55000000D03*
G04 #@! TD*
G04 #@! TO.C,TP11*
X71600000Y-60100000D03*
G04 #@! TD*
G04 #@! TO.C,TP12*
X71600000Y-65200000D03*
G04 #@! TD*
G04 #@! TO.C,TP13*
X71600000Y-70300000D03*
G04 #@! TD*
G04 #@! TO.C,TP14*
X71600000Y-75300000D03*
G04 #@! TD*
G04 #@! TO.C,TP15*
X71600000Y-80400000D03*
G04 #@! TD*
G04 #@! TO.C,TP16*
X118300000Y-77000000D03*
G04 #@! TD*
G04 #@! TO.C,TP17*
X118300000Y-72000000D03*
G04 #@! TD*
G04 #@! TO.C,TP18*
X118300000Y-66800000D03*
G04 #@! TD*
G04 #@! TO.C,TP19*
X118300000Y-61800000D03*
G04 #@! TD*
G04 #@! TO.C,TP20*
X118300000Y-56600000D03*
G04 #@! TD*
G04 #@! TO.C,TP21*
X118300000Y-51700000D03*
G04 #@! TD*
G04 #@! TO.C,TP22*
X118300000Y-46500000D03*
G04 #@! TD*
G04 #@! TO.C,TP23*
X81900000Y-88300000D03*
G04 #@! TD*
G04 #@! TO.C,TP24*
X86900000Y-88300000D03*
G04 #@! TD*
G36*
X100244267Y-90038301D02*
G01*
X100295946Y-90081489D01*
X100364661Y-90090120D01*
X100427291Y-90060156D01*
X100445348Y-90039318D01*
X100447238Y-90038664D01*
X100448749Y-90039974D01*
X100448821Y-90041018D01*
X100446000Y-90055199D01*
X100446000Y-91554801D01*
X100448978Y-91569774D01*
X100448335Y-91571668D01*
X100446373Y-91572058D01*
X100445733Y-91571699D01*
X100394054Y-91528511D01*
X100325339Y-91519880D01*
X100262709Y-91549844D01*
X100244652Y-91570682D01*
X100242762Y-91571336D01*
X100241251Y-91570026D01*
X100241179Y-91568982D01*
X100244000Y-91554801D01*
X100244000Y-90055199D01*
X100241022Y-90040226D01*
X100241665Y-90038332D01*
X100243627Y-90037942D01*
X100244267Y-90038301D01*
G37*
G36*
X101484267Y-87498301D02*
G01*
X101535946Y-87541489D01*
X101604661Y-87550120D01*
X101667291Y-87520156D01*
X101685348Y-87499318D01*
X101687238Y-87498664D01*
X101688749Y-87499974D01*
X101688821Y-87501018D01*
X101686000Y-87515199D01*
X101686000Y-89014801D01*
X101688978Y-89029774D01*
X101688335Y-89031668D01*
X101686373Y-89032058D01*
X101685733Y-89031699D01*
X101634054Y-88988511D01*
X101565339Y-88979880D01*
X101502709Y-89009844D01*
X101484652Y-89030682D01*
X101482762Y-89031336D01*
X101481251Y-89030026D01*
X101481179Y-89028982D01*
X101484000Y-89014801D01*
X101484000Y-87515199D01*
X101481022Y-87500226D01*
X101481665Y-87498332D01*
X101483627Y-87497942D01*
X101484267Y-87498301D01*
G37*
G36*
X88149267Y-60833301D02*
G01*
X88200946Y-60876489D01*
X88269661Y-60885120D01*
X88332291Y-60855156D01*
X88350348Y-60834318D01*
X88352238Y-60833664D01*
X88353749Y-60834974D01*
X88353821Y-60836018D01*
X88351000Y-60850199D01*
X88351000Y-62349801D01*
X88353978Y-62364774D01*
X88353335Y-62366668D01*
X88351373Y-62367058D01*
X88350733Y-62366699D01*
X88299054Y-62323511D01*
X88230339Y-62314880D01*
X88167709Y-62344844D01*
X88149652Y-62365682D01*
X88147762Y-62366336D01*
X88146251Y-62365026D01*
X88146179Y-62363982D01*
X88149000Y-62349801D01*
X88149000Y-60850199D01*
X88146022Y-60835226D01*
X88146665Y-60833332D01*
X88148627Y-60832942D01*
X88149267Y-60833301D01*
G37*
G36*
X105440660Y-52517493D02*
G01*
X105454452Y-52526709D01*
X105455615Y-52524969D01*
X105457409Y-52524084D01*
X105458560Y-52524545D01*
X105475952Y-52539078D01*
X105544670Y-52547704D01*
X105592288Y-52524918D01*
X105594282Y-52525072D01*
X105594814Y-52525611D01*
X105595548Y-52526709D01*
X105609340Y-52517493D01*
X105611336Y-52517362D01*
X105612447Y-52519025D01*
X105612114Y-52520267D01*
X105604767Y-52531262D01*
X105601000Y-52550199D01*
X105601000Y-54049801D01*
X105604767Y-54068738D01*
X105612114Y-54079733D01*
X105612245Y-54081729D01*
X105610582Y-54082840D01*
X105609340Y-54082507D01*
X105595548Y-54073291D01*
X105594385Y-54075031D01*
X105592591Y-54075916D01*
X105591440Y-54075455D01*
X105574048Y-54060922D01*
X105505330Y-54052296D01*
X105457712Y-54075082D01*
X105455718Y-54074928D01*
X105455186Y-54074389D01*
X105454452Y-54073291D01*
X105440660Y-54082507D01*
X105438664Y-54082638D01*
X105437553Y-54080975D01*
X105437886Y-54079733D01*
X105445233Y-54068738D01*
X105449000Y-54049801D01*
X105449000Y-52550199D01*
X105445233Y-52531262D01*
X105437886Y-52520267D01*
X105437755Y-52518271D01*
X105439418Y-52517160D01*
X105440660Y-52517493D01*
G37*
G36*
X104190660Y-52517493D02*
G01*
X104204452Y-52526709D01*
X104205615Y-52524969D01*
X104207409Y-52524084D01*
X104208560Y-52524545D01*
X104225952Y-52539078D01*
X104294670Y-52547704D01*
X104342288Y-52524918D01*
X104344282Y-52525072D01*
X104344814Y-52525611D01*
X104345548Y-52526709D01*
X104359340Y-52517493D01*
X104361336Y-52517362D01*
X104362447Y-52519025D01*
X104362114Y-52520267D01*
X104354767Y-52531262D01*
X104351000Y-52550199D01*
X104351000Y-54049801D01*
X104354767Y-54068738D01*
X104362114Y-54079733D01*
X104362245Y-54081729D01*
X104360582Y-54082840D01*
X104359340Y-54082507D01*
X104345548Y-54073291D01*
X104344385Y-54075031D01*
X104342591Y-54075916D01*
X104341440Y-54075455D01*
X104324048Y-54060922D01*
X104255330Y-54052296D01*
X104207712Y-54075082D01*
X104205718Y-54074928D01*
X104205186Y-54074389D01*
X104204452Y-54073291D01*
X104190660Y-54082507D01*
X104188664Y-54082638D01*
X104187553Y-54080975D01*
X104187886Y-54079733D01*
X104195233Y-54068738D01*
X104199000Y-54049801D01*
X104199000Y-52550199D01*
X104195233Y-52531262D01*
X104187886Y-52520267D01*
X104187755Y-52518271D01*
X104189418Y-52517160D01*
X104190660Y-52517493D01*
G37*
M02*
