G04 #@! TF.GenerationSoftware,KiCad,Pcbnew,6.0.9-8da3e8f707~116~ubuntu20.04.1*
G04 #@! TF.CreationDate,2023-04-24T17:25:30+00:00*
G04 #@! TF.ProjectId,LEC008011,4c454330-3038-4303-9131-2e6b69636164,rev?*
G04 #@! TF.SameCoordinates,Original*
G04 #@! TF.FileFunction,Soldermask,Top*
G04 #@! TF.FilePolarity,Negative*
%FSLAX46Y46*%
G04 Gerber Fmt 4.6, Leading zero omitted, Abs format (unit mm)*
G04 Created by KiCad (PCBNEW 6.0.9-8da3e8f707~116~ubuntu20.04.1) date 2023-04-24 17:25:30*
%MOMM*%
%LPD*%
G01*
G04 APERTURE LIST*
G04 Aperture macros list*
%AMRoundRect*
0 Rectangle with rounded corners*
0 $1 Rounding radius*
0 $2 $3 $4 $5 $6 $7 $8 $9 X,Y pos of 4 corners*
0 Add a 4 corners polygon primitive as box body*
4,1,4,$2,$3,$4,$5,$6,$7,$8,$9,$2,$3,0*
0 Add four circle primitives for the rounded corners*
1,1,$1+$1,$2,$3*
1,1,$1+$1,$4,$5*
1,1,$1+$1,$6,$7*
1,1,$1+$1,$8,$9*
0 Add four rect primitives between the rounded corners*
20,1,$1+$1,$2,$3,$4,$5,0*
20,1,$1+$1,$4,$5,$6,$7,0*
20,1,$1+$1,$6,$7,$8,$9,0*
20,1,$1+$1,$8,$9,$2,$3,0*%
G04 Aperture macros list end*
%ADD10C,0.010000*%
%ADD11RoundRect,0.294750X0.456250X-0.243750X0.456250X0.243750X-0.456250X0.243750X-0.456250X-0.243750X0*%
%ADD12RoundRect,0.294750X-0.243750X-0.456250X0.243750X-0.456250X0.243750X0.456250X-0.243750X0.456250X0*%
%ADD13RoundRect,0.301000X1.000000X-1.950000X1.000000X1.950000X-1.000000X1.950000X-1.000000X-1.950000X0*%
%ADD14RoundRect,0.269750X-0.256250X0.218750X-0.256250X-0.218750X0.256250X-0.218750X0.256250X0.218750X0*%
%ADD15C,3.302000*%
%ADD16RoundRect,0.051000X-0.850000X-0.850000X0.850000X-0.850000X0.850000X0.850000X-0.850000X0.850000X0*%
%ADD17O,1.802000X1.802000*%
%ADD18RoundRect,0.051000X0.275000X-0.800000X0.275000X0.800000X-0.275000X0.800000X-0.275000X-0.800000X0*%
%ADD19RoundRect,0.051000X0.800000X0.275000X-0.800000X0.275000X-0.800000X-0.275000X0.800000X-0.275000X0*%
%ADD20RoundRect,0.051000X1.500000X1.500000X-1.500000X1.500000X-1.500000X-1.500000X1.500000X-1.500000X0*%
%ADD21C,3.102000*%
%ADD22RoundRect,0.051000X-1.500000X1.500000X-1.500000X-1.500000X1.500000X-1.500000X1.500000X1.500000X0*%
%ADD23RoundRect,0.051000X1.500000X-1.500000X1.500000X1.500000X-1.500000X1.500000X-1.500000X-1.500000X0*%
%ADD24RoundRect,0.051000X-1.500000X-1.500000X1.500000X-1.500000X1.500000X1.500000X-1.500000X1.500000X0*%
%ADD25RoundRect,0.051000X-0.600000X-0.600000X0.600000X-0.600000X0.600000X0.600000X-0.600000X0.600000X0*%
%ADD26RoundRect,0.051000X-0.750000X-0.800000X0.750000X-0.800000X0.750000X0.800000X-0.750000X0.800000X0*%
%ADD27RoundRect,0.051000X-1.499870X-1.499870X1.499870X-1.499870X1.499870X1.499870X-1.499870X1.499870X0*%
%ADD28C,3.101740*%
%ADD29RoundRect,0.294750X0.243750X0.456250X-0.243750X0.456250X-0.243750X-0.456250X0.243750X-0.456250X0*%
%ADD30RoundRect,0.051000X1.250000X0.900000X-1.250000X0.900000X-1.250000X-0.900000X1.250000X-0.900000X0*%
%ADD31RoundRect,0.213500X0.162500X-0.825000X0.162500X0.825000X-0.162500X0.825000X-0.162500X-0.825000X0*%
%ADD32RoundRect,0.301000X0.550000X-1.500000X0.550000X1.500000X-0.550000X1.500000X-0.550000X-1.500000X0*%
%ADD33RoundRect,0.051000X0.400000X-0.500000X0.400000X0.500000X-0.400000X0.500000X-0.400000X-0.500000X0*%
G04 APERTURE END LIST*
G04 #@! TO.C,LOGO1*
G36*
X103599183Y-61329852D02*
G01*
X103640298Y-61359936D01*
X103680325Y-61389213D01*
X103719069Y-61417542D01*
X103756338Y-61444783D01*
X103791940Y-61470794D01*
X103825680Y-61495434D01*
X103857366Y-61518564D01*
X103886806Y-61540043D01*
X103913806Y-61559729D01*
X103938172Y-61577482D01*
X103959713Y-61593161D01*
X103978236Y-61606626D01*
X103993546Y-61617735D01*
X104005452Y-61626349D01*
X104013760Y-61632326D01*
X104018277Y-61635526D01*
X104019087Y-61636054D01*
X104021269Y-61634593D01*
X104027370Y-61630293D01*
X104037192Y-61623297D01*
X104050541Y-61613744D01*
X104067220Y-61601776D01*
X104087032Y-61587535D01*
X104109783Y-61571162D01*
X104135275Y-61552798D01*
X104163314Y-61532584D01*
X104193701Y-61510663D01*
X104226243Y-61487175D01*
X104260742Y-61462261D01*
X104297003Y-61436062D01*
X104334829Y-61408721D01*
X104374025Y-61380378D01*
X104414395Y-61351175D01*
X104430766Y-61339329D01*
X104471564Y-61309810D01*
X104511274Y-61281087D01*
X104549701Y-61253301D01*
X104586647Y-61226595D01*
X104621916Y-61201111D01*
X104655310Y-61176990D01*
X104686635Y-61154374D01*
X104715692Y-61133405D01*
X104742285Y-61114225D01*
X104766218Y-61096975D01*
X104787293Y-61081798D01*
X104805315Y-61068836D01*
X104820086Y-61058230D01*
X104831411Y-61050122D01*
X104839091Y-61044654D01*
X104842932Y-61041967D01*
X104843347Y-61041704D01*
X104843981Y-61043984D01*
X104844522Y-61051178D01*
X104844969Y-61063122D01*
X104845317Y-61079651D01*
X104845563Y-61100600D01*
X104845703Y-61125804D01*
X104845734Y-61154734D01*
X104845649Y-61268610D01*
X104511780Y-61509910D01*
X104475037Y-61536474D01*
X104439426Y-61562235D01*
X104405163Y-61587035D01*
X104372466Y-61610717D01*
X104341550Y-61633124D01*
X104312632Y-61654098D01*
X104285929Y-61673483D01*
X104261658Y-61691120D01*
X104240034Y-61706853D01*
X104221274Y-61720525D01*
X104205596Y-61731977D01*
X104193215Y-61741052D01*
X104184347Y-61747594D01*
X104179211Y-61751444D01*
X104177933Y-61752480D01*
X104179950Y-61754094D01*
X104185854Y-61758545D01*
X104195427Y-61765676D01*
X104208455Y-61775326D01*
X104224722Y-61787339D01*
X104244010Y-61801553D01*
X104266106Y-61817812D01*
X104290791Y-61835956D01*
X104317851Y-61855827D01*
X104347070Y-61877266D01*
X104378231Y-61900113D01*
X104411119Y-61924211D01*
X104445518Y-61949400D01*
X104481211Y-61975523D01*
X104509644Y-61996320D01*
X104546214Y-62023075D01*
X104581667Y-62049035D01*
X104615786Y-62074039D01*
X104648355Y-62097928D01*
X104679156Y-62120542D01*
X104707973Y-62141721D01*
X104734589Y-62161307D01*
X104758787Y-62179137D01*
X104780350Y-62195054D01*
X104799061Y-62208898D01*
X104814704Y-62220507D01*
X104827061Y-62229724D01*
X104835916Y-62236387D01*
X104841051Y-62240338D01*
X104842335Y-62241430D01*
X104842529Y-62244426D01*
X104842680Y-62251975D01*
X104842789Y-62263550D01*
X104842853Y-62278625D01*
X104842870Y-62296673D01*
X104842839Y-62317167D01*
X104842759Y-62339581D01*
X104842672Y-62356352D01*
X104842010Y-62468733D01*
X104013970Y-61862775D01*
X103955907Y-61820283D01*
X103898878Y-61778543D01*
X103843019Y-61737657D01*
X103788469Y-61697724D01*
X103735363Y-61658846D01*
X103683839Y-61621122D01*
X103634036Y-61584653D01*
X103586089Y-61549541D01*
X103540136Y-61515885D01*
X103496314Y-61483786D01*
X103454761Y-61453345D01*
X103415614Y-61424662D01*
X103379011Y-61397838D01*
X103345087Y-61372973D01*
X103313981Y-61350168D01*
X103285831Y-61329523D01*
X103260772Y-61311140D01*
X103238943Y-61295118D01*
X103220481Y-61281559D01*
X103205522Y-61270563D01*
X103194205Y-61262229D01*
X103186667Y-61256660D01*
X103183044Y-61253955D01*
X103182728Y-61253706D01*
X103181936Y-61251871D01*
X103181292Y-61247807D01*
X103180789Y-61241140D01*
X103180418Y-61231496D01*
X103180171Y-61218503D01*
X103180039Y-61201788D01*
X103180016Y-61180976D01*
X103180092Y-61155696D01*
X103180188Y-61137150D01*
X103180850Y-61023704D01*
X103599183Y-61329852D01*
G37*
D10*
X103599183Y-61329852D02*
X103640298Y-61359936D01*
X103680325Y-61389213D01*
X103719069Y-61417542D01*
X103756338Y-61444783D01*
X103791940Y-61470794D01*
X103825680Y-61495434D01*
X103857366Y-61518564D01*
X103886806Y-61540043D01*
X103913806Y-61559729D01*
X103938172Y-61577482D01*
X103959713Y-61593161D01*
X103978236Y-61606626D01*
X103993546Y-61617735D01*
X104005452Y-61626349D01*
X104013760Y-61632326D01*
X104018277Y-61635526D01*
X104019087Y-61636054D01*
X104021269Y-61634593D01*
X104027370Y-61630293D01*
X104037192Y-61623297D01*
X104050541Y-61613744D01*
X104067220Y-61601776D01*
X104087032Y-61587535D01*
X104109783Y-61571162D01*
X104135275Y-61552798D01*
X104163314Y-61532584D01*
X104193701Y-61510663D01*
X104226243Y-61487175D01*
X104260742Y-61462261D01*
X104297003Y-61436062D01*
X104334829Y-61408721D01*
X104374025Y-61380378D01*
X104414395Y-61351175D01*
X104430766Y-61339329D01*
X104471564Y-61309810D01*
X104511274Y-61281087D01*
X104549701Y-61253301D01*
X104586647Y-61226595D01*
X104621916Y-61201111D01*
X104655310Y-61176990D01*
X104686635Y-61154374D01*
X104715692Y-61133405D01*
X104742285Y-61114225D01*
X104766218Y-61096975D01*
X104787293Y-61081798D01*
X104805315Y-61068836D01*
X104820086Y-61058230D01*
X104831411Y-61050122D01*
X104839091Y-61044654D01*
X104842932Y-61041967D01*
X104843347Y-61041704D01*
X104843981Y-61043984D01*
X104844522Y-61051178D01*
X104844969Y-61063122D01*
X104845317Y-61079651D01*
X104845563Y-61100600D01*
X104845703Y-61125804D01*
X104845734Y-61154734D01*
X104845649Y-61268610D01*
X104511780Y-61509910D01*
X104475037Y-61536474D01*
X104439426Y-61562235D01*
X104405163Y-61587035D01*
X104372466Y-61610717D01*
X104341550Y-61633124D01*
X104312632Y-61654098D01*
X104285929Y-61673483D01*
X104261658Y-61691120D01*
X104240034Y-61706853D01*
X104221274Y-61720525D01*
X104205596Y-61731977D01*
X104193215Y-61741052D01*
X104184347Y-61747594D01*
X104179211Y-61751444D01*
X104177933Y-61752480D01*
X104179950Y-61754094D01*
X104185854Y-61758545D01*
X104195427Y-61765676D01*
X104208455Y-61775326D01*
X104224722Y-61787339D01*
X104244010Y-61801553D01*
X104266106Y-61817812D01*
X104290791Y-61835956D01*
X104317851Y-61855827D01*
X104347070Y-61877266D01*
X104378231Y-61900113D01*
X104411119Y-61924211D01*
X104445518Y-61949400D01*
X104481211Y-61975523D01*
X104509644Y-61996320D01*
X104546214Y-62023075D01*
X104581667Y-62049035D01*
X104615786Y-62074039D01*
X104648355Y-62097928D01*
X104679156Y-62120542D01*
X104707973Y-62141721D01*
X104734589Y-62161307D01*
X104758787Y-62179137D01*
X104780350Y-62195054D01*
X104799061Y-62208898D01*
X104814704Y-62220507D01*
X104827061Y-62229724D01*
X104835916Y-62236387D01*
X104841051Y-62240338D01*
X104842335Y-62241430D01*
X104842529Y-62244426D01*
X104842680Y-62251975D01*
X104842789Y-62263550D01*
X104842853Y-62278625D01*
X104842870Y-62296673D01*
X104842839Y-62317167D01*
X104842759Y-62339581D01*
X104842672Y-62356352D01*
X104842010Y-62468733D01*
X104013970Y-61862775D01*
X103955907Y-61820283D01*
X103898878Y-61778543D01*
X103843019Y-61737657D01*
X103788469Y-61697724D01*
X103735363Y-61658846D01*
X103683839Y-61621122D01*
X103634036Y-61584653D01*
X103586089Y-61549541D01*
X103540136Y-61515885D01*
X103496314Y-61483786D01*
X103454761Y-61453345D01*
X103415614Y-61424662D01*
X103379011Y-61397838D01*
X103345087Y-61372973D01*
X103313981Y-61350168D01*
X103285831Y-61329523D01*
X103260772Y-61311140D01*
X103238943Y-61295118D01*
X103220481Y-61281559D01*
X103205522Y-61270563D01*
X103194205Y-61262229D01*
X103186667Y-61256660D01*
X103183044Y-61253955D01*
X103182728Y-61253706D01*
X103181936Y-61251871D01*
X103181292Y-61247807D01*
X103180789Y-61241140D01*
X103180418Y-61231496D01*
X103180171Y-61218503D01*
X103180039Y-61201788D01*
X103180016Y-61180976D01*
X103180092Y-61155696D01*
X103180188Y-61137150D01*
X103180850Y-61023704D01*
X103599183Y-61329852D01*
G36*
X104462864Y-65256350D02*
G01*
X104468246Y-65258764D01*
X104476130Y-65263171D01*
X104487022Y-65269839D01*
X104501432Y-65279037D01*
X104506730Y-65282468D01*
X104557247Y-65318255D01*
X104604456Y-65357767D01*
X104648181Y-65400747D01*
X104688245Y-65446939D01*
X104724473Y-65496085D01*
X104756690Y-65547929D01*
X104784719Y-65602214D01*
X104808386Y-65658683D01*
X104827513Y-65717078D01*
X104840608Y-65770614D01*
X104844715Y-65791549D01*
X104847937Y-65810693D01*
X104850387Y-65829214D01*
X104852177Y-65848279D01*
X104853419Y-65869056D01*
X104854226Y-65892714D01*
X104854665Y-65916810D01*
X104854860Y-65935035D01*
X104854960Y-65951929D01*
X104854966Y-65966719D01*
X104854880Y-65978633D01*
X104854704Y-65986897D01*
X104854485Y-65990470D01*
X104853741Y-65996358D01*
X104852630Y-66005690D01*
X104851341Y-66016862D01*
X104850735Y-66022220D01*
X104842047Y-66077997D01*
X104828574Y-66133993D01*
X104810545Y-66189599D01*
X104788188Y-66244206D01*
X104761731Y-66297203D01*
X104731401Y-66347981D01*
X104725955Y-66356230D01*
X104705098Y-66386202D01*
X104684653Y-66412956D01*
X104663317Y-66438058D01*
X104639790Y-66463073D01*
X104624501Y-66478282D01*
X104577656Y-66520480D01*
X104528179Y-66558384D01*
X104476236Y-66591914D01*
X104421994Y-66620986D01*
X104365618Y-66645518D01*
X104307274Y-66665426D01*
X104247129Y-66680629D01*
X104201477Y-66688813D01*
X104192261Y-66690020D01*
X104179810Y-66691423D01*
X104165307Y-66692913D01*
X104149937Y-66694382D01*
X104134885Y-66695719D01*
X104121334Y-66696815D01*
X104110470Y-66697562D01*
X104103505Y-66697850D01*
X104103107Y-66695398D01*
X104102738Y-66688379D01*
X104102405Y-66677308D01*
X104102119Y-66662696D01*
X104101886Y-66645059D01*
X104101717Y-66624909D01*
X104101620Y-66602759D01*
X104101600Y-66586481D01*
X104101600Y-66475101D01*
X104135255Y-66473598D01*
X104184642Y-66468880D01*
X104233391Y-66459286D01*
X104281126Y-66445012D01*
X104327472Y-66426257D01*
X104372055Y-66403216D01*
X104414500Y-66376087D01*
X104454432Y-66345067D01*
X104491476Y-66310352D01*
X104525258Y-66272140D01*
X104530066Y-66266060D01*
X104558193Y-66225962D01*
X104582754Y-66182655D01*
X104603491Y-66136786D01*
X104620147Y-66089001D01*
X104632466Y-66039946D01*
X104640191Y-65990267D01*
X104640331Y-65988939D01*
X104641812Y-65967583D01*
X104642277Y-65942988D01*
X104641784Y-65916830D01*
X104640393Y-65890784D01*
X104638161Y-65866525D01*
X104635369Y-65846960D01*
X104623968Y-65796580D01*
X104608011Y-65747829D01*
X104587722Y-65701027D01*
X104563326Y-65656494D01*
X104535050Y-65614553D01*
X104503119Y-65575523D01*
X104467757Y-65539725D01*
X104429189Y-65507479D01*
X104387642Y-65479107D01*
X104369570Y-65468541D01*
X104361866Y-65464236D01*
X104356162Y-65461023D01*
X104353660Y-65459581D01*
X104353648Y-65459572D01*
X104354589Y-65457282D01*
X104357586Y-65451034D01*
X104362356Y-65441378D01*
X104368617Y-65428866D01*
X104376087Y-65414050D01*
X104384484Y-65397482D01*
X104393526Y-65379712D01*
X104402930Y-65361291D01*
X104412414Y-65342773D01*
X104421697Y-65324708D01*
X104430496Y-65307647D01*
X104438530Y-65292143D01*
X104445515Y-65278746D01*
X104451170Y-65268008D01*
X104455212Y-65260481D01*
X104457360Y-65256716D01*
X104457574Y-65256421D01*
X104459476Y-65255658D01*
X104462864Y-65256350D01*
G37*
X104462864Y-65256350D02*
X104468246Y-65258764D01*
X104476130Y-65263171D01*
X104487022Y-65269839D01*
X104501432Y-65279037D01*
X104506730Y-65282468D01*
X104557247Y-65318255D01*
X104604456Y-65357767D01*
X104648181Y-65400747D01*
X104688245Y-65446939D01*
X104724473Y-65496085D01*
X104756690Y-65547929D01*
X104784719Y-65602214D01*
X104808386Y-65658683D01*
X104827513Y-65717078D01*
X104840608Y-65770614D01*
X104844715Y-65791549D01*
X104847937Y-65810693D01*
X104850387Y-65829214D01*
X104852177Y-65848279D01*
X104853419Y-65869056D01*
X104854226Y-65892714D01*
X104854665Y-65916810D01*
X104854860Y-65935035D01*
X104854960Y-65951929D01*
X104854966Y-65966719D01*
X104854880Y-65978633D01*
X104854704Y-65986897D01*
X104854485Y-65990470D01*
X104853741Y-65996358D01*
X104852630Y-66005690D01*
X104851341Y-66016862D01*
X104850735Y-66022220D01*
X104842047Y-66077997D01*
X104828574Y-66133993D01*
X104810545Y-66189599D01*
X104788188Y-66244206D01*
X104761731Y-66297203D01*
X104731401Y-66347981D01*
X104725955Y-66356230D01*
X104705098Y-66386202D01*
X104684653Y-66412956D01*
X104663317Y-66438058D01*
X104639790Y-66463073D01*
X104624501Y-66478282D01*
X104577656Y-66520480D01*
X104528179Y-66558384D01*
X104476236Y-66591914D01*
X104421994Y-66620986D01*
X104365618Y-66645518D01*
X104307274Y-66665426D01*
X104247129Y-66680629D01*
X104201477Y-66688813D01*
X104192261Y-66690020D01*
X104179810Y-66691423D01*
X104165307Y-66692913D01*
X104149937Y-66694382D01*
X104134885Y-66695719D01*
X104121334Y-66696815D01*
X104110470Y-66697562D01*
X104103505Y-66697850D01*
X104103107Y-66695398D01*
X104102738Y-66688379D01*
X104102405Y-66677308D01*
X104102119Y-66662696D01*
X104101886Y-66645059D01*
X104101717Y-66624909D01*
X104101620Y-66602759D01*
X104101600Y-66586481D01*
X104101600Y-66475101D01*
X104135255Y-66473598D01*
X104184642Y-66468880D01*
X104233391Y-66459286D01*
X104281126Y-66445012D01*
X104327472Y-66426257D01*
X104372055Y-66403216D01*
X104414500Y-66376087D01*
X104454432Y-66345067D01*
X104491476Y-66310352D01*
X104525258Y-66272140D01*
X104530066Y-66266060D01*
X104558193Y-66225962D01*
X104582754Y-66182655D01*
X104603491Y-66136786D01*
X104620147Y-66089001D01*
X104632466Y-66039946D01*
X104640191Y-65990267D01*
X104640331Y-65988939D01*
X104641812Y-65967583D01*
X104642277Y-65942988D01*
X104641784Y-65916830D01*
X104640393Y-65890784D01*
X104638161Y-65866525D01*
X104635369Y-65846960D01*
X104623968Y-65796580D01*
X104608011Y-65747829D01*
X104587722Y-65701027D01*
X104563326Y-65656494D01*
X104535050Y-65614553D01*
X104503119Y-65575523D01*
X104467757Y-65539725D01*
X104429189Y-65507479D01*
X104387642Y-65479107D01*
X104369570Y-65468541D01*
X104361866Y-65464236D01*
X104356162Y-65461023D01*
X104353660Y-65459581D01*
X104353648Y-65459572D01*
X104354589Y-65457282D01*
X104357586Y-65451034D01*
X104362356Y-65441378D01*
X104368617Y-65428866D01*
X104376087Y-65414050D01*
X104384484Y-65397482D01*
X104393526Y-65379712D01*
X104402930Y-65361291D01*
X104412414Y-65342773D01*
X104421697Y-65324708D01*
X104430496Y-65307647D01*
X104438530Y-65292143D01*
X104445515Y-65278746D01*
X104451170Y-65268008D01*
X104455212Y-65260481D01*
X104457360Y-65256716D01*
X104457574Y-65256421D01*
X104459476Y-65255658D01*
X104462864Y-65256350D01*
G36*
X104853440Y-69791580D02*
G01*
X104629920Y-69791580D01*
X104629920Y-68643500D01*
X104853440Y-68643500D01*
X104853440Y-69791580D01*
G37*
X104853440Y-69791580D02*
X104629920Y-69791580D01*
X104629920Y-68643500D01*
X104853440Y-68643500D01*
X104853440Y-69791580D01*
G36*
X103387860Y-67972940D02*
G01*
X103700280Y-67972940D01*
X103700280Y-68196460D01*
X103166880Y-68196460D01*
X103166880Y-67099180D01*
X103387860Y-67099180D01*
X103387860Y-67972940D01*
G37*
X103387860Y-67972940D02*
X103700280Y-67972940D01*
X103700280Y-68196460D01*
X103166880Y-68196460D01*
X103166880Y-67099180D01*
X103387860Y-67099180D01*
X103387860Y-67972940D01*
G36*
X104853440Y-68191380D02*
G01*
X104629920Y-68191380D01*
X104629920Y-67099180D01*
X104853440Y-67099180D01*
X104853440Y-68191380D01*
G37*
X104853440Y-68191380D02*
X104629920Y-68191380D01*
X104629920Y-67099180D01*
X104853440Y-67099180D01*
X104853440Y-68191380D01*
G36*
X103395480Y-64950340D02*
G01*
X103174500Y-64950340D01*
X103174500Y-63581280D01*
X103395480Y-63581280D01*
X103395480Y-64950340D01*
G37*
X103395480Y-64950340D02*
X103174500Y-64950340D01*
X103174500Y-63581280D01*
X103395480Y-63581280D01*
X103395480Y-64950340D01*
G36*
X104452120Y-69791580D02*
G01*
X103177040Y-69791580D01*
X103177040Y-69570600D01*
X104452120Y-69570600D01*
X104452120Y-69791580D01*
G37*
X104452120Y-69791580D02*
X103177040Y-69791580D01*
X103177040Y-69570600D01*
X104452120Y-69570600D01*
X104452120Y-69791580D01*
G36*
X104845820Y-64381380D02*
G01*
X103563120Y-64381380D01*
X103563120Y-64160400D01*
X104845820Y-64160400D01*
X104845820Y-64381380D01*
G37*
X104845820Y-64381380D02*
X103563120Y-64381380D01*
X103563120Y-64160400D01*
X104845820Y-64160400D01*
X104845820Y-64381380D01*
G36*
X103747001Y-61861871D02*
G01*
X103753439Y-61865923D01*
X103762779Y-61872183D01*
X103774461Y-61880245D01*
X103787928Y-61889707D01*
X103802622Y-61900162D01*
X103817984Y-61911207D01*
X103833457Y-61922438D01*
X103848483Y-61933449D01*
X103862504Y-61943838D01*
X103874962Y-61953199D01*
X103885298Y-61961128D01*
X103892955Y-61967221D01*
X103897375Y-61971073D01*
X103898247Y-61972190D01*
X103896223Y-61973929D01*
X103890295Y-61978496D01*
X103880671Y-61985736D01*
X103867561Y-61995498D01*
X103851174Y-62007627D01*
X103831719Y-62021971D01*
X103809405Y-62038375D01*
X103784442Y-62056687D01*
X103757037Y-62076753D01*
X103727402Y-62098421D01*
X103695743Y-62121535D01*
X103662272Y-62145944D01*
X103627196Y-62171494D01*
X103590724Y-62198032D01*
X103553067Y-62225404D01*
X103541493Y-62233810D01*
X103503445Y-62261442D01*
X103466468Y-62288293D01*
X103430772Y-62314211D01*
X103396572Y-62339040D01*
X103364081Y-62362626D01*
X103333511Y-62384814D01*
X103305075Y-62405451D01*
X103278985Y-62424382D01*
X103255456Y-62441452D01*
X103234699Y-62456507D01*
X103216927Y-62469392D01*
X103202354Y-62479953D01*
X103191192Y-62488036D01*
X103183654Y-62493486D01*
X103179952Y-62496149D01*
X103179630Y-62496375D01*
X103178417Y-62497123D01*
X103177412Y-62497285D01*
X103176595Y-62496437D01*
X103175947Y-62494156D01*
X103175449Y-62490019D01*
X103175081Y-62483601D01*
X103174823Y-62474478D01*
X103174655Y-62462228D01*
X103174559Y-62446427D01*
X103174514Y-62426651D01*
X103174500Y-62402475D01*
X103174499Y-62385446D01*
X103174500Y-62271032D01*
X103457044Y-62065731D01*
X103490835Y-62041201D01*
X103523537Y-62017507D01*
X103554909Y-61994820D01*
X103584714Y-61973311D01*
X103612711Y-61953152D01*
X103638663Y-61934513D01*
X103662329Y-61917565D01*
X103683470Y-61902480D01*
X103701848Y-61889429D01*
X103717223Y-61878582D01*
X103729356Y-61870111D01*
X103738009Y-61864186D01*
X103742942Y-61860979D01*
X103744021Y-61860430D01*
X103747001Y-61861871D01*
G37*
X103747001Y-61861871D02*
X103753439Y-61865923D01*
X103762779Y-61872183D01*
X103774461Y-61880245D01*
X103787928Y-61889707D01*
X103802622Y-61900162D01*
X103817984Y-61911207D01*
X103833457Y-61922438D01*
X103848483Y-61933449D01*
X103862504Y-61943838D01*
X103874962Y-61953199D01*
X103885298Y-61961128D01*
X103892955Y-61967221D01*
X103897375Y-61971073D01*
X103898247Y-61972190D01*
X103896223Y-61973929D01*
X103890295Y-61978496D01*
X103880671Y-61985736D01*
X103867561Y-61995498D01*
X103851174Y-62007627D01*
X103831719Y-62021971D01*
X103809405Y-62038375D01*
X103784442Y-62056687D01*
X103757037Y-62076753D01*
X103727402Y-62098421D01*
X103695743Y-62121535D01*
X103662272Y-62145944D01*
X103627196Y-62171494D01*
X103590724Y-62198032D01*
X103553067Y-62225404D01*
X103541493Y-62233810D01*
X103503445Y-62261442D01*
X103466468Y-62288293D01*
X103430772Y-62314211D01*
X103396572Y-62339040D01*
X103364081Y-62362626D01*
X103333511Y-62384814D01*
X103305075Y-62405451D01*
X103278985Y-62424382D01*
X103255456Y-62441452D01*
X103234699Y-62456507D01*
X103216927Y-62469392D01*
X103202354Y-62479953D01*
X103191192Y-62488036D01*
X103183654Y-62493486D01*
X103179952Y-62496149D01*
X103179630Y-62496375D01*
X103178417Y-62497123D01*
X103177412Y-62497285D01*
X103176595Y-62496437D01*
X103175947Y-62494156D01*
X103175449Y-62490019D01*
X103175081Y-62483601D01*
X103174823Y-62474478D01*
X103174655Y-62462228D01*
X103174559Y-62446427D01*
X103174514Y-62426651D01*
X103174500Y-62402475D01*
X103174499Y-62385446D01*
X103174500Y-62271032D01*
X103457044Y-62065731D01*
X103490835Y-62041201D01*
X103523537Y-62017507D01*
X103554909Y-61994820D01*
X103584714Y-61973311D01*
X103612711Y-61953152D01*
X103638663Y-61934513D01*
X103662329Y-61917565D01*
X103683470Y-61902480D01*
X103701848Y-61889429D01*
X103717223Y-61878582D01*
X103729356Y-61870111D01*
X103738009Y-61864186D01*
X103742942Y-61860979D01*
X103744021Y-61860430D01*
X103747001Y-61861871D01*
G36*
X104845820Y-63134240D02*
G01*
X103174500Y-63134240D01*
X103174500Y-62913260D01*
X104845820Y-62913260D01*
X104845820Y-63134240D01*
G37*
X104845820Y-63134240D02*
X103174500Y-63134240D01*
X103174500Y-62913260D01*
X104845820Y-62913260D01*
X104845820Y-63134240D01*
G36*
X104109220Y-67972940D02*
G01*
X104452120Y-67972940D01*
X104452120Y-68193920D01*
X103885700Y-68193920D01*
X103885700Y-67213480D01*
X104109220Y-67213480D01*
X104109220Y-67972940D01*
G37*
X104109220Y-67972940D02*
X104452120Y-67972940D01*
X104452120Y-68193920D01*
X103885700Y-68193920D01*
X103885700Y-67213480D01*
X104109220Y-67213480D01*
X104109220Y-67972940D01*
G36*
X103548046Y-65292073D02*
G01*
X103549794Y-65294384D01*
X103553936Y-65300416D01*
X103560116Y-65309624D01*
X103567976Y-65321459D01*
X103577159Y-65335373D01*
X103587308Y-65350819D01*
X103598066Y-65367250D01*
X103609075Y-65384117D01*
X103619979Y-65400873D01*
X103630419Y-65416971D01*
X103640039Y-65431862D01*
X103648482Y-65445000D01*
X103655390Y-65455835D01*
X103660407Y-65463822D01*
X103663174Y-65468412D01*
X103663584Y-65469206D01*
X103662718Y-65472032D01*
X103658095Y-65476095D01*
X103649339Y-65481695D01*
X103643914Y-65484816D01*
X103616428Y-65501911D01*
X103588002Y-65522573D01*
X103559852Y-65545771D01*
X103533197Y-65570472D01*
X103509254Y-65595644D01*
X103499140Y-65607520D01*
X103469172Y-65648154D01*
X103443127Y-65691753D01*
X103421226Y-65737804D01*
X103403690Y-65785792D01*
X103390740Y-65835203D01*
X103383813Y-65875548D01*
X103381768Y-65897054D01*
X103380722Y-65921779D01*
X103380637Y-65948240D01*
X103381480Y-65974955D01*
X103383214Y-66000443D01*
X103385804Y-66023221D01*
X103387603Y-66034174D01*
X103399608Y-66084714D01*
X103416099Y-66133225D01*
X103436857Y-66179466D01*
X103461666Y-66223196D01*
X103490308Y-66264174D01*
X103522566Y-66302159D01*
X103558223Y-66336910D01*
X103597062Y-66368186D01*
X103638864Y-66395748D01*
X103683413Y-66419352D01*
X103730492Y-66438760D01*
X103761621Y-66448801D01*
X103806052Y-66459444D01*
X103852105Y-66466072D01*
X103890145Y-66468568D01*
X103931420Y-66469972D01*
X103931420Y-66690969D01*
X103886335Y-66689493D01*
X103826765Y-66685049D01*
X103768219Y-66675761D01*
X103710945Y-66661804D01*
X103655192Y-66643357D01*
X103601206Y-66620595D01*
X103549239Y-66593694D01*
X103499537Y-66562832D01*
X103452349Y-66528184D01*
X103407923Y-66489927D01*
X103366510Y-66448238D01*
X103328355Y-66403292D01*
X103293709Y-66355267D01*
X103262820Y-66304339D01*
X103235936Y-66250684D01*
X103222046Y-66217800D01*
X103203465Y-66164923D01*
X103188763Y-66110211D01*
X103177716Y-66052795D01*
X103175434Y-66037460D01*
X103173688Y-66021281D01*
X103172339Y-66001218D01*
X103171399Y-65978456D01*
X103170875Y-65954175D01*
X103170777Y-65929559D01*
X103171115Y-65905791D01*
X103171898Y-65884051D01*
X103173135Y-65865524D01*
X103174013Y-65857120D01*
X103184111Y-65795464D01*
X103198858Y-65735518D01*
X103218120Y-65677498D01*
X103241760Y-65621620D01*
X103269642Y-65568099D01*
X103301632Y-65517150D01*
X103337592Y-65468988D01*
X103377388Y-65423829D01*
X103420884Y-65381889D01*
X103467944Y-65343383D01*
X103518433Y-65308525D01*
X103520462Y-65307247D01*
X103530604Y-65301050D01*
X103539176Y-65296127D01*
X103545284Y-65292968D01*
X103548034Y-65292067D01*
X103548046Y-65292073D01*
G37*
X103548046Y-65292073D02*
X103549794Y-65294384D01*
X103553936Y-65300416D01*
X103560116Y-65309624D01*
X103567976Y-65321459D01*
X103577159Y-65335373D01*
X103587308Y-65350819D01*
X103598066Y-65367250D01*
X103609075Y-65384117D01*
X103619979Y-65400873D01*
X103630419Y-65416971D01*
X103640039Y-65431862D01*
X103648482Y-65445000D01*
X103655390Y-65455835D01*
X103660407Y-65463822D01*
X103663174Y-65468412D01*
X103663584Y-65469206D01*
X103662718Y-65472032D01*
X103658095Y-65476095D01*
X103649339Y-65481695D01*
X103643914Y-65484816D01*
X103616428Y-65501911D01*
X103588002Y-65522573D01*
X103559852Y-65545771D01*
X103533197Y-65570472D01*
X103509254Y-65595644D01*
X103499140Y-65607520D01*
X103469172Y-65648154D01*
X103443127Y-65691753D01*
X103421226Y-65737804D01*
X103403690Y-65785792D01*
X103390740Y-65835203D01*
X103383813Y-65875548D01*
X103381768Y-65897054D01*
X103380722Y-65921779D01*
X103380637Y-65948240D01*
X103381480Y-65974955D01*
X103383214Y-66000443D01*
X103385804Y-66023221D01*
X103387603Y-66034174D01*
X103399608Y-66084714D01*
X103416099Y-66133225D01*
X103436857Y-66179466D01*
X103461666Y-66223196D01*
X103490308Y-66264174D01*
X103522566Y-66302159D01*
X103558223Y-66336910D01*
X103597062Y-66368186D01*
X103638864Y-66395748D01*
X103683413Y-66419352D01*
X103730492Y-66438760D01*
X103761621Y-66448801D01*
X103806052Y-66459444D01*
X103852105Y-66466072D01*
X103890145Y-66468568D01*
X103931420Y-66469972D01*
X103931420Y-66690969D01*
X103886335Y-66689493D01*
X103826765Y-66685049D01*
X103768219Y-66675761D01*
X103710945Y-66661804D01*
X103655192Y-66643357D01*
X103601206Y-66620595D01*
X103549239Y-66593694D01*
X103499537Y-66562832D01*
X103452349Y-66528184D01*
X103407923Y-66489927D01*
X103366510Y-66448238D01*
X103328355Y-66403292D01*
X103293709Y-66355267D01*
X103262820Y-66304339D01*
X103235936Y-66250684D01*
X103222046Y-66217800D01*
X103203465Y-66164923D01*
X103188763Y-66110211D01*
X103177716Y-66052795D01*
X103175434Y-66037460D01*
X103173688Y-66021281D01*
X103172339Y-66001218D01*
X103171399Y-65978456D01*
X103170875Y-65954175D01*
X103170777Y-65929559D01*
X103171115Y-65905791D01*
X103171898Y-65884051D01*
X103173135Y-65865524D01*
X103174013Y-65857120D01*
X103184111Y-65795464D01*
X103198858Y-65735518D01*
X103218120Y-65677498D01*
X103241760Y-65621620D01*
X103269642Y-65568099D01*
X103301632Y-65517150D01*
X103337592Y-65468988D01*
X103377388Y-65423829D01*
X103420884Y-65381889D01*
X103467944Y-65343383D01*
X103518433Y-65308525D01*
X103520462Y-65307247D01*
X103530604Y-65301050D01*
X103539176Y-65296127D01*
X103545284Y-65292968D01*
X103548034Y-65292067D01*
X103548046Y-65292073D01*
G36*
X103599183Y-61329852D02*
G01*
X103640298Y-61359936D01*
X103680325Y-61389213D01*
X103719069Y-61417542D01*
X103756338Y-61444783D01*
X103791940Y-61470794D01*
X103825680Y-61495434D01*
X103857366Y-61518564D01*
X103886806Y-61540043D01*
X103913806Y-61559729D01*
X103938172Y-61577482D01*
X103959713Y-61593161D01*
X103978236Y-61606626D01*
X103993546Y-61617735D01*
X104005452Y-61626349D01*
X104013760Y-61632326D01*
X104018277Y-61635526D01*
X104019087Y-61636054D01*
X104021269Y-61634593D01*
X104027370Y-61630293D01*
X104037192Y-61623297D01*
X104050541Y-61613744D01*
X104067220Y-61601776D01*
X104087032Y-61587535D01*
X104109783Y-61571162D01*
X104135275Y-61552798D01*
X104163314Y-61532584D01*
X104193701Y-61510663D01*
X104226243Y-61487175D01*
X104260742Y-61462261D01*
X104297003Y-61436062D01*
X104334829Y-61408721D01*
X104374025Y-61380378D01*
X104414395Y-61351175D01*
X104430766Y-61339329D01*
X104471564Y-61309810D01*
X104511274Y-61281087D01*
X104549701Y-61253301D01*
X104586647Y-61226595D01*
X104621916Y-61201111D01*
X104655310Y-61176990D01*
X104686635Y-61154374D01*
X104715692Y-61133405D01*
X104742285Y-61114225D01*
X104766218Y-61096975D01*
X104787293Y-61081798D01*
X104805315Y-61068836D01*
X104820086Y-61058230D01*
X104831411Y-61050122D01*
X104839091Y-61044654D01*
X104842932Y-61041967D01*
X104843347Y-61041704D01*
X104843981Y-61043984D01*
X104844522Y-61051178D01*
X104844969Y-61063122D01*
X104845317Y-61079651D01*
X104845563Y-61100600D01*
X104845703Y-61125804D01*
X104845734Y-61154734D01*
X104845649Y-61268610D01*
X104511780Y-61509910D01*
X104475037Y-61536474D01*
X104439426Y-61562235D01*
X104405163Y-61587035D01*
X104372466Y-61610717D01*
X104341550Y-61633124D01*
X104312632Y-61654098D01*
X104285929Y-61673483D01*
X104261658Y-61691120D01*
X104240034Y-61706853D01*
X104221274Y-61720525D01*
X104205596Y-61731977D01*
X104193215Y-61741052D01*
X104184347Y-61747594D01*
X104179211Y-61751444D01*
X104177933Y-61752480D01*
X104179950Y-61754094D01*
X104185854Y-61758545D01*
X104195427Y-61765676D01*
X104208455Y-61775326D01*
X104224722Y-61787339D01*
X104244010Y-61801553D01*
X104266106Y-61817812D01*
X104290791Y-61835956D01*
X104317851Y-61855827D01*
X104347070Y-61877266D01*
X104378231Y-61900113D01*
X104411119Y-61924211D01*
X104445518Y-61949400D01*
X104481211Y-61975523D01*
X104509644Y-61996320D01*
X104546214Y-62023075D01*
X104581667Y-62049035D01*
X104615786Y-62074039D01*
X104648355Y-62097928D01*
X104679156Y-62120542D01*
X104707973Y-62141721D01*
X104734589Y-62161307D01*
X104758787Y-62179137D01*
X104780350Y-62195054D01*
X104799061Y-62208898D01*
X104814704Y-62220507D01*
X104827061Y-62229724D01*
X104835916Y-62236387D01*
X104841051Y-62240338D01*
X104842335Y-62241430D01*
X104842529Y-62244426D01*
X104842680Y-62251975D01*
X104842789Y-62263550D01*
X104842853Y-62278625D01*
X104842870Y-62296673D01*
X104842839Y-62317167D01*
X104842759Y-62339581D01*
X104842672Y-62356352D01*
X104842010Y-62468733D01*
X104013970Y-61862775D01*
X103955907Y-61820283D01*
X103898878Y-61778543D01*
X103843019Y-61737657D01*
X103788469Y-61697724D01*
X103735363Y-61658846D01*
X103683839Y-61621122D01*
X103634036Y-61584653D01*
X103586089Y-61549541D01*
X103540136Y-61515885D01*
X103496314Y-61483786D01*
X103454761Y-61453345D01*
X103415614Y-61424662D01*
X103379011Y-61397838D01*
X103345087Y-61372973D01*
X103313981Y-61350168D01*
X103285831Y-61329523D01*
X103260772Y-61311140D01*
X103238943Y-61295118D01*
X103220481Y-61281559D01*
X103205522Y-61270563D01*
X103194205Y-61262229D01*
X103186667Y-61256660D01*
X103183044Y-61253955D01*
X103182728Y-61253706D01*
X103181936Y-61251871D01*
X103181292Y-61247807D01*
X103180789Y-61241140D01*
X103180418Y-61231496D01*
X103180171Y-61218503D01*
X103180039Y-61201788D01*
X103180016Y-61180976D01*
X103180092Y-61155696D01*
X103180188Y-61137150D01*
X103180850Y-61023704D01*
X103599183Y-61329852D01*
G37*
X103599183Y-61329852D02*
X103640298Y-61359936D01*
X103680325Y-61389213D01*
X103719069Y-61417542D01*
X103756338Y-61444783D01*
X103791940Y-61470794D01*
X103825680Y-61495434D01*
X103857366Y-61518564D01*
X103886806Y-61540043D01*
X103913806Y-61559729D01*
X103938172Y-61577482D01*
X103959713Y-61593161D01*
X103978236Y-61606626D01*
X103993546Y-61617735D01*
X104005452Y-61626349D01*
X104013760Y-61632326D01*
X104018277Y-61635526D01*
X104019087Y-61636054D01*
X104021269Y-61634593D01*
X104027370Y-61630293D01*
X104037192Y-61623297D01*
X104050541Y-61613744D01*
X104067220Y-61601776D01*
X104087032Y-61587535D01*
X104109783Y-61571162D01*
X104135275Y-61552798D01*
X104163314Y-61532584D01*
X104193701Y-61510663D01*
X104226243Y-61487175D01*
X104260742Y-61462261D01*
X104297003Y-61436062D01*
X104334829Y-61408721D01*
X104374025Y-61380378D01*
X104414395Y-61351175D01*
X104430766Y-61339329D01*
X104471564Y-61309810D01*
X104511274Y-61281087D01*
X104549701Y-61253301D01*
X104586647Y-61226595D01*
X104621916Y-61201111D01*
X104655310Y-61176990D01*
X104686635Y-61154374D01*
X104715692Y-61133405D01*
X104742285Y-61114225D01*
X104766218Y-61096975D01*
X104787293Y-61081798D01*
X104805315Y-61068836D01*
X104820086Y-61058230D01*
X104831411Y-61050122D01*
X104839091Y-61044654D01*
X104842932Y-61041967D01*
X104843347Y-61041704D01*
X104843981Y-61043984D01*
X104844522Y-61051178D01*
X104844969Y-61063122D01*
X104845317Y-61079651D01*
X104845563Y-61100600D01*
X104845703Y-61125804D01*
X104845734Y-61154734D01*
X104845649Y-61268610D01*
X104511780Y-61509910D01*
X104475037Y-61536474D01*
X104439426Y-61562235D01*
X104405163Y-61587035D01*
X104372466Y-61610717D01*
X104341550Y-61633124D01*
X104312632Y-61654098D01*
X104285929Y-61673483D01*
X104261658Y-61691120D01*
X104240034Y-61706853D01*
X104221274Y-61720525D01*
X104205596Y-61731977D01*
X104193215Y-61741052D01*
X104184347Y-61747594D01*
X104179211Y-61751444D01*
X104177933Y-61752480D01*
X104179950Y-61754094D01*
X104185854Y-61758545D01*
X104195427Y-61765676D01*
X104208455Y-61775326D01*
X104224722Y-61787339D01*
X104244010Y-61801553D01*
X104266106Y-61817812D01*
X104290791Y-61835956D01*
X104317851Y-61855827D01*
X104347070Y-61877266D01*
X104378231Y-61900113D01*
X104411119Y-61924211D01*
X104445518Y-61949400D01*
X104481211Y-61975523D01*
X104509644Y-61996320D01*
X104546214Y-62023075D01*
X104581667Y-62049035D01*
X104615786Y-62074039D01*
X104648355Y-62097928D01*
X104679156Y-62120542D01*
X104707973Y-62141721D01*
X104734589Y-62161307D01*
X104758787Y-62179137D01*
X104780350Y-62195054D01*
X104799061Y-62208898D01*
X104814704Y-62220507D01*
X104827061Y-62229724D01*
X104835916Y-62236387D01*
X104841051Y-62240338D01*
X104842335Y-62241430D01*
X104842529Y-62244426D01*
X104842680Y-62251975D01*
X104842789Y-62263550D01*
X104842853Y-62278625D01*
X104842870Y-62296673D01*
X104842839Y-62317167D01*
X104842759Y-62339581D01*
X104842672Y-62356352D01*
X104842010Y-62468733D01*
X104013970Y-61862775D01*
X103955907Y-61820283D01*
X103898878Y-61778543D01*
X103843019Y-61737657D01*
X103788469Y-61697724D01*
X103735363Y-61658846D01*
X103683839Y-61621122D01*
X103634036Y-61584653D01*
X103586089Y-61549541D01*
X103540136Y-61515885D01*
X103496314Y-61483786D01*
X103454761Y-61453345D01*
X103415614Y-61424662D01*
X103379011Y-61397838D01*
X103345087Y-61372973D01*
X103313981Y-61350168D01*
X103285831Y-61329523D01*
X103260772Y-61311140D01*
X103238943Y-61295118D01*
X103220481Y-61281559D01*
X103205522Y-61270563D01*
X103194205Y-61262229D01*
X103186667Y-61256660D01*
X103183044Y-61253955D01*
X103182728Y-61253706D01*
X103181936Y-61251871D01*
X103181292Y-61247807D01*
X103180789Y-61241140D01*
X103180418Y-61231496D01*
X103180171Y-61218503D01*
X103180039Y-61201788D01*
X103180016Y-61180976D01*
X103180092Y-61155696D01*
X103180188Y-61137150D01*
X103180850Y-61023704D01*
X103599183Y-61329852D01*
G36*
X104462864Y-65256350D02*
G01*
X104468246Y-65258764D01*
X104476130Y-65263171D01*
X104487022Y-65269839D01*
X104501432Y-65279037D01*
X104506730Y-65282468D01*
X104557247Y-65318255D01*
X104604456Y-65357767D01*
X104648181Y-65400747D01*
X104688245Y-65446939D01*
X104724473Y-65496085D01*
X104756690Y-65547929D01*
X104784719Y-65602214D01*
X104808386Y-65658683D01*
X104827513Y-65717078D01*
X104840608Y-65770614D01*
X104844715Y-65791549D01*
X104847937Y-65810693D01*
X104850387Y-65829214D01*
X104852177Y-65848279D01*
X104853419Y-65869056D01*
X104854226Y-65892714D01*
X104854665Y-65916810D01*
X104854860Y-65935035D01*
X104854960Y-65951929D01*
X104854966Y-65966719D01*
X104854880Y-65978633D01*
X104854704Y-65986897D01*
X104854485Y-65990470D01*
X104853741Y-65996358D01*
X104852630Y-66005690D01*
X104851341Y-66016862D01*
X104850735Y-66022220D01*
X104842047Y-66077997D01*
X104828574Y-66133993D01*
X104810545Y-66189599D01*
X104788188Y-66244206D01*
X104761731Y-66297203D01*
X104731401Y-66347981D01*
X104725955Y-66356230D01*
X104705098Y-66386202D01*
X104684653Y-66412956D01*
X104663317Y-66438058D01*
X104639790Y-66463073D01*
X104624501Y-66478282D01*
X104577656Y-66520480D01*
X104528179Y-66558384D01*
X104476236Y-66591914D01*
X104421994Y-66620986D01*
X104365618Y-66645518D01*
X104307274Y-66665426D01*
X104247129Y-66680629D01*
X104201477Y-66688813D01*
X104192261Y-66690020D01*
X104179810Y-66691423D01*
X104165307Y-66692913D01*
X104149937Y-66694382D01*
X104134885Y-66695719D01*
X104121334Y-66696815D01*
X104110470Y-66697562D01*
X104103505Y-66697850D01*
X104103107Y-66695398D01*
X104102738Y-66688379D01*
X104102405Y-66677308D01*
X104102119Y-66662696D01*
X104101886Y-66645059D01*
X104101717Y-66624909D01*
X104101620Y-66602759D01*
X104101600Y-66586481D01*
X104101600Y-66475101D01*
X104135255Y-66473598D01*
X104184642Y-66468880D01*
X104233391Y-66459286D01*
X104281126Y-66445012D01*
X104327472Y-66426257D01*
X104372055Y-66403216D01*
X104414500Y-66376087D01*
X104454432Y-66345067D01*
X104491476Y-66310352D01*
X104525258Y-66272140D01*
X104530066Y-66266060D01*
X104558193Y-66225962D01*
X104582754Y-66182655D01*
X104603491Y-66136786D01*
X104620147Y-66089001D01*
X104632466Y-66039946D01*
X104640191Y-65990267D01*
X104640331Y-65988939D01*
X104641812Y-65967583D01*
X104642277Y-65942988D01*
X104641784Y-65916830D01*
X104640393Y-65890784D01*
X104638161Y-65866525D01*
X104635369Y-65846960D01*
X104623968Y-65796580D01*
X104608011Y-65747829D01*
X104587722Y-65701027D01*
X104563326Y-65656494D01*
X104535050Y-65614553D01*
X104503119Y-65575523D01*
X104467757Y-65539725D01*
X104429189Y-65507479D01*
X104387642Y-65479107D01*
X104369570Y-65468541D01*
X104361866Y-65464236D01*
X104356162Y-65461023D01*
X104353660Y-65459581D01*
X104353648Y-65459572D01*
X104354589Y-65457282D01*
X104357586Y-65451034D01*
X104362356Y-65441378D01*
X104368617Y-65428866D01*
X104376087Y-65414050D01*
X104384484Y-65397482D01*
X104393526Y-65379712D01*
X104402930Y-65361291D01*
X104412414Y-65342773D01*
X104421697Y-65324708D01*
X104430496Y-65307647D01*
X104438530Y-65292143D01*
X104445515Y-65278746D01*
X104451170Y-65268008D01*
X104455212Y-65260481D01*
X104457360Y-65256716D01*
X104457574Y-65256421D01*
X104459476Y-65255658D01*
X104462864Y-65256350D01*
G37*
X104462864Y-65256350D02*
X104468246Y-65258764D01*
X104476130Y-65263171D01*
X104487022Y-65269839D01*
X104501432Y-65279037D01*
X104506730Y-65282468D01*
X104557247Y-65318255D01*
X104604456Y-65357767D01*
X104648181Y-65400747D01*
X104688245Y-65446939D01*
X104724473Y-65496085D01*
X104756690Y-65547929D01*
X104784719Y-65602214D01*
X104808386Y-65658683D01*
X104827513Y-65717078D01*
X104840608Y-65770614D01*
X104844715Y-65791549D01*
X104847937Y-65810693D01*
X104850387Y-65829214D01*
X104852177Y-65848279D01*
X104853419Y-65869056D01*
X104854226Y-65892714D01*
X104854665Y-65916810D01*
X104854860Y-65935035D01*
X104854960Y-65951929D01*
X104854966Y-65966719D01*
X104854880Y-65978633D01*
X104854704Y-65986897D01*
X104854485Y-65990470D01*
X104853741Y-65996358D01*
X104852630Y-66005690D01*
X104851341Y-66016862D01*
X104850735Y-66022220D01*
X104842047Y-66077997D01*
X104828574Y-66133993D01*
X104810545Y-66189599D01*
X104788188Y-66244206D01*
X104761731Y-66297203D01*
X104731401Y-66347981D01*
X104725955Y-66356230D01*
X104705098Y-66386202D01*
X104684653Y-66412956D01*
X104663317Y-66438058D01*
X104639790Y-66463073D01*
X104624501Y-66478282D01*
X104577656Y-66520480D01*
X104528179Y-66558384D01*
X104476236Y-66591914D01*
X104421994Y-66620986D01*
X104365618Y-66645518D01*
X104307274Y-66665426D01*
X104247129Y-66680629D01*
X104201477Y-66688813D01*
X104192261Y-66690020D01*
X104179810Y-66691423D01*
X104165307Y-66692913D01*
X104149937Y-66694382D01*
X104134885Y-66695719D01*
X104121334Y-66696815D01*
X104110470Y-66697562D01*
X104103505Y-66697850D01*
X104103107Y-66695398D01*
X104102738Y-66688379D01*
X104102405Y-66677308D01*
X104102119Y-66662696D01*
X104101886Y-66645059D01*
X104101717Y-66624909D01*
X104101620Y-66602759D01*
X104101600Y-66586481D01*
X104101600Y-66475101D01*
X104135255Y-66473598D01*
X104184642Y-66468880D01*
X104233391Y-66459286D01*
X104281126Y-66445012D01*
X104327472Y-66426257D01*
X104372055Y-66403216D01*
X104414500Y-66376087D01*
X104454432Y-66345067D01*
X104491476Y-66310352D01*
X104525258Y-66272140D01*
X104530066Y-66266060D01*
X104558193Y-66225962D01*
X104582754Y-66182655D01*
X104603491Y-66136786D01*
X104620147Y-66089001D01*
X104632466Y-66039946D01*
X104640191Y-65990267D01*
X104640331Y-65988939D01*
X104641812Y-65967583D01*
X104642277Y-65942988D01*
X104641784Y-65916830D01*
X104640393Y-65890784D01*
X104638161Y-65866525D01*
X104635369Y-65846960D01*
X104623968Y-65796580D01*
X104608011Y-65747829D01*
X104587722Y-65701027D01*
X104563326Y-65656494D01*
X104535050Y-65614553D01*
X104503119Y-65575523D01*
X104467757Y-65539725D01*
X104429189Y-65507479D01*
X104387642Y-65479107D01*
X104369570Y-65468541D01*
X104361866Y-65464236D01*
X104356162Y-65461023D01*
X104353660Y-65459581D01*
X104353648Y-65459572D01*
X104354589Y-65457282D01*
X104357586Y-65451034D01*
X104362356Y-65441378D01*
X104368617Y-65428866D01*
X104376087Y-65414050D01*
X104384484Y-65397482D01*
X104393526Y-65379712D01*
X104402930Y-65361291D01*
X104412414Y-65342773D01*
X104421697Y-65324708D01*
X104430496Y-65307647D01*
X104438530Y-65292143D01*
X104445515Y-65278746D01*
X104451170Y-65268008D01*
X104455212Y-65260481D01*
X104457360Y-65256716D01*
X104457574Y-65256421D01*
X104459476Y-65255658D01*
X104462864Y-65256350D01*
G36*
X104853440Y-69791580D02*
G01*
X104629920Y-69791580D01*
X104629920Y-68643500D01*
X104853440Y-68643500D01*
X104853440Y-69791580D01*
G37*
X104853440Y-69791580D02*
X104629920Y-69791580D01*
X104629920Y-68643500D01*
X104853440Y-68643500D01*
X104853440Y-69791580D01*
G36*
X103387860Y-67972940D02*
G01*
X103700280Y-67972940D01*
X103700280Y-68196460D01*
X103166880Y-68196460D01*
X103166880Y-67099180D01*
X103387860Y-67099180D01*
X103387860Y-67972940D01*
G37*
X103387860Y-67972940D02*
X103700280Y-67972940D01*
X103700280Y-68196460D01*
X103166880Y-68196460D01*
X103166880Y-67099180D01*
X103387860Y-67099180D01*
X103387860Y-67972940D01*
G36*
X104853440Y-68191380D02*
G01*
X104629920Y-68191380D01*
X104629920Y-67099180D01*
X104853440Y-67099180D01*
X104853440Y-68191380D01*
G37*
X104853440Y-68191380D02*
X104629920Y-68191380D01*
X104629920Y-67099180D01*
X104853440Y-67099180D01*
X104853440Y-68191380D01*
G36*
X103395480Y-64950340D02*
G01*
X103174500Y-64950340D01*
X103174500Y-63581280D01*
X103395480Y-63581280D01*
X103395480Y-64950340D01*
G37*
X103395480Y-64950340D02*
X103174500Y-64950340D01*
X103174500Y-63581280D01*
X103395480Y-63581280D01*
X103395480Y-64950340D01*
G36*
X104452120Y-69791580D02*
G01*
X103177040Y-69791580D01*
X103177040Y-69570600D01*
X104452120Y-69570600D01*
X104452120Y-69791580D01*
G37*
X104452120Y-69791580D02*
X103177040Y-69791580D01*
X103177040Y-69570600D01*
X104452120Y-69570600D01*
X104452120Y-69791580D01*
G36*
X104845820Y-64381380D02*
G01*
X103563120Y-64381380D01*
X103563120Y-64160400D01*
X104845820Y-64160400D01*
X104845820Y-64381380D01*
G37*
X104845820Y-64381380D02*
X103563120Y-64381380D01*
X103563120Y-64160400D01*
X104845820Y-64160400D01*
X104845820Y-64381380D01*
G36*
X103747001Y-61861871D02*
G01*
X103753439Y-61865923D01*
X103762779Y-61872183D01*
X103774461Y-61880245D01*
X103787928Y-61889707D01*
X103802622Y-61900162D01*
X103817984Y-61911207D01*
X103833457Y-61922438D01*
X103848483Y-61933449D01*
X103862504Y-61943838D01*
X103874962Y-61953199D01*
X103885298Y-61961128D01*
X103892955Y-61967221D01*
X103897375Y-61971073D01*
X103898247Y-61972190D01*
X103896223Y-61973929D01*
X103890295Y-61978496D01*
X103880671Y-61985736D01*
X103867561Y-61995498D01*
X103851174Y-62007627D01*
X103831719Y-62021971D01*
X103809405Y-62038375D01*
X103784442Y-62056687D01*
X103757037Y-62076753D01*
X103727402Y-62098421D01*
X103695743Y-62121535D01*
X103662272Y-62145944D01*
X103627196Y-62171494D01*
X103590724Y-62198032D01*
X103553067Y-62225404D01*
X103541493Y-62233810D01*
X103503445Y-62261442D01*
X103466468Y-62288293D01*
X103430772Y-62314211D01*
X103396572Y-62339040D01*
X103364081Y-62362626D01*
X103333511Y-62384814D01*
X103305075Y-62405451D01*
X103278985Y-62424382D01*
X103255456Y-62441452D01*
X103234699Y-62456507D01*
X103216927Y-62469392D01*
X103202354Y-62479953D01*
X103191192Y-62488036D01*
X103183654Y-62493486D01*
X103179952Y-62496149D01*
X103179630Y-62496375D01*
X103178417Y-62497123D01*
X103177412Y-62497285D01*
X103176595Y-62496437D01*
X103175947Y-62494156D01*
X103175449Y-62490019D01*
X103175081Y-62483601D01*
X103174823Y-62474478D01*
X103174655Y-62462228D01*
X103174559Y-62446427D01*
X103174514Y-62426651D01*
X103174500Y-62402475D01*
X103174499Y-62385446D01*
X103174500Y-62271032D01*
X103457044Y-62065731D01*
X103490835Y-62041201D01*
X103523537Y-62017507D01*
X103554909Y-61994820D01*
X103584714Y-61973311D01*
X103612711Y-61953152D01*
X103638663Y-61934513D01*
X103662329Y-61917565D01*
X103683470Y-61902480D01*
X103701848Y-61889429D01*
X103717223Y-61878582D01*
X103729356Y-61870111D01*
X103738009Y-61864186D01*
X103742942Y-61860979D01*
X103744021Y-61860430D01*
X103747001Y-61861871D01*
G37*
X103747001Y-61861871D02*
X103753439Y-61865923D01*
X103762779Y-61872183D01*
X103774461Y-61880245D01*
X103787928Y-61889707D01*
X103802622Y-61900162D01*
X103817984Y-61911207D01*
X103833457Y-61922438D01*
X103848483Y-61933449D01*
X103862504Y-61943838D01*
X103874962Y-61953199D01*
X103885298Y-61961128D01*
X103892955Y-61967221D01*
X103897375Y-61971073D01*
X103898247Y-61972190D01*
X103896223Y-61973929D01*
X103890295Y-61978496D01*
X103880671Y-61985736D01*
X103867561Y-61995498D01*
X103851174Y-62007627D01*
X103831719Y-62021971D01*
X103809405Y-62038375D01*
X103784442Y-62056687D01*
X103757037Y-62076753D01*
X103727402Y-62098421D01*
X103695743Y-62121535D01*
X103662272Y-62145944D01*
X103627196Y-62171494D01*
X103590724Y-62198032D01*
X103553067Y-62225404D01*
X103541493Y-62233810D01*
X103503445Y-62261442D01*
X103466468Y-62288293D01*
X103430772Y-62314211D01*
X103396572Y-62339040D01*
X103364081Y-62362626D01*
X103333511Y-62384814D01*
X103305075Y-62405451D01*
X103278985Y-62424382D01*
X103255456Y-62441452D01*
X103234699Y-62456507D01*
X103216927Y-62469392D01*
X103202354Y-62479953D01*
X103191192Y-62488036D01*
X103183654Y-62493486D01*
X103179952Y-62496149D01*
X103179630Y-62496375D01*
X103178417Y-62497123D01*
X103177412Y-62497285D01*
X103176595Y-62496437D01*
X103175947Y-62494156D01*
X103175449Y-62490019D01*
X103175081Y-62483601D01*
X103174823Y-62474478D01*
X103174655Y-62462228D01*
X103174559Y-62446427D01*
X103174514Y-62426651D01*
X103174500Y-62402475D01*
X103174499Y-62385446D01*
X103174500Y-62271032D01*
X103457044Y-62065731D01*
X103490835Y-62041201D01*
X103523537Y-62017507D01*
X103554909Y-61994820D01*
X103584714Y-61973311D01*
X103612711Y-61953152D01*
X103638663Y-61934513D01*
X103662329Y-61917565D01*
X103683470Y-61902480D01*
X103701848Y-61889429D01*
X103717223Y-61878582D01*
X103729356Y-61870111D01*
X103738009Y-61864186D01*
X103742942Y-61860979D01*
X103744021Y-61860430D01*
X103747001Y-61861871D01*
G36*
X104845820Y-63134240D02*
G01*
X103174500Y-63134240D01*
X103174500Y-62913260D01*
X104845820Y-62913260D01*
X104845820Y-63134240D01*
G37*
X104845820Y-63134240D02*
X103174500Y-63134240D01*
X103174500Y-62913260D01*
X104845820Y-62913260D01*
X104845820Y-63134240D01*
G36*
X104109220Y-67972940D02*
G01*
X104452120Y-67972940D01*
X104452120Y-68193920D01*
X103885700Y-68193920D01*
X103885700Y-67213480D01*
X104109220Y-67213480D01*
X104109220Y-67972940D01*
G37*
X104109220Y-67972940D02*
X104452120Y-67972940D01*
X104452120Y-68193920D01*
X103885700Y-68193920D01*
X103885700Y-67213480D01*
X104109220Y-67213480D01*
X104109220Y-67972940D01*
G36*
X103548046Y-65292073D02*
G01*
X103549794Y-65294384D01*
X103553936Y-65300416D01*
X103560116Y-65309624D01*
X103567976Y-65321459D01*
X103577159Y-65335373D01*
X103587308Y-65350819D01*
X103598066Y-65367250D01*
X103609075Y-65384117D01*
X103619979Y-65400873D01*
X103630419Y-65416971D01*
X103640039Y-65431862D01*
X103648482Y-65445000D01*
X103655390Y-65455835D01*
X103660407Y-65463822D01*
X103663174Y-65468412D01*
X103663584Y-65469206D01*
X103662718Y-65472032D01*
X103658095Y-65476095D01*
X103649339Y-65481695D01*
X103643914Y-65484816D01*
X103616428Y-65501911D01*
X103588002Y-65522573D01*
X103559852Y-65545771D01*
X103533197Y-65570472D01*
X103509254Y-65595644D01*
X103499140Y-65607520D01*
X103469172Y-65648154D01*
X103443127Y-65691753D01*
X103421226Y-65737804D01*
X103403690Y-65785792D01*
X103390740Y-65835203D01*
X103383813Y-65875548D01*
X103381768Y-65897054D01*
X103380722Y-65921779D01*
X103380637Y-65948240D01*
X103381480Y-65974955D01*
X103383214Y-66000443D01*
X103385804Y-66023221D01*
X103387603Y-66034174D01*
X103399608Y-66084714D01*
X103416099Y-66133225D01*
X103436857Y-66179466D01*
X103461666Y-66223196D01*
X103490308Y-66264174D01*
X103522566Y-66302159D01*
X103558223Y-66336910D01*
X103597062Y-66368186D01*
X103638864Y-66395748D01*
X103683413Y-66419352D01*
X103730492Y-66438760D01*
X103761621Y-66448801D01*
X103806052Y-66459444D01*
X103852105Y-66466072D01*
X103890145Y-66468568D01*
X103931420Y-66469972D01*
X103931420Y-66690969D01*
X103886335Y-66689493D01*
X103826765Y-66685049D01*
X103768219Y-66675761D01*
X103710945Y-66661804D01*
X103655192Y-66643357D01*
X103601206Y-66620595D01*
X103549239Y-66593694D01*
X103499537Y-66562832D01*
X103452349Y-66528184D01*
X103407923Y-66489927D01*
X103366510Y-66448238D01*
X103328355Y-66403292D01*
X103293709Y-66355267D01*
X103262820Y-66304339D01*
X103235936Y-66250684D01*
X103222046Y-66217800D01*
X103203465Y-66164923D01*
X103188763Y-66110211D01*
X103177716Y-66052795D01*
X103175434Y-66037460D01*
X103173688Y-66021281D01*
X103172339Y-66001218D01*
X103171399Y-65978456D01*
X103170875Y-65954175D01*
X103170777Y-65929559D01*
X103171115Y-65905791D01*
X103171898Y-65884051D01*
X103173135Y-65865524D01*
X103174013Y-65857120D01*
X103184111Y-65795464D01*
X103198858Y-65735518D01*
X103218120Y-65677498D01*
X103241760Y-65621620D01*
X103269642Y-65568099D01*
X103301632Y-65517150D01*
X103337592Y-65468988D01*
X103377388Y-65423829D01*
X103420884Y-65381889D01*
X103467944Y-65343383D01*
X103518433Y-65308525D01*
X103520462Y-65307247D01*
X103530604Y-65301050D01*
X103539176Y-65296127D01*
X103545284Y-65292968D01*
X103548034Y-65292067D01*
X103548046Y-65292073D01*
G37*
X103548046Y-65292073D02*
X103549794Y-65294384D01*
X103553936Y-65300416D01*
X103560116Y-65309624D01*
X103567976Y-65321459D01*
X103577159Y-65335373D01*
X103587308Y-65350819D01*
X103598066Y-65367250D01*
X103609075Y-65384117D01*
X103619979Y-65400873D01*
X103630419Y-65416971D01*
X103640039Y-65431862D01*
X103648482Y-65445000D01*
X103655390Y-65455835D01*
X103660407Y-65463822D01*
X103663174Y-65468412D01*
X103663584Y-65469206D01*
X103662718Y-65472032D01*
X103658095Y-65476095D01*
X103649339Y-65481695D01*
X103643914Y-65484816D01*
X103616428Y-65501911D01*
X103588002Y-65522573D01*
X103559852Y-65545771D01*
X103533197Y-65570472D01*
X103509254Y-65595644D01*
X103499140Y-65607520D01*
X103469172Y-65648154D01*
X103443127Y-65691753D01*
X103421226Y-65737804D01*
X103403690Y-65785792D01*
X103390740Y-65835203D01*
X103383813Y-65875548D01*
X103381768Y-65897054D01*
X103380722Y-65921779D01*
X103380637Y-65948240D01*
X103381480Y-65974955D01*
X103383214Y-66000443D01*
X103385804Y-66023221D01*
X103387603Y-66034174D01*
X103399608Y-66084714D01*
X103416099Y-66133225D01*
X103436857Y-66179466D01*
X103461666Y-66223196D01*
X103490308Y-66264174D01*
X103522566Y-66302159D01*
X103558223Y-66336910D01*
X103597062Y-66368186D01*
X103638864Y-66395748D01*
X103683413Y-66419352D01*
X103730492Y-66438760D01*
X103761621Y-66448801D01*
X103806052Y-66459444D01*
X103852105Y-66466072D01*
X103890145Y-66468568D01*
X103931420Y-66469972D01*
X103931420Y-66690969D01*
X103886335Y-66689493D01*
X103826765Y-66685049D01*
X103768219Y-66675761D01*
X103710945Y-66661804D01*
X103655192Y-66643357D01*
X103601206Y-66620595D01*
X103549239Y-66593694D01*
X103499537Y-66562832D01*
X103452349Y-66528184D01*
X103407923Y-66489927D01*
X103366510Y-66448238D01*
X103328355Y-66403292D01*
X103293709Y-66355267D01*
X103262820Y-66304339D01*
X103235936Y-66250684D01*
X103222046Y-66217800D01*
X103203465Y-66164923D01*
X103188763Y-66110211D01*
X103177716Y-66052795D01*
X103175434Y-66037460D01*
X103173688Y-66021281D01*
X103172339Y-66001218D01*
X103171399Y-65978456D01*
X103170875Y-65954175D01*
X103170777Y-65929559D01*
X103171115Y-65905791D01*
X103171898Y-65884051D01*
X103173135Y-65865524D01*
X103174013Y-65857120D01*
X103184111Y-65795464D01*
X103198858Y-65735518D01*
X103218120Y-65677498D01*
X103241760Y-65621620D01*
X103269642Y-65568099D01*
X103301632Y-65517150D01*
X103337592Y-65468988D01*
X103377388Y-65423829D01*
X103420884Y-65381889D01*
X103467944Y-65343383D01*
X103518433Y-65308525D01*
X103520462Y-65307247D01*
X103530604Y-65301050D01*
X103539176Y-65296127D01*
X103545284Y-65292968D01*
X103548034Y-65292067D01*
X103548046Y-65292073D01*
G04 #@! TD*
D11*
G04 #@! TO.C,C2*
X101854000Y-75105500D03*
X101854000Y-73230500D03*
G04 #@! TD*
G04 #@! TO.C,C3*
X85800000Y-59437500D03*
X85800000Y-57562500D03*
G04 #@! TD*
D12*
G04 #@! TO.C,C4*
X100360000Y-87630000D03*
X102235000Y-87630000D03*
G04 #@! TD*
D13*
G04 #@! TO.C,C6*
X96520000Y-71518000D03*
X96520000Y-64118000D03*
G04 #@! TD*
D11*
G04 #@! TO.C,C7*
X89535000Y-81250000D03*
X89535000Y-79375000D03*
G04 #@! TD*
D14*
G04 #@! TO.C,D2*
X109220000Y-67460000D03*
X109220000Y-69035000D03*
G04 #@! TD*
D15*
G04 #@! TO.C,H1*
X83185000Y-49000000D03*
G04 #@! TD*
G04 #@! TO.C,H2*
X116000000Y-91000000D03*
G04 #@! TD*
G04 #@! TO.C,H4*
X74000000Y-91000000D03*
G04 #@! TD*
D16*
G04 #@! TO.C,J3*
X83185000Y-78105000D03*
D17*
X85725000Y-78105000D03*
X83185000Y-80645000D03*
X85725000Y-80645000D03*
X83185000Y-83185000D03*
X85725000Y-83185000D03*
G04 #@! TD*
D11*
G04 #@! TO.C,R1*
X89535000Y-85090000D03*
X89535000Y-83215000D03*
G04 #@! TD*
G04 #@! TO.C,R2*
X109220000Y-65375000D03*
X109220000Y-63500000D03*
G04 #@! TD*
D18*
G04 #@! TO.C,U2*
X98165000Y-85530000D03*
X98965000Y-85530000D03*
X99765000Y-85530000D03*
X100565000Y-85530000D03*
X101365000Y-85530000D03*
X102165000Y-85530000D03*
X102965000Y-85530000D03*
X103765000Y-85530000D03*
D19*
X105215000Y-84080000D03*
X105215000Y-83280000D03*
X105215000Y-82480000D03*
X105215000Y-81680000D03*
X105215000Y-80880000D03*
X105215000Y-80080000D03*
X105215000Y-79280000D03*
X105215000Y-78480000D03*
D18*
X103765000Y-77030000D03*
X102965000Y-77030000D03*
X102165000Y-77030000D03*
X101365000Y-77030000D03*
X100565000Y-77030000D03*
X99765000Y-77030000D03*
X98965000Y-77030000D03*
X98165000Y-77030000D03*
D19*
X96715000Y-78480000D03*
X96715000Y-79280000D03*
X96715000Y-80080000D03*
X96715000Y-80880000D03*
X96715000Y-81680000D03*
X96715000Y-82480000D03*
X96715000Y-83280000D03*
X96715000Y-84080000D03*
G04 #@! TD*
D20*
G04 #@! TO.C,J1*
X95885000Y-49530000D03*
D21*
X90805000Y-49530000D03*
G04 #@! TD*
D22*
G04 #@! TO.C,J4*
X74295000Y-48260000D03*
D21*
X74295000Y-53340000D03*
G04 #@! TD*
D22*
G04 #@! TO.C,J5*
X74295000Y-58420000D03*
D21*
X74295000Y-63500000D03*
G04 #@! TD*
D22*
G04 #@! TO.C,J6*
X74295000Y-68580000D03*
D21*
X74295000Y-73660000D03*
G04 #@! TD*
D22*
G04 #@! TO.C,J7*
X74295000Y-78740000D03*
D21*
X74295000Y-83820000D03*
G04 #@! TD*
D23*
G04 #@! TO.C,J8*
X115570000Y-53340000D03*
D21*
X115570000Y-48260000D03*
G04 #@! TD*
D23*
G04 #@! TO.C,J9*
X115570000Y-63500000D03*
D21*
X115570000Y-58420000D03*
G04 #@! TD*
D23*
G04 #@! TO.C,J10*
X115570000Y-73660000D03*
D21*
X115570000Y-68580000D03*
G04 #@! TD*
D24*
G04 #@! TO.C,J12*
X81915000Y-90805000D03*
D21*
X86995000Y-90805000D03*
G04 #@! TD*
D25*
G04 #@! TO.C,RV1*
X103600000Y-56400000D03*
D26*
X106850000Y-57400000D03*
D25*
X103600000Y-58400000D03*
G04 #@! TD*
D11*
G04 #@! TO.C,R3*
X89535000Y-77391500D03*
X89535000Y-75516500D03*
G04 #@! TD*
D23*
G04 #@! TO.C,J11*
X115570000Y-83820000D03*
D21*
X115570000Y-78740000D03*
G04 #@! TD*
D27*
G04 #@! TO.C,J2*
X101600000Y-49276000D03*
D28*
X105410000Y-49276000D03*
X109220000Y-49276000D03*
G04 #@! TD*
D29*
G04 #@! TO.C,C5*
X91375000Y-69100000D03*
X89500000Y-69100000D03*
G04 #@! TD*
D30*
G04 #@! TO.C,D3*
X84100000Y-73300000D03*
X80100000Y-73300000D03*
G04 #@! TD*
D20*
G04 #@! TO.C,L1*
X86900000Y-67800000D03*
X79100000Y-67800000D03*
G04 #@! TD*
D29*
G04 #@! TO.C,R4*
X91375000Y-67100000D03*
X89500000Y-67100000D03*
G04 #@! TD*
D12*
G04 #@! TO.C,R5*
X89462500Y-65100000D03*
X91337500Y-65100000D03*
G04 #@! TD*
D31*
G04 #@! TO.C,U1*
X80095000Y-61537500D03*
X81365000Y-61537500D03*
X82635000Y-61537500D03*
X83905000Y-61537500D03*
X83905000Y-56462500D03*
X82635000Y-56462500D03*
X81365000Y-56462500D03*
X80095000Y-56462500D03*
G04 #@! TD*
D32*
G04 #@! TO.C,C1*
X90400000Y-61200000D03*
X90400000Y-55800000D03*
G04 #@! TD*
D11*
G04 #@! TO.C,C8*
X99314000Y-75105500D03*
X99314000Y-73230500D03*
G04 #@! TD*
D33*
G04 #@! TO.C,D1*
X95480000Y-60825000D03*
X98020000Y-60825000D03*
X98020000Y-54675000D03*
X95480000Y-54675000D03*
G04 #@! TD*
D16*
G04 #@! TO.C,J14*
X91970000Y-74910000D03*
D17*
X91970000Y-77450000D03*
X91970000Y-79990000D03*
X91970000Y-82530000D03*
X91970000Y-85070000D03*
X91970000Y-87610000D03*
X91970000Y-90150000D03*
X91970000Y-92690000D03*
G04 #@! TD*
D16*
G04 #@! TO.C,J13*
X109960000Y-74930000D03*
D17*
X109960000Y-77470000D03*
X109960000Y-80010000D03*
X109960000Y-82550000D03*
X109960000Y-85090000D03*
X109960000Y-87630000D03*
X109960000Y-90170000D03*
X109960000Y-92710000D03*
G04 #@! TD*
G36*
X101680660Y-84697493D02*
G01*
X101694452Y-84706709D01*
X101695615Y-84704969D01*
X101697409Y-84704084D01*
X101698560Y-84704545D01*
X101715952Y-84719078D01*
X101784670Y-84727704D01*
X101832288Y-84704918D01*
X101834282Y-84705072D01*
X101834814Y-84705611D01*
X101835548Y-84706709D01*
X101849340Y-84697493D01*
X101851336Y-84697362D01*
X101852447Y-84699025D01*
X101852114Y-84700267D01*
X101844767Y-84711262D01*
X101841000Y-84730199D01*
X101841000Y-86329801D01*
X101844767Y-86348738D01*
X101852114Y-86359733D01*
X101852245Y-86361729D01*
X101850582Y-86362840D01*
X101849340Y-86362507D01*
X101835548Y-86353291D01*
X101834385Y-86355031D01*
X101832591Y-86355916D01*
X101831440Y-86355455D01*
X101814048Y-86340922D01*
X101745330Y-86332296D01*
X101697712Y-86355082D01*
X101695718Y-86354928D01*
X101695186Y-86354389D01*
X101694452Y-86353291D01*
X101680660Y-86362507D01*
X101678664Y-86362638D01*
X101677553Y-86360975D01*
X101677886Y-86359733D01*
X101685233Y-86348738D01*
X101689000Y-86329801D01*
X101689000Y-84730199D01*
X101685233Y-84711262D01*
X101677886Y-84700267D01*
X101677755Y-84698271D01*
X101679418Y-84697160D01*
X101680660Y-84697493D01*
G37*
G36*
X102480660Y-84697493D02*
G01*
X102494452Y-84706709D01*
X102495615Y-84704969D01*
X102497409Y-84704084D01*
X102498560Y-84704545D01*
X102515952Y-84719078D01*
X102584670Y-84727704D01*
X102632288Y-84704918D01*
X102634282Y-84705072D01*
X102634814Y-84705611D01*
X102635548Y-84706709D01*
X102649340Y-84697493D01*
X102651336Y-84697362D01*
X102652447Y-84699025D01*
X102652114Y-84700267D01*
X102644767Y-84711262D01*
X102641000Y-84730199D01*
X102641000Y-86329801D01*
X102644767Y-86348738D01*
X102652114Y-86359733D01*
X102652245Y-86361729D01*
X102650582Y-86362840D01*
X102649340Y-86362507D01*
X102635548Y-86353291D01*
X102634385Y-86355031D01*
X102632591Y-86355916D01*
X102631440Y-86355455D01*
X102614048Y-86340922D01*
X102545330Y-86332296D01*
X102497712Y-86355082D01*
X102495718Y-86354928D01*
X102495186Y-86354389D01*
X102494452Y-86353291D01*
X102480660Y-86362507D01*
X102478664Y-86362638D01*
X102477553Y-86360975D01*
X102477886Y-86359733D01*
X102485233Y-86348738D01*
X102489000Y-86329801D01*
X102489000Y-84730199D01*
X102485233Y-84711262D01*
X102477886Y-84700267D01*
X102477755Y-84698271D01*
X102479418Y-84697160D01*
X102480660Y-84697493D01*
G37*
G36*
X100880660Y-84697493D02*
G01*
X100894452Y-84706709D01*
X100895615Y-84704969D01*
X100897409Y-84704084D01*
X100898560Y-84704545D01*
X100915952Y-84719078D01*
X100984670Y-84727704D01*
X101032288Y-84704918D01*
X101034282Y-84705072D01*
X101034814Y-84705611D01*
X101035548Y-84706709D01*
X101049340Y-84697493D01*
X101051336Y-84697362D01*
X101052447Y-84699025D01*
X101052114Y-84700267D01*
X101044767Y-84711262D01*
X101041000Y-84730199D01*
X101041000Y-86329801D01*
X101044767Y-86348738D01*
X101052114Y-86359733D01*
X101052245Y-86361729D01*
X101050582Y-86362840D01*
X101049340Y-86362507D01*
X101035548Y-86353291D01*
X101034385Y-86355031D01*
X101032591Y-86355916D01*
X101031440Y-86355455D01*
X101014048Y-86340922D01*
X100945330Y-86332296D01*
X100897712Y-86355082D01*
X100895718Y-86354928D01*
X100895186Y-86354389D01*
X100894452Y-86353291D01*
X100880660Y-86362507D01*
X100878664Y-86362638D01*
X100877553Y-86360975D01*
X100877886Y-86359733D01*
X100885233Y-86348738D01*
X100889000Y-86329801D01*
X100889000Y-84730199D01*
X100885233Y-84711262D01*
X100877886Y-84700267D01*
X100877755Y-84698271D01*
X100879418Y-84697160D01*
X100880660Y-84697493D01*
G37*
G36*
X98480660Y-84697493D02*
G01*
X98494452Y-84706709D01*
X98495615Y-84704969D01*
X98497409Y-84704084D01*
X98498560Y-84704545D01*
X98515952Y-84719078D01*
X98584670Y-84727704D01*
X98632288Y-84704918D01*
X98634282Y-84705072D01*
X98634814Y-84705611D01*
X98635548Y-84706709D01*
X98649340Y-84697493D01*
X98651336Y-84697362D01*
X98652447Y-84699025D01*
X98652114Y-84700267D01*
X98644767Y-84711262D01*
X98641000Y-84730199D01*
X98641000Y-86329801D01*
X98644767Y-86348738D01*
X98652114Y-86359733D01*
X98652245Y-86361729D01*
X98650582Y-86362840D01*
X98649340Y-86362507D01*
X98635548Y-86353291D01*
X98634385Y-86355031D01*
X98632591Y-86355916D01*
X98631440Y-86355455D01*
X98614048Y-86340922D01*
X98545330Y-86332296D01*
X98497712Y-86355082D01*
X98495718Y-86354928D01*
X98495186Y-86354389D01*
X98494452Y-86353291D01*
X98480660Y-86362507D01*
X98478664Y-86362638D01*
X98477553Y-86360975D01*
X98477886Y-86359733D01*
X98485233Y-86348738D01*
X98489000Y-86329801D01*
X98489000Y-84730199D01*
X98485233Y-84711262D01*
X98477886Y-84700267D01*
X98477755Y-84698271D01*
X98479418Y-84697160D01*
X98480660Y-84697493D01*
G37*
G36*
X100080660Y-84697493D02*
G01*
X100094452Y-84706709D01*
X100095615Y-84704969D01*
X100097409Y-84704084D01*
X100098560Y-84704545D01*
X100115952Y-84719078D01*
X100184670Y-84727704D01*
X100232288Y-84704918D01*
X100234282Y-84705072D01*
X100234814Y-84705611D01*
X100235548Y-84706709D01*
X100249340Y-84697493D01*
X100251336Y-84697362D01*
X100252447Y-84699025D01*
X100252114Y-84700267D01*
X100244767Y-84711262D01*
X100241000Y-84730199D01*
X100241000Y-86329801D01*
X100244767Y-86348738D01*
X100252114Y-86359733D01*
X100252245Y-86361729D01*
X100250582Y-86362840D01*
X100249340Y-86362507D01*
X100235548Y-86353291D01*
X100234385Y-86355031D01*
X100232591Y-86355916D01*
X100231440Y-86355455D01*
X100214048Y-86340922D01*
X100145330Y-86332296D01*
X100097712Y-86355082D01*
X100095718Y-86354928D01*
X100095186Y-86354389D01*
X100094452Y-86353291D01*
X100080660Y-86362507D01*
X100078664Y-86362638D01*
X100077553Y-86360975D01*
X100077886Y-86359733D01*
X100085233Y-86348738D01*
X100089000Y-86329801D01*
X100089000Y-84730199D01*
X100085233Y-84711262D01*
X100077886Y-84700267D01*
X100077755Y-84698271D01*
X100079418Y-84697160D01*
X100080660Y-84697493D01*
G37*
G36*
X103280660Y-84697493D02*
G01*
X103294452Y-84706709D01*
X103295615Y-84704969D01*
X103297409Y-84704084D01*
X103298560Y-84704545D01*
X103315952Y-84719078D01*
X103384670Y-84727704D01*
X103432288Y-84704918D01*
X103434282Y-84705072D01*
X103434814Y-84705611D01*
X103435548Y-84706709D01*
X103449340Y-84697493D01*
X103451336Y-84697362D01*
X103452447Y-84699025D01*
X103452114Y-84700267D01*
X103444767Y-84711262D01*
X103441000Y-84730199D01*
X103441000Y-86329801D01*
X103444767Y-86348738D01*
X103452114Y-86359733D01*
X103452245Y-86361729D01*
X103450582Y-86362840D01*
X103449340Y-86362507D01*
X103435548Y-86353291D01*
X103434385Y-86355031D01*
X103432591Y-86355916D01*
X103431440Y-86355455D01*
X103414048Y-86340922D01*
X103345330Y-86332296D01*
X103297712Y-86355082D01*
X103295718Y-86354928D01*
X103295186Y-86354389D01*
X103294452Y-86353291D01*
X103280660Y-86362507D01*
X103278664Y-86362638D01*
X103277553Y-86360975D01*
X103277886Y-86359733D01*
X103285233Y-86348738D01*
X103289000Y-86329801D01*
X103289000Y-84730199D01*
X103285233Y-84711262D01*
X103277886Y-84700267D01*
X103277755Y-84698271D01*
X103279418Y-84697160D01*
X103280660Y-84697493D01*
G37*
G36*
X99280660Y-84697493D02*
G01*
X99294452Y-84706709D01*
X99295615Y-84704969D01*
X99297409Y-84704084D01*
X99298560Y-84704545D01*
X99315952Y-84719078D01*
X99384670Y-84727704D01*
X99432288Y-84704918D01*
X99434282Y-84705072D01*
X99434814Y-84705611D01*
X99435548Y-84706709D01*
X99449340Y-84697493D01*
X99451336Y-84697362D01*
X99452447Y-84699025D01*
X99452114Y-84700267D01*
X99444767Y-84711262D01*
X99441000Y-84730199D01*
X99441000Y-86329801D01*
X99444767Y-86348738D01*
X99452114Y-86359733D01*
X99452245Y-86361729D01*
X99450582Y-86362840D01*
X99449340Y-86362507D01*
X99435548Y-86353291D01*
X99434385Y-86355031D01*
X99432591Y-86355916D01*
X99431440Y-86355455D01*
X99414048Y-86340922D01*
X99345330Y-86332296D01*
X99297712Y-86355082D01*
X99295718Y-86354928D01*
X99295186Y-86354389D01*
X99294452Y-86353291D01*
X99280660Y-86362507D01*
X99278664Y-86362638D01*
X99277553Y-86360975D01*
X99277886Y-86359733D01*
X99285233Y-86348738D01*
X99289000Y-86329801D01*
X99289000Y-84730199D01*
X99285233Y-84711262D01*
X99277886Y-84700267D01*
X99277755Y-84698271D01*
X99279418Y-84697160D01*
X99280660Y-84697493D01*
G37*
G36*
X104385267Y-83592886D02*
G01*
X104396262Y-83600233D01*
X104415199Y-83604000D01*
X106014801Y-83604000D01*
X106033738Y-83600233D01*
X106044733Y-83592886D01*
X106046729Y-83592755D01*
X106047840Y-83594418D01*
X106047507Y-83595660D01*
X106038291Y-83609452D01*
X106040031Y-83610615D01*
X106040916Y-83612409D01*
X106040455Y-83613560D01*
X106025922Y-83630952D01*
X106017296Y-83699670D01*
X106040082Y-83747288D01*
X106039928Y-83749282D01*
X106039389Y-83749814D01*
X106038291Y-83750548D01*
X106047507Y-83764340D01*
X106047638Y-83766336D01*
X106045975Y-83767447D01*
X106044733Y-83767114D01*
X106033738Y-83759767D01*
X106014801Y-83756000D01*
X104415199Y-83756000D01*
X104396262Y-83759767D01*
X104385267Y-83767114D01*
X104383271Y-83767245D01*
X104382160Y-83765582D01*
X104382493Y-83764340D01*
X104391709Y-83750548D01*
X104389969Y-83749385D01*
X104389084Y-83747591D01*
X104389545Y-83746440D01*
X104404078Y-83729048D01*
X104412704Y-83660330D01*
X104389918Y-83612712D01*
X104390072Y-83610718D01*
X104390611Y-83610186D01*
X104391709Y-83609452D01*
X104382493Y-83595660D01*
X104382362Y-83593664D01*
X104384025Y-83592553D01*
X104385267Y-83592886D01*
G37*
G36*
X95885267Y-83592886D02*
G01*
X95896262Y-83600233D01*
X95915199Y-83604000D01*
X97514801Y-83604000D01*
X97533738Y-83600233D01*
X97544733Y-83592886D01*
X97546729Y-83592755D01*
X97547840Y-83594418D01*
X97547507Y-83595660D01*
X97538291Y-83609452D01*
X97540031Y-83610615D01*
X97540916Y-83612409D01*
X97540455Y-83613560D01*
X97525922Y-83630952D01*
X97517296Y-83699670D01*
X97540082Y-83747288D01*
X97539928Y-83749282D01*
X97539389Y-83749814D01*
X97538291Y-83750548D01*
X97547507Y-83764340D01*
X97547638Y-83766336D01*
X97545975Y-83767447D01*
X97544733Y-83767114D01*
X97533738Y-83759767D01*
X97514801Y-83756000D01*
X95915199Y-83756000D01*
X95896262Y-83759767D01*
X95885267Y-83767114D01*
X95883271Y-83767245D01*
X95882160Y-83765582D01*
X95882493Y-83764340D01*
X95891709Y-83750548D01*
X95889969Y-83749385D01*
X95889084Y-83747591D01*
X95889545Y-83746440D01*
X95904078Y-83729048D01*
X95912704Y-83660330D01*
X95889918Y-83612712D01*
X95890072Y-83610718D01*
X95890611Y-83610186D01*
X95891709Y-83609452D01*
X95882493Y-83595660D01*
X95882362Y-83593664D01*
X95884025Y-83592553D01*
X95885267Y-83592886D01*
G37*
G36*
X95885267Y-82792886D02*
G01*
X95896262Y-82800233D01*
X95915199Y-82804000D01*
X97514801Y-82804000D01*
X97533738Y-82800233D01*
X97544733Y-82792886D01*
X97546729Y-82792755D01*
X97547840Y-82794418D01*
X97547507Y-82795660D01*
X97538291Y-82809452D01*
X97540031Y-82810615D01*
X97540916Y-82812409D01*
X97540455Y-82813560D01*
X97525922Y-82830952D01*
X97517296Y-82899670D01*
X97540082Y-82947288D01*
X97539928Y-82949282D01*
X97539389Y-82949814D01*
X97538291Y-82950548D01*
X97547507Y-82964340D01*
X97547638Y-82966336D01*
X97545975Y-82967447D01*
X97544733Y-82967114D01*
X97533738Y-82959767D01*
X97514801Y-82956000D01*
X95915199Y-82956000D01*
X95896262Y-82959767D01*
X95885267Y-82967114D01*
X95883271Y-82967245D01*
X95882160Y-82965582D01*
X95882493Y-82964340D01*
X95891709Y-82950548D01*
X95889969Y-82949385D01*
X95889084Y-82947591D01*
X95889545Y-82946440D01*
X95904078Y-82929048D01*
X95912704Y-82860330D01*
X95889918Y-82812712D01*
X95890072Y-82810718D01*
X95890611Y-82810186D01*
X95891709Y-82809452D01*
X95882493Y-82795660D01*
X95882362Y-82793664D01*
X95884025Y-82792553D01*
X95885267Y-82792886D01*
G37*
G36*
X104385267Y-82792886D02*
G01*
X104396262Y-82800233D01*
X104415199Y-82804000D01*
X106014801Y-82804000D01*
X106033738Y-82800233D01*
X106044733Y-82792886D01*
X106046729Y-82792755D01*
X106047840Y-82794418D01*
X106047507Y-82795660D01*
X106038291Y-82809452D01*
X106040031Y-82810615D01*
X106040916Y-82812409D01*
X106040455Y-82813560D01*
X106025922Y-82830952D01*
X106017296Y-82899670D01*
X106040082Y-82947288D01*
X106039928Y-82949282D01*
X106039389Y-82949814D01*
X106038291Y-82950548D01*
X106047507Y-82964340D01*
X106047638Y-82966336D01*
X106045975Y-82967447D01*
X106044733Y-82967114D01*
X106033738Y-82959767D01*
X106014801Y-82956000D01*
X104415199Y-82956000D01*
X104396262Y-82959767D01*
X104385267Y-82967114D01*
X104383271Y-82967245D01*
X104382160Y-82965582D01*
X104382493Y-82964340D01*
X104391709Y-82950548D01*
X104389969Y-82949385D01*
X104389084Y-82947591D01*
X104389545Y-82946440D01*
X104404078Y-82929048D01*
X104412704Y-82860330D01*
X104389918Y-82812712D01*
X104390072Y-82810718D01*
X104390611Y-82810186D01*
X104391709Y-82809452D01*
X104382493Y-82795660D01*
X104382362Y-82793664D01*
X104384025Y-82792553D01*
X104385267Y-82792886D01*
G37*
G36*
X95885267Y-81992886D02*
G01*
X95896262Y-82000233D01*
X95915199Y-82004000D01*
X97514801Y-82004000D01*
X97533738Y-82000233D01*
X97544733Y-81992886D01*
X97546729Y-81992755D01*
X97547840Y-81994418D01*
X97547507Y-81995660D01*
X97538291Y-82009452D01*
X97540031Y-82010615D01*
X97540916Y-82012409D01*
X97540455Y-82013560D01*
X97525922Y-82030952D01*
X97517296Y-82099670D01*
X97540082Y-82147288D01*
X97539928Y-82149282D01*
X97539389Y-82149814D01*
X97538291Y-82150548D01*
X97547507Y-82164340D01*
X97547638Y-82166336D01*
X97545975Y-82167447D01*
X97544733Y-82167114D01*
X97533738Y-82159767D01*
X97514801Y-82156000D01*
X95915199Y-82156000D01*
X95896262Y-82159767D01*
X95885267Y-82167114D01*
X95883271Y-82167245D01*
X95882160Y-82165582D01*
X95882493Y-82164340D01*
X95891709Y-82150548D01*
X95889969Y-82149385D01*
X95889084Y-82147591D01*
X95889545Y-82146440D01*
X95904078Y-82129048D01*
X95912704Y-82060330D01*
X95889918Y-82012712D01*
X95890072Y-82010718D01*
X95890611Y-82010186D01*
X95891709Y-82009452D01*
X95882493Y-81995660D01*
X95882362Y-81993664D01*
X95884025Y-81992553D01*
X95885267Y-81992886D01*
G37*
G36*
X104385267Y-81992886D02*
G01*
X104396262Y-82000233D01*
X104415199Y-82004000D01*
X106014801Y-82004000D01*
X106033738Y-82000233D01*
X106044733Y-81992886D01*
X106046729Y-81992755D01*
X106047840Y-81994418D01*
X106047507Y-81995660D01*
X106038291Y-82009452D01*
X106040031Y-82010615D01*
X106040916Y-82012409D01*
X106040455Y-82013560D01*
X106025922Y-82030952D01*
X106017296Y-82099670D01*
X106040082Y-82147288D01*
X106039928Y-82149282D01*
X106039389Y-82149814D01*
X106038291Y-82150548D01*
X106047507Y-82164340D01*
X106047638Y-82166336D01*
X106045975Y-82167447D01*
X106044733Y-82167114D01*
X106033738Y-82159767D01*
X106014801Y-82156000D01*
X104415199Y-82156000D01*
X104396262Y-82159767D01*
X104385267Y-82167114D01*
X104383271Y-82167245D01*
X104382160Y-82165582D01*
X104382493Y-82164340D01*
X104391709Y-82150548D01*
X104389969Y-82149385D01*
X104389084Y-82147591D01*
X104389545Y-82146440D01*
X104404078Y-82129048D01*
X104412704Y-82060330D01*
X104389918Y-82012712D01*
X104390072Y-82010718D01*
X104390611Y-82010186D01*
X104391709Y-82009452D01*
X104382493Y-81995660D01*
X104382362Y-81993664D01*
X104384025Y-81992553D01*
X104385267Y-81992886D01*
G37*
G36*
X104385267Y-81192886D02*
G01*
X104396262Y-81200233D01*
X104415199Y-81204000D01*
X106014801Y-81204000D01*
X106033738Y-81200233D01*
X106044733Y-81192886D01*
X106046729Y-81192755D01*
X106047840Y-81194418D01*
X106047507Y-81195660D01*
X106038291Y-81209452D01*
X106040031Y-81210615D01*
X106040916Y-81212409D01*
X106040455Y-81213560D01*
X106025922Y-81230952D01*
X106017296Y-81299670D01*
X106040082Y-81347288D01*
X106039928Y-81349282D01*
X106039389Y-81349814D01*
X106038291Y-81350548D01*
X106047507Y-81364340D01*
X106047638Y-81366336D01*
X106045975Y-81367447D01*
X106044733Y-81367114D01*
X106033738Y-81359767D01*
X106014801Y-81356000D01*
X104415199Y-81356000D01*
X104396262Y-81359767D01*
X104385267Y-81367114D01*
X104383271Y-81367245D01*
X104382160Y-81365582D01*
X104382493Y-81364340D01*
X104391709Y-81350548D01*
X104389969Y-81349385D01*
X104389084Y-81347591D01*
X104389545Y-81346440D01*
X104404078Y-81329048D01*
X104412704Y-81260330D01*
X104389918Y-81212712D01*
X104390072Y-81210718D01*
X104390611Y-81210186D01*
X104391709Y-81209452D01*
X104382493Y-81195660D01*
X104382362Y-81193664D01*
X104384025Y-81192553D01*
X104385267Y-81192886D01*
G37*
G36*
X95885267Y-81192886D02*
G01*
X95896262Y-81200233D01*
X95915199Y-81204000D01*
X97514801Y-81204000D01*
X97533738Y-81200233D01*
X97544733Y-81192886D01*
X97546729Y-81192755D01*
X97547840Y-81194418D01*
X97547507Y-81195660D01*
X97538291Y-81209452D01*
X97540031Y-81210615D01*
X97540916Y-81212409D01*
X97540455Y-81213560D01*
X97525922Y-81230952D01*
X97517296Y-81299670D01*
X97540082Y-81347288D01*
X97539928Y-81349282D01*
X97539389Y-81349814D01*
X97538291Y-81350548D01*
X97547507Y-81364340D01*
X97547638Y-81366336D01*
X97545975Y-81367447D01*
X97544733Y-81367114D01*
X97533738Y-81359767D01*
X97514801Y-81356000D01*
X95915199Y-81356000D01*
X95896262Y-81359767D01*
X95885267Y-81367114D01*
X95883271Y-81367245D01*
X95882160Y-81365582D01*
X95882493Y-81364340D01*
X95891709Y-81350548D01*
X95889969Y-81349385D01*
X95889084Y-81347591D01*
X95889545Y-81346440D01*
X95904078Y-81329048D01*
X95912704Y-81260330D01*
X95889918Y-81212712D01*
X95890072Y-81210718D01*
X95890611Y-81210186D01*
X95891709Y-81209452D01*
X95882493Y-81195660D01*
X95882362Y-81193664D01*
X95884025Y-81192553D01*
X95885267Y-81192886D01*
G37*
G36*
X95885267Y-80392886D02*
G01*
X95896262Y-80400233D01*
X95915199Y-80404000D01*
X97514801Y-80404000D01*
X97533738Y-80400233D01*
X97544733Y-80392886D01*
X97546729Y-80392755D01*
X97547840Y-80394418D01*
X97547507Y-80395660D01*
X97538291Y-80409452D01*
X97540031Y-80410615D01*
X97540916Y-80412409D01*
X97540455Y-80413560D01*
X97525922Y-80430952D01*
X97517296Y-80499670D01*
X97540082Y-80547288D01*
X97539928Y-80549282D01*
X97539389Y-80549814D01*
X97538291Y-80550548D01*
X97547507Y-80564340D01*
X97547638Y-80566336D01*
X97545975Y-80567447D01*
X97544733Y-80567114D01*
X97533738Y-80559767D01*
X97514801Y-80556000D01*
X95915199Y-80556000D01*
X95896262Y-80559767D01*
X95885267Y-80567114D01*
X95883271Y-80567245D01*
X95882160Y-80565582D01*
X95882493Y-80564340D01*
X95891709Y-80550548D01*
X95889969Y-80549385D01*
X95889084Y-80547591D01*
X95889545Y-80546440D01*
X95904078Y-80529048D01*
X95912704Y-80460330D01*
X95889918Y-80412712D01*
X95890072Y-80410718D01*
X95890611Y-80410186D01*
X95891709Y-80409452D01*
X95882493Y-80395660D01*
X95882362Y-80393664D01*
X95884025Y-80392553D01*
X95885267Y-80392886D01*
G37*
G36*
X104385267Y-80392886D02*
G01*
X104396262Y-80400233D01*
X104415199Y-80404000D01*
X106014801Y-80404000D01*
X106033738Y-80400233D01*
X106044733Y-80392886D01*
X106046729Y-80392755D01*
X106047840Y-80394418D01*
X106047507Y-80395660D01*
X106038291Y-80409452D01*
X106040031Y-80410615D01*
X106040916Y-80412409D01*
X106040455Y-80413560D01*
X106025922Y-80430952D01*
X106017296Y-80499670D01*
X106040082Y-80547288D01*
X106039928Y-80549282D01*
X106039389Y-80549814D01*
X106038291Y-80550548D01*
X106047507Y-80564340D01*
X106047638Y-80566336D01*
X106045975Y-80567447D01*
X106044733Y-80567114D01*
X106033738Y-80559767D01*
X106014801Y-80556000D01*
X104415199Y-80556000D01*
X104396262Y-80559767D01*
X104385267Y-80567114D01*
X104383271Y-80567245D01*
X104382160Y-80565582D01*
X104382493Y-80564340D01*
X104391709Y-80550548D01*
X104389969Y-80549385D01*
X104389084Y-80547591D01*
X104389545Y-80546440D01*
X104404078Y-80529048D01*
X104412704Y-80460330D01*
X104389918Y-80412712D01*
X104390072Y-80410718D01*
X104390611Y-80410186D01*
X104391709Y-80409452D01*
X104382493Y-80395660D01*
X104382362Y-80393664D01*
X104384025Y-80392553D01*
X104385267Y-80392886D01*
G37*
G36*
X104385267Y-79592886D02*
G01*
X104396262Y-79600233D01*
X104415199Y-79604000D01*
X106014801Y-79604000D01*
X106033738Y-79600233D01*
X106044733Y-79592886D01*
X106046729Y-79592755D01*
X106047840Y-79594418D01*
X106047507Y-79595660D01*
X106038291Y-79609452D01*
X106040031Y-79610615D01*
X106040916Y-79612409D01*
X106040455Y-79613560D01*
X106025922Y-79630952D01*
X106017296Y-79699670D01*
X106040082Y-79747288D01*
X106039928Y-79749282D01*
X106039389Y-79749814D01*
X106038291Y-79750548D01*
X106047507Y-79764340D01*
X106047638Y-79766336D01*
X106045975Y-79767447D01*
X106044733Y-79767114D01*
X106033738Y-79759767D01*
X106014801Y-79756000D01*
X104415199Y-79756000D01*
X104396262Y-79759767D01*
X104385267Y-79767114D01*
X104383271Y-79767245D01*
X104382160Y-79765582D01*
X104382493Y-79764340D01*
X104391709Y-79750548D01*
X104389969Y-79749385D01*
X104389084Y-79747591D01*
X104389545Y-79746440D01*
X104404078Y-79729048D01*
X104412704Y-79660330D01*
X104389918Y-79612712D01*
X104390072Y-79610718D01*
X104390611Y-79610186D01*
X104391709Y-79609452D01*
X104382493Y-79595660D01*
X104382362Y-79593664D01*
X104384025Y-79592553D01*
X104385267Y-79592886D01*
G37*
G36*
X95885267Y-79592886D02*
G01*
X95896262Y-79600233D01*
X95915199Y-79604000D01*
X97514801Y-79604000D01*
X97533738Y-79600233D01*
X97544733Y-79592886D01*
X97546729Y-79592755D01*
X97547840Y-79594418D01*
X97547507Y-79595660D01*
X97538291Y-79609452D01*
X97540031Y-79610615D01*
X97540916Y-79612409D01*
X97540455Y-79613560D01*
X97525922Y-79630952D01*
X97517296Y-79699670D01*
X97540082Y-79747288D01*
X97539928Y-79749282D01*
X97539389Y-79749814D01*
X97538291Y-79750548D01*
X97547507Y-79764340D01*
X97547638Y-79766336D01*
X97545975Y-79767447D01*
X97544733Y-79767114D01*
X97533738Y-79759767D01*
X97514801Y-79756000D01*
X95915199Y-79756000D01*
X95896262Y-79759767D01*
X95885267Y-79767114D01*
X95883271Y-79767245D01*
X95882160Y-79765582D01*
X95882493Y-79764340D01*
X95891709Y-79750548D01*
X95889969Y-79749385D01*
X95889084Y-79747591D01*
X95889545Y-79746440D01*
X95904078Y-79729048D01*
X95912704Y-79660330D01*
X95889918Y-79612712D01*
X95890072Y-79610718D01*
X95890611Y-79610186D01*
X95891709Y-79609452D01*
X95882493Y-79595660D01*
X95882362Y-79593664D01*
X95884025Y-79592553D01*
X95885267Y-79592886D01*
G37*
G36*
X104385267Y-78792886D02*
G01*
X104396262Y-78800233D01*
X104415199Y-78804000D01*
X106014801Y-78804000D01*
X106033738Y-78800233D01*
X106044733Y-78792886D01*
X106046729Y-78792755D01*
X106047840Y-78794418D01*
X106047507Y-78795660D01*
X106038291Y-78809452D01*
X106040031Y-78810615D01*
X106040916Y-78812409D01*
X106040455Y-78813560D01*
X106025922Y-78830952D01*
X106017296Y-78899670D01*
X106040082Y-78947288D01*
X106039928Y-78949282D01*
X106039389Y-78949814D01*
X106038291Y-78950548D01*
X106047507Y-78964340D01*
X106047638Y-78966336D01*
X106045975Y-78967447D01*
X106044733Y-78967114D01*
X106033738Y-78959767D01*
X106014801Y-78956000D01*
X104415199Y-78956000D01*
X104396262Y-78959767D01*
X104385267Y-78967114D01*
X104383271Y-78967245D01*
X104382160Y-78965582D01*
X104382493Y-78964340D01*
X104391709Y-78950548D01*
X104389969Y-78949385D01*
X104389084Y-78947591D01*
X104389545Y-78946440D01*
X104404078Y-78929048D01*
X104412704Y-78860330D01*
X104389918Y-78812712D01*
X104390072Y-78810718D01*
X104390611Y-78810186D01*
X104391709Y-78809452D01*
X104382493Y-78795660D01*
X104382362Y-78793664D01*
X104384025Y-78792553D01*
X104385267Y-78792886D01*
G37*
G36*
X95885267Y-78792886D02*
G01*
X95896262Y-78800233D01*
X95915199Y-78804000D01*
X97514801Y-78804000D01*
X97533738Y-78800233D01*
X97544733Y-78792886D01*
X97546729Y-78792755D01*
X97547840Y-78794418D01*
X97547507Y-78795660D01*
X97538291Y-78809452D01*
X97540031Y-78810615D01*
X97540916Y-78812409D01*
X97540455Y-78813560D01*
X97525922Y-78830952D01*
X97517296Y-78899670D01*
X97540082Y-78947288D01*
X97539928Y-78949282D01*
X97539389Y-78949814D01*
X97538291Y-78950548D01*
X97547507Y-78964340D01*
X97547638Y-78966336D01*
X97545975Y-78967447D01*
X97544733Y-78967114D01*
X97533738Y-78959767D01*
X97514801Y-78956000D01*
X95915199Y-78956000D01*
X95896262Y-78959767D01*
X95885267Y-78967114D01*
X95883271Y-78967245D01*
X95882160Y-78965582D01*
X95882493Y-78964340D01*
X95891709Y-78950548D01*
X95889969Y-78949385D01*
X95889084Y-78947591D01*
X95889545Y-78946440D01*
X95904078Y-78929048D01*
X95912704Y-78860330D01*
X95889918Y-78812712D01*
X95890072Y-78810718D01*
X95890611Y-78810186D01*
X95891709Y-78809452D01*
X95882493Y-78795660D01*
X95882362Y-78793664D01*
X95884025Y-78792553D01*
X95885267Y-78792886D01*
G37*
G36*
X99280660Y-76197493D02*
G01*
X99294452Y-76206709D01*
X99295615Y-76204969D01*
X99297409Y-76204084D01*
X99298560Y-76204545D01*
X99315952Y-76219078D01*
X99384670Y-76227704D01*
X99432288Y-76204918D01*
X99434282Y-76205072D01*
X99434814Y-76205611D01*
X99435548Y-76206709D01*
X99449340Y-76197493D01*
X99451336Y-76197362D01*
X99452447Y-76199025D01*
X99452114Y-76200267D01*
X99444767Y-76211262D01*
X99441000Y-76230199D01*
X99441000Y-77829801D01*
X99444767Y-77848738D01*
X99452114Y-77859733D01*
X99452245Y-77861729D01*
X99450582Y-77862840D01*
X99449340Y-77862507D01*
X99435548Y-77853291D01*
X99434385Y-77855031D01*
X99432591Y-77855916D01*
X99431440Y-77855455D01*
X99414048Y-77840922D01*
X99345330Y-77832296D01*
X99297712Y-77855082D01*
X99295718Y-77854928D01*
X99295186Y-77854389D01*
X99294452Y-77853291D01*
X99280660Y-77862507D01*
X99278664Y-77862638D01*
X99277553Y-77860975D01*
X99277886Y-77859733D01*
X99285233Y-77848738D01*
X99289000Y-77829801D01*
X99289000Y-76230199D01*
X99285233Y-76211262D01*
X99277886Y-76200267D01*
X99277755Y-76198271D01*
X99279418Y-76197160D01*
X99280660Y-76197493D01*
G37*
G36*
X101680660Y-76197493D02*
G01*
X101694452Y-76206709D01*
X101695615Y-76204969D01*
X101697409Y-76204084D01*
X101698560Y-76204545D01*
X101715952Y-76219078D01*
X101784670Y-76227704D01*
X101832288Y-76204918D01*
X101834282Y-76205072D01*
X101834814Y-76205611D01*
X101835548Y-76206709D01*
X101849340Y-76197493D01*
X101851336Y-76197362D01*
X101852447Y-76199025D01*
X101852114Y-76200267D01*
X101844767Y-76211262D01*
X101841000Y-76230199D01*
X101841000Y-77829801D01*
X101844767Y-77848738D01*
X101852114Y-77859733D01*
X101852245Y-77861729D01*
X101850582Y-77862840D01*
X101849340Y-77862507D01*
X101835548Y-77853291D01*
X101834385Y-77855031D01*
X101832591Y-77855916D01*
X101831440Y-77855455D01*
X101814048Y-77840922D01*
X101745330Y-77832296D01*
X101697712Y-77855082D01*
X101695718Y-77854928D01*
X101695186Y-77854389D01*
X101694452Y-77853291D01*
X101680660Y-77862507D01*
X101678664Y-77862638D01*
X101677553Y-77860975D01*
X101677886Y-77859733D01*
X101685233Y-77848738D01*
X101689000Y-77829801D01*
X101689000Y-76230199D01*
X101685233Y-76211262D01*
X101677886Y-76200267D01*
X101677755Y-76198271D01*
X101679418Y-76197160D01*
X101680660Y-76197493D01*
G37*
G36*
X103280660Y-76197493D02*
G01*
X103294452Y-76206709D01*
X103295615Y-76204969D01*
X103297409Y-76204084D01*
X103298560Y-76204545D01*
X103315952Y-76219078D01*
X103384670Y-76227704D01*
X103432288Y-76204918D01*
X103434282Y-76205072D01*
X103434814Y-76205611D01*
X103435548Y-76206709D01*
X103449340Y-76197493D01*
X103451336Y-76197362D01*
X103452447Y-76199025D01*
X103452114Y-76200267D01*
X103444767Y-76211262D01*
X103441000Y-76230199D01*
X103441000Y-77829801D01*
X103444767Y-77848738D01*
X103452114Y-77859733D01*
X103452245Y-77861729D01*
X103450582Y-77862840D01*
X103449340Y-77862507D01*
X103435548Y-77853291D01*
X103434385Y-77855031D01*
X103432591Y-77855916D01*
X103431440Y-77855455D01*
X103414048Y-77840922D01*
X103345330Y-77832296D01*
X103297712Y-77855082D01*
X103295718Y-77854928D01*
X103295186Y-77854389D01*
X103294452Y-77853291D01*
X103280660Y-77862507D01*
X103278664Y-77862638D01*
X103277553Y-77860975D01*
X103277886Y-77859733D01*
X103285233Y-77848738D01*
X103289000Y-77829801D01*
X103289000Y-76230199D01*
X103285233Y-76211262D01*
X103277886Y-76200267D01*
X103277755Y-76198271D01*
X103279418Y-76197160D01*
X103280660Y-76197493D01*
G37*
G36*
X100880660Y-76197493D02*
G01*
X100894452Y-76206709D01*
X100895615Y-76204969D01*
X100897409Y-76204084D01*
X100898560Y-76204545D01*
X100915952Y-76219078D01*
X100984670Y-76227704D01*
X101032288Y-76204918D01*
X101034282Y-76205072D01*
X101034814Y-76205611D01*
X101035548Y-76206709D01*
X101049340Y-76197493D01*
X101051336Y-76197362D01*
X101052447Y-76199025D01*
X101052114Y-76200267D01*
X101044767Y-76211262D01*
X101041000Y-76230199D01*
X101041000Y-77829801D01*
X101044767Y-77848738D01*
X101052114Y-77859733D01*
X101052245Y-77861729D01*
X101050582Y-77862840D01*
X101049340Y-77862507D01*
X101035548Y-77853291D01*
X101034385Y-77855031D01*
X101032591Y-77855916D01*
X101031440Y-77855455D01*
X101014048Y-77840922D01*
X100945330Y-77832296D01*
X100897712Y-77855082D01*
X100895718Y-77854928D01*
X100895186Y-77854389D01*
X100894452Y-77853291D01*
X100880660Y-77862507D01*
X100878664Y-77862638D01*
X100877553Y-77860975D01*
X100877886Y-77859733D01*
X100885233Y-77848738D01*
X100889000Y-77829801D01*
X100889000Y-76230199D01*
X100885233Y-76211262D01*
X100877886Y-76200267D01*
X100877755Y-76198271D01*
X100879418Y-76197160D01*
X100880660Y-76197493D01*
G37*
G36*
X102480660Y-76197493D02*
G01*
X102494452Y-76206709D01*
X102495615Y-76204969D01*
X102497409Y-76204084D01*
X102498560Y-76204545D01*
X102515952Y-76219078D01*
X102584670Y-76227704D01*
X102632288Y-76204918D01*
X102634282Y-76205072D01*
X102634814Y-76205611D01*
X102635548Y-76206709D01*
X102649340Y-76197493D01*
X102651336Y-76197362D01*
X102652447Y-76199025D01*
X102652114Y-76200267D01*
X102644767Y-76211262D01*
X102641000Y-76230199D01*
X102641000Y-77829801D01*
X102644767Y-77848738D01*
X102652114Y-77859733D01*
X102652245Y-77861729D01*
X102650582Y-77862840D01*
X102649340Y-77862507D01*
X102635548Y-77853291D01*
X102634385Y-77855031D01*
X102632591Y-77855916D01*
X102631440Y-77855455D01*
X102614048Y-77840922D01*
X102545330Y-77832296D01*
X102497712Y-77855082D01*
X102495718Y-77854928D01*
X102495186Y-77854389D01*
X102494452Y-77853291D01*
X102480660Y-77862507D01*
X102478664Y-77862638D01*
X102477553Y-77860975D01*
X102477886Y-77859733D01*
X102485233Y-77848738D01*
X102489000Y-77829801D01*
X102489000Y-76230199D01*
X102485233Y-76211262D01*
X102477886Y-76200267D01*
X102477755Y-76198271D01*
X102479418Y-76197160D01*
X102480660Y-76197493D01*
G37*
G36*
X98480660Y-76197493D02*
G01*
X98494452Y-76206709D01*
X98495615Y-76204969D01*
X98497409Y-76204084D01*
X98498560Y-76204545D01*
X98515952Y-76219078D01*
X98584670Y-76227704D01*
X98632288Y-76204918D01*
X98634282Y-76205072D01*
X98634814Y-76205611D01*
X98635548Y-76206709D01*
X98649340Y-76197493D01*
X98651336Y-76197362D01*
X98652447Y-76199025D01*
X98652114Y-76200267D01*
X98644767Y-76211262D01*
X98641000Y-76230199D01*
X98641000Y-77829801D01*
X98644767Y-77848738D01*
X98652114Y-77859733D01*
X98652245Y-77861729D01*
X98650582Y-77862840D01*
X98649340Y-77862507D01*
X98635548Y-77853291D01*
X98634385Y-77855031D01*
X98632591Y-77855916D01*
X98631440Y-77855455D01*
X98614048Y-77840922D01*
X98545330Y-77832296D01*
X98497712Y-77855082D01*
X98495718Y-77854928D01*
X98495186Y-77854389D01*
X98494452Y-77853291D01*
X98480660Y-77862507D01*
X98478664Y-77862638D01*
X98477553Y-77860975D01*
X98477886Y-77859733D01*
X98485233Y-77848738D01*
X98489000Y-77829801D01*
X98489000Y-76230199D01*
X98485233Y-76211262D01*
X98477886Y-76200267D01*
X98477755Y-76198271D01*
X98479418Y-76197160D01*
X98480660Y-76197493D01*
G37*
G36*
X100080660Y-76197493D02*
G01*
X100094452Y-76206709D01*
X100095615Y-76204969D01*
X100097409Y-76204084D01*
X100098560Y-76204545D01*
X100115952Y-76219078D01*
X100184670Y-76227704D01*
X100232288Y-76204918D01*
X100234282Y-76205072D01*
X100234814Y-76205611D01*
X100235548Y-76206709D01*
X100249340Y-76197493D01*
X100251336Y-76197362D01*
X100252447Y-76199025D01*
X100252114Y-76200267D01*
X100244767Y-76211262D01*
X100241000Y-76230199D01*
X100241000Y-77829801D01*
X100244767Y-77848738D01*
X100252114Y-77859733D01*
X100252245Y-77861729D01*
X100250582Y-77862840D01*
X100249340Y-77862507D01*
X100235548Y-77853291D01*
X100234385Y-77855031D01*
X100232591Y-77855916D01*
X100231440Y-77855455D01*
X100214048Y-77840922D01*
X100145330Y-77832296D01*
X100097712Y-77855082D01*
X100095718Y-77854928D01*
X100095186Y-77854389D01*
X100094452Y-77853291D01*
X100080660Y-77862507D01*
X100078664Y-77862638D01*
X100077553Y-77860975D01*
X100077886Y-77859733D01*
X100085233Y-77848738D01*
X100089000Y-77829801D01*
X100089000Y-76230199D01*
X100085233Y-76211262D01*
X100077886Y-76200267D01*
X100077755Y-76198271D01*
X100079418Y-76197160D01*
X100080660Y-76197493D01*
G37*
M02*
