M48
; DRILL file {KiCad 6.0.9-8da3e8f707~116~ubuntu20.04.1} date Mon Apr 24 17:25:30 2023
; FORMAT={-:-/ absolute / metric / decimal}
; #@! TF.CreationDate,2023-04-24T17:25:30+00:00
; #@! TF.GenerationSoftware,Kicad,Pcbnew,6.0.9-8da3e8f707~116~ubuntu20.04.1
; #@! TF.FileFunction,MixedPlating,1,2
FMAT,2
METRIC
; #@! TA.AperFunction,Plated,PTH,ViaDrill
T1C0.400
; #@! TA.AperFunction,Plated,PTH,ComponentDrill
T2C1.000
; #@! TA.AperFunction,Plated,PTH,ComponentDrill
T3C1.199
; #@! TA.AperFunction,Plated,PTH,ComponentDrill
T4C1.520
; #@! TA.AperFunction,NonPlated,NPTH,ComponentDrill
T5C3.200
%
G90
G05
T1
X73.66Y-50.8
X73.66Y-60.96
X73.66Y-71.12
X73.66Y-81.28
X76.2Y-50.8
X76.2Y-71.12
X76.2Y-81.28
X78.74Y-48.26
X78.74Y-50.8
X78.74Y-53.34
X78.74Y-55.88
X78.74Y-58.42
X78.74Y-63.5
X78.74Y-73.66
X78.74Y-76.2
X78.74Y-78.74
X78.74Y-81.28
X78.74Y-88.9
X78.74Y-91.44
X78.74Y-93.98
X81.28Y-53.34
X83.82Y-53.34
X83.82Y-66.04
X83.82Y-68.58
X85.8Y-61.6
X86.36Y-53.34
X87.63Y-78.486
X88.138Y-76.2
X88.9Y-55.88
X88.9Y-58.42
X91.44Y-58.42
X93.472Y-73.406
X93.472Y-78.994
X93.98Y-91.44
X93.98Y-93.98
X94.234Y-82.804
X94.234Y-83.82
X94.488Y-73.914
X94.742Y-75.184
X95.25Y-80.772
X96.266Y-74.676
X96.52Y-58.42
X96.52Y-76.2
X96.52Y-91.44
X96.52Y-93.98
X96.774Y-88.646
X98.044Y-74.422
X99.06Y-66.04
X99.06Y-68.58
X99.06Y-87.63
X99.06Y-93.98
X99.822Y-83.566
X100.5Y-71.0
X101.092Y-82.296
X101.6Y-53.34
X101.6Y-55.88
X101.6Y-80.01
X101.6Y-81.28
X101.6Y-93.98
X102.108Y-59.182
X102.362Y-83.82
X103.1Y-54.9
X104.14Y-91.44
X104.14Y-93.98
X104.9Y-51.8
X105.391Y-74.403
X105.41Y-75.946
X105.664Y-72.136
X106.426Y-76.2
X106.68Y-86.36
X106.68Y-88.9
X106.68Y-91.44
X106.68Y-93.98
X107.442Y-59.4
X107.696Y-83.058
X107.95Y-81.534
X109.22Y-53.34
X109.22Y-60.96
X111.76Y-53.34
X111.76Y-55.88
X111.76Y-58.42
X111.76Y-60.96
X111.76Y-88.9
X111.76Y-91.44
X111.76Y-93.98
X114.3Y-60.96
X114.3Y-71.12
X114.3Y-81.28
X116.84Y-60.96
X116.84Y-71.12
X116.84Y-81.28
T2
X83.185Y-78.105
X83.185Y-80.645
X83.185Y-83.185
X85.725Y-78.105
X85.725Y-80.645
X85.725Y-83.185
X91.97Y-74.91
X91.97Y-77.45
X91.97Y-79.99
X91.97Y-82.53
X91.97Y-85.07
X91.97Y-87.61
X91.97Y-90.15
X91.97Y-92.69
X109.96Y-74.93
X109.96Y-77.47
X109.96Y-80.01
X109.96Y-82.55
X109.96Y-85.09
X109.96Y-87.63
X109.96Y-90.17
X109.96Y-92.71
T3
X101.6Y-49.276
X105.41Y-49.276
X109.22Y-49.276
T4
X74.295Y-48.26
X74.295Y-53.34
X74.295Y-58.42
X74.295Y-63.5
X74.295Y-68.58
X74.295Y-73.66
X74.295Y-78.74
X74.295Y-83.82
X81.915Y-90.805
X86.995Y-90.805
X90.805Y-49.53
X95.885Y-49.53
X115.57Y-48.26
X115.57Y-53.34
X115.57Y-58.42
X115.57Y-63.5
X115.57Y-68.58
X115.57Y-73.66
X115.57Y-78.74
X115.57Y-83.82
T5
X74.0Y-91.0
X83.185Y-49.0
X116.0Y-91.0
T0
M30
